{"glyphs":{"0":{"ha":895,"x_min":31,"x_max":895,"o":"m 245 76 q 243 77 245 77 q 241 78 242 78 q 224 81 233 77 l 216 85 l 208 88 l 174 104 l 157 112 l 140 119 q 200 68 149 104 q 271 26 251 32 l 245 76 m 600 763 q 444 847 513 832 q 463 825 451 838 l 511 775 l 514 773 q 517 772 516 772 q 600 763 560 772 m 73 329 l 75 312 q 83 301 75 304 l 96 296 q 109 290 104 292 l 144 268 l 163 256 l 182 245 l 183 251 l 184 257 l 182 271 l 180 285 q 173 296 180 293 l 122 321 l 72 345 l 73 329 m 98 195 l 121 155 l 123 149 q 127 145 125 146 q 161 130 143 137 l 184 121 l 207 111 q 220 104 212 109 l 227 100 l 234 96 l 233 100 l 232 104 l 223 123 l 215 142 q 200 155 211 155 q 194 156 197 155 l 188 159 l 100 196 l 98 195 m 177 319 l 176 325 q 177 336 176 332 q 160 366 180 359 l 158 367 l 157 368 l 127 387 l 98 407 l 83 416 l 75 420 l 66 425 l 66 413 l 68 401 l 68 380 q 75 369 69 372 l 108 350 l 140 332 l 159 322 l 177 313 l 177 319 m 78 283 q 84 253 80 271 l 87 239 l 90 225 l 99 220 l 109 214 q 126 204 119 208 q 145 197 133 201 l 155 193 l 165 189 l 174 184 l 183 180 q 203 173 194 174 l 202 177 l 201 181 l 197 194 l 194 208 q 180 224 191 223 q 175 227 178 224 l 170 230 l 151 242 l 133 254 l 120 262 l 107 270 q 78 283 92 279 m 96 625 l 87 601 l 91 600 l 94 599 q 98 597 97 598 l 179 528 q 186 526 182 525 q 191 530 190 526 l 197 551 l 204 572 l 189 584 l 172 597 l 151 612 q 129 627 136 621 q 117 637 123 630 l 111 643 l 105 649 l 96 625 m 404 762 l 392 771 q 358 801 373 787 l 339 819 l 320 836 q 316 838 319 838 q 313 839 314 839 l 292 832 l 270 825 l 272 823 l 274 821 l 338 760 l 345 753 l 351 745 l 355 743 l 359 741 l 372 735 l 371 733 l 393 743 l 406 747 l 417 753 l 404 762 m 178 505 l 171 510 l 159 521 l 138 539 l 118 557 l 101 571 l 92 578 l 83 585 l 79 570 l 77 555 q 71 526 73 537 l 79 522 l 87 517 q 102 509 96 513 q 121 494 109 504 l 131 486 l 141 478 q 159 465 149 473 l 170 459 l 180 453 l 181 465 l 182 477 q 185 499 184 490 l 178 505 m 485 779 l 478 786 l 466 798 l 453 810 q 430 834 439 823 q 388 852 412 856 q 364 848 378 850 l 340 846 l 348 837 l 356 828 q 372 812 366 818 q 424 771 391 796 q 434 766 428 768 l 444 761 l 446 761 l 446 761 l 469 766 l 492 770 l 485 779 m 67 494 l 66 481 l 65 457 q 73 444 64 449 l 108 421 l 143 399 l 159 388 l 168 382 l 177 376 l 177 391 l 178 404 l 178 430 q 177 433 178 432 q 174 436 176 435 l 154 448 q 134 460 141 455 q 110 479 124 467 l 85 497 q 77 502 83 499 l 73 505 l 68 507 l 67 494 m 140 715 q 113 666 121 682 l 116 664 l 118 662 l 122 659 q 169 621 143 636 q 201 600 182 614 q 207 593 203 598 l 213 585 q 224 608 217 594 l 235 630 l 213 652 l 191 675 q 140 715 161 705 m 151 730 q 200 689 173 718 l 212 677 l 222 666 q 245 644 235 652 q 290 686 275 671 l 281 694 l 273 703 l 239 736 l 207 771 q 205 785 199 779 q 220 784 212 792 l 243 759 l 267 734 l 286 715 l 305 696 l 328 710 l 350 723 l 301 770 l 253 817 q 151 730 185 785 m 852 345 q 848 388 850 370 q 781 582 832 488 q 743 643 760 621 q 641 713 708 686 q 508 736 570 742 q 319 665 406 728 q 245 563 259 622 l 243 559 q 242 557 243 558 q 233 546 235 553 l 231 539 l 230 532 l 227 497 q 222 462 224 475 q 215 314 210 378 q 303 46 228 167 q 435 -45 352 -33 q 608 -52 534 -58 q 705 -26 663 -48 q 803 80 766 8 q 857 301 854 180 l 852 345 m 31 494 l 36 527 q 145 781 58 679 q 273 865 192 836 q 387 888 326 884 l 401 888 l 416 888 q 549 844 481 885 q 654 765 589 819 l 665 755 l 677 745 q 681 741 680 743 q 683 737 683 739 q 692 726 682 730 q 818 593 769 682 q 887 353 873 492 q 882 201 895 273 q 812 24 864 95 q 648 -81 748 -66 q 593 -86 622 -85 q 475 -86 536 -87 q 376 -70 409 -85 q 353 -57 367 -65 l 342 -50 l 331 -43 l 325 -40 l 319 -39 l 314 -38 q 309 -37 311 -37 q 151 60 205 19 q 100 115 116 87 q 92 126 97 120 l 84 136 l 81 140 q 80 144 80 142 q 75 163 80 153 l 71 173 l 66 182 q 38 314 45 237 l 35 355 l 33 397 l 32 399 l 31 401 l 31 494 m 594 1032 q 586 1015 604 1017 q 575 1008 580 1014 l 559 988 l 544 968 l 538 962 l 532 956 q 525 942 527 949 q 513 933 522 932 q 507 944 507 935 q 511 958 507 951 l 515 964 l 519 969 l 538 991 l 557 1014 q 567 1023 561 1018 l 577 1032 l 594 1032 m 233 1032 l 236 1029 q 237 1025 237 1027 q 241 1007 237 1017 l 245 999 l 250 991 l 254 979 l 258 968 q 252 955 261 958 q 241 963 244 954 l 234 979 l 227 996 q 220 1013 223 1004 q 224 1032 217 1025 l 233 1032 m 176 925 q 142 936 161 925 l 115 952 l 87 968 q 84 973 85 970 q 83 979 83 977 q 87 983 84 981 q 92 985 90 985 q 106 979 98 984 l 132 963 l 159 948 q 178 943 166 944 q 190 934 190 941 q 178 925 190 925 l 176 925 m 564 924 l 565 926 q 569 929 568 928 l 576 932 l 582 934 l 644 959 q 656 954 653 962 q 651 942 660 945 l 594 920 l 586 916 l 578 911 q 562 923 563 903 l 564 924 m 118 877 l 115 878 q 110 878 112 878 l 89 886 q 68 894 76 890 q 60 900 64 895 l 56 904 l 54 909 q 52 915 51 911 q 57 919 54 918 q 64 919 60 920 q 69 916 68 918 q 86 905 73 909 l 98 900 l 111 897 q 124 898 117 895 q 138 895 133 902 q 135 883 142 888 q 127 880 132 881 l 124 878 l 121 877 l 118 877 m 674 874 q 661 865 674 861 q 650 865 654 867 l 638 859 l 627 852 l 620 849 q 614 848 616 848 q 609 851 611 848 q 606 856 606 853 q 607 861 605 857 q 610 865 608 863 q 640 880 625 873 q 661 887 652 886 q 674 874 674 888 m 454 140 q 502 113 479 119 l 469 141 l 472 144 l 464 142 l 454 140 m 490 149 q 538 112 507 127 q 541 111 540 111 q 554 99 554 114 q 598 109 580 100 l 513 158 q 508 158 511 159 l 499 154 l 490 149 m 633 494 q 593 557 621 528 q 545 585 564 587 q 576 522 555 564 q 606 513 591 524 l 620 504 l 633 494 m 564 149 l 600 130 q 604 127 602 128 q 609 127 608 127 q 623 123 616 132 l 632 133 l 637 138 l 641 142 l 620 151 l 600 159 l 574 171 l 548 182 q 545 183 547 183 q 541 182 542 183 q 534 176 538 180 l 530 173 l 526 170 l 564 149 m 669 372 l 667 390 l 665 392 l 663 395 q 629 413 650 405 l 612 420 l 593 427 q 595 388 595 399 l 633 371 l 672 353 l 669 372 m 556 198 q 587 187 570 196 l 600 180 l 614 172 q 627 167 619 170 l 640 163 l 646 162 l 653 161 l 659 173 q 663 184 661 180 q 618 205 645 193 l 573 227 l 569 219 l 564 212 l 556 198 m 656 439 l 650 459 q 640 469 647 467 q 602 494 622 477 q 592 501 598 498 l 586 504 l 581 507 l 583 492 l 585 477 l 591 449 l 591 447 l 593 446 l 627 433 l 644 426 l 662 419 l 656 439 m 673 304 l 673 326 q 672 330 673 328 q 669 333 671 332 q 633 351 655 340 l 602 366 q 595 368 601 366 l 595 319 l 673 283 l 673 304 m 669 216 l 671 227 l 672 239 l 673 252 q 667 263 674 259 l 641 277 l 614 291 q 604 296 610 294 l 593 300 q 581 243 587 269 l 623 224 q 666 204 649 212 l 669 216 m 557 381 l 555 412 q 535 522 551 477 q 498 581 521 562 q 484 585 491 587 l 473 580 l 461 576 q 439 566 448 571 q 378 479 384 536 l 378 474 l 376 469 q 374 458 374 463 q 373 455 374 457 l 372 452 l 368 444 q 366 436 366 439 q 367 403 365 418 q 385 275 377 322 q 421 177 393 219 q 425 174 422 175 q 429 172 428 172 q 538 245 507 178 q 558 351 559 288 l 557 381 m 324 418 q 336 465 326 449 q 345 488 343 475 q 380 564 349 529 q 501 626 430 618 q 618 587 569 633 q 692 451 668 538 q 711 322 709 393 q 694 167 713 237 q 557 62 667 66 q 434 112 492 60 q 344 300 356 181 q 338 334 342 313 l 334 351 l 331 368 l 328 393 l 324 418 z "},"1":{"ha":895,"x_min":127,"x_max":787,"o":"m 564 94 l 574 106 l 585 119 q 604 145 597 132 l 602 146 l 562 96 l 564 94 m 475 893 q 426 863 464 892 q 378 818 388 833 l 395 818 l 398 821 l 400 825 q 404 830 402 828 q 429 853 414 840 l 452 873 l 475 893 m 520 889 l 515 890 l 505 890 q 496 888 500 890 l 475 869 l 454 851 l 436 834 l 417 817 q 439 817 433 815 q 456 827 445 819 l 475 844 l 500 865 l 513 877 l 526 888 l 520 889 m 615 844 l 593 825 l 572 807 q 529 774 551 791 q 520 769 526 772 l 511 764 l 509 762 q 507 760 507 762 l 507 750 l 507 739 l 509 739 l 528 751 q 546 763 538 758 q 603 808 566 778 q 612 819 610 814 q 615 831 614 823 l 617 843 l 615 844 m 600 878 l 555 884 q 552 884 553 884 l 549 882 l 524 861 l 498 840 l 484 828 l 471 817 q 484 817 476 816 l 490 817 l 496 817 q 517 807 509 817 l 519 809 l 522 810 l 600 874 l 600 878 m 509 678 l 512 677 l 530 690 l 548 705 l 578 726 l 608 749 q 611 752 610 750 q 613 755 613 754 l 613 774 l 613 793 l 609 790 l 604 787 l 585 770 l 565 755 l 539 736 l 514 719 q 511 715 512 718 q 509 712 509 713 l 508 695 l 509 678 m 490 229 q 496 234 496 234 l 529 269 l 562 302 l 589 331 l 614 359 q 617 366 616 362 l 618 388 l 618 408 l 601 388 q 583 368 591 376 l 565 349 l 547 330 q 507 296 526 308 q 491 272 492 286 q 490 252 490 264 l 490 241 l 490 229 m 607 726 l 603 723 l 595 718 l 522 664 q 510 639 506 652 l 510 634 l 510 629 l 510 594 l 513 596 l 516 598 q 577 648 538 621 l 583 652 l 587 658 q 597 667 593 665 q 612 693 613 675 l 612 711 l 612 720 l 612 729 l 607 726 m 599 316 l 584 299 q 509 221 547 260 q 496 212 503 215 q 491 205 491 211 l 492 140 l 494 140 l 534 195 l 551 219 l 568 243 q 609 286 589 270 q 612 291 611 287 l 613 311 l 614 334 l 599 316 m 496 386 l 517 414 q 615 509 567 478 q 618 511 616 509 q 618 515 618 513 l 616 541 l 614 566 l 522 481 q 517 477 519 478 q 511 475 513 475 q 505 477 509 475 l 503 479 l 499 480 l 493 386 l 496 386 m 492 306 q 604 421 558 363 q 620 473 623 444 l 620 480 l 620 490 l 618 488 l 616 486 l 612 484 q 532 403 574 455 l 523 391 l 514 378 q 493 358 504 365 l 492 357 l 492 355 l 492 306 m 504 533 l 500 490 l 505 492 l 509 494 q 515 499 513 497 q 610 591 556 538 q 612 595 612 592 q 613 599 613 597 l 613 611 l 612 624 l 612 654 l 600 644 l 589 635 l 566 616 l 533 589 l 528 585 l 522 580 q 508 576 515 576 l 504 533 m 493 42 l 496 43 l 499 45 q 503 49 502 47 l 511 58 l 520 67 q 536 86 530 78 l 551 109 l 566 132 q 601 173 584 157 q 602 176 602 174 l 603 179 l 606 215 l 609 258 l 606 260 l 589 239 l 572 218 l 540 173 l 507 129 q 500 123 505 126 l 497 121 l 493 119 l 493 42 m 469 781 q 330 788 381 781 q 326 787 328 789 q 324 784 325 785 q 275 706 304 741 q 189 649 237 663 q 169 623 169 643 l 170 617 l 170 611 l 170 587 l 170 564 q 169 548 170 557 l 166 532 l 170 532 l 191 538 q 212 542 203 541 q 277 546 248 547 q 290 543 283 546 q 302 536 296 541 q 307 517 313 530 q 301 456 298 496 l 304 418 l 308 380 l 310 335 l 311 290 l 314 197 l 317 104 l 317 64 l 317 25 l 317 16 q 455 9 402 18 l 456 20 l 457 30 l 457 75 l 456 120 l 457 224 l 458 329 q 463 450 459 388 l 469 530 q 474 611 473 581 q 475 663 475 633 l 474 715 l 473 748 l 473 781 l 469 781 m 268 511 l 258 510 l 247 510 q 226 507 234 509 q 195 501 214 505 l 163 494 q 147 492 153 492 q 127 508 129 491 q 130 541 127 526 q 136 610 138 572 q 136 631 135 618 l 138 640 l 138 650 q 138 659 138 654 q 153 680 134 679 q 232 713 194 680 q 299 818 277 754 q 326 830 306 838 q 335 831 331 829 l 365 854 l 393 878 q 431 913 409 892 q 477 930 451 935 l 543 921 l 608 911 q 617 907 612 910 l 621 905 l 626 902 l 625 900 l 632 901 q 652 884 652 904 l 651 862 l 651 841 l 650 744 l 651 647 q 654 577 652 623 l 656 508 q 654 410 657 469 l 652 368 l 650 325 q 650 321 650 323 l 652 317 l 653 314 l 654 311 q 654 307 655 307 q 646 290 648 300 l 646 280 l 645 271 l 643 240 l 641 209 l 645 207 l 649 205 q 651 197 652 202 q 647 191 650 194 l 644 187 l 641 184 l 644 178 q 647 156 652 168 q 584 60 629 109 q 545 24 568 42 l 523 9 l 501 -5 l 497 -7 l 494 -10 q 443 -26 475 -28 q 397 -22 425 -26 l 351 -18 q 313 -17 330 -16 q 304 -19 309 -17 l 296 -22 q 273 -16 281 -28 q 277 8 263 -1 q 283 19 283 12 l 278 173 l 275 228 l 273 283 l 271 359 l 270 434 l 269 460 l 268 486 l 268 498 l 268 511 m 690 848 q 679 857 680 849 q 686 867 678 865 l 760 888 l 776 892 q 785 887 784 894 q 779 875 787 878 l 718 857 l 709 854 l 700 851 l 694 850 l 690 848 m 294 920 l 292 918 q 289 913 291 914 q 283 913 287 913 q 279 916 280 913 l 255 939 l 233 964 q 222 968 229 968 q 214 977 214 970 q 222 987 214 985 q 242 979 233 989 l 290 929 q 294 923 290 928 l 294 920 m 260 871 q 253 857 264 859 q 237 857 243 855 l 205 866 l 172 876 q 164 884 163 878 q 168 890 165 887 l 170 892 l 172 895 q 175 896 173 896 q 178 895 177 896 q 191 888 183 890 l 198 888 l 205 886 l 216 882 l 228 878 q 252 875 243 872 q 257 873 254 876 l 259 873 l 260 871 m 336 1045 q 339 1059 332 1055 q 353 1053 347 1062 q 367 1020 361 1040 l 372 1003 l 377 986 q 372 975 380 978 q 361 981 363 972 l 357 989 l 355 998 l 356 999 l 336 1045 m 593 999 q 624 1053 596 1035 q 639 1052 633 1059 q 633 1037 644 1045 q 610 998 614 1023 q 600 986 608 985 q 593 990 595 987 l 593 994 l 593 999 m 675 952 l 672 954 q 668 959 669 957 q 669 965 667 962 q 673 970 671 968 q 711 996 692 989 q 715 998 713 996 l 719 1001 q 732 1002 726 1008 q 731 988 739 994 q 714 977 723 981 q 686 955 693 967 q 682 953 685 954 l 680 951 l 677 950 l 675 952 z "},"2":{"ha":895,"x_min":18,"x_max":826,"o":"m 569 155 q 597 163 583 159 q 583 174 589 170 l 576 165 q 569 155 572 160 m 627 222 l 637 210 l 656 187 q 670 184 663 180 l 646 212 l 621 239 q 617 233 618 235 l 627 222 m 643 178 q 607 216 629 192 l 603 209 l 599 202 q 595 191 595 195 q 601 182 595 187 l 606 178 l 612 174 l 613 173 l 614 172 l 616 171 l 618 171 l 630 174 l 635 176 l 643 178 m 526 527 q 514 566 528 552 q 469 596 492 588 l 465 597 l 462 598 l 494 563 l 526 527 m 460 840 l 468 835 l 475 829 l 483 822 q 495 806 491 814 q 508 798 498 799 l 517 798 l 527 796 l 559 790 l 561 792 l 463 844 l 460 840 m 429 542 q 433 526 425 530 q 439 522 436 525 l 444 516 l 465 494 l 486 473 q 494 466 489 469 l 504 458 q 511 475 507 466 q 468 506 491 484 l 458 515 l 449 524 q 429 542 438 535 m 687 249 l 693 244 l 712 224 l 731 204 q 735 201 733 203 q 739 201 737 201 l 747 202 l 756 205 q 754 208 754 208 l 706 257 q 703 258 705 259 l 692 256 l 680 254 l 687 249 m 712 198 l 709 202 l 686 222 q 664 243 672 235 q 640 245 656 251 l 641 244 l 642 243 l 689 190 q 694 189 691 188 l 705 191 l 716 193 l 712 198 m 476 801 l 477 804 l 471 808 l 465 813 q 435 850 444 827 l 434 852 l 433 854 l 388 866 l 387 864 q 431 814 410 846 q 439 804 433 810 q 446 802 444 802 l 461 801 l 476 801 m 420 512 q 406 486 415 503 l 413 481 l 430 469 l 447 456 l 456 448 l 465 440 q 488 428 477 431 l 491 435 l 492 437 l 494 440 q 420 512 445 488 m 113 677 l 71 726 q 63 715 63 718 q 68 705 62 713 l 88 680 l 109 654 l 126 632 l 144 610 l 150 620 l 153 625 l 155 628 l 113 677 m 96 93 q 97 85 96 88 q 111 66 102 74 q 149 35 126 50 l 170 22 l 191 9 l 203 3 l 216 -4 l 217 -2 l 205 8 l 192 20 l 178 32 q 153 57 163 46 q 96 102 131 81 l 96 93 m 209 704 l 217 713 l 212 720 q 207 727 210 724 l 172 760 l 136 793 l 128 787 l 119 780 q 161 739 138 766 l 180 716 q 200 694 191 703 l 209 704 m 418 800 q 391 835 408 817 l 375 850 l 360 865 q 356 867 358 867 l 336 867 l 327 866 l 316 865 q 321 859 321 859 l 348 836 l 374 813 q 380 795 384 805 l 418 800 m 411 591 l 416 584 l 424 571 l 426 569 l 427 568 l 476 523 l 489 511 q 503 500 496 505 q 517 494 513 492 q 523 509 520 496 l 523 509 l 522 510 q 510 516 513 512 l 495 535 l 479 553 q 444 587 461 574 q 440 593 442 589 l 438 597 l 436 602 l 429 601 l 422 600 l 407 597 l 411 591 m 192 766 l 232 728 l 238 732 l 244 737 l 258 747 l 218 783 l 178 819 q 152 804 167 812 l 192 766 m 259 848 l 274 836 q 288 823 283 828 q 304 804 295 815 l 320 785 q 323 783 321 783 q 326 781 325 781 l 347 787 l 370 793 l 358 802 q 347 811 351 808 l 322 833 l 298 857 q 294 859 296 858 q 291 860 292 861 l 274 857 l 256 852 l 259 848 m 400 313 q 391 320 394 317 l 374 335 l 356 350 q 319 375 336 366 l 317 376 l 315 377 q 313 377 313 378 l 302 367 l 291 355 l 294 353 l 296 351 l 319 337 l 341 323 q 389 298 368 306 q 394 294 391 296 l 399 289 q 404 297 401 292 l 410 306 l 400 313 m 475 409 q 456 425 467 415 l 436 441 q 395 471 412 461 l 384 457 l 374 444 l 408 418 q 440 393 427 404 l 444 394 l 447 395 q 452 396 450 397 q 458 393 455 395 l 460 391 l 463 389 l 469 398 l 475 409 m 237 121 q 216 137 229 128 l 205 145 l 194 153 q 155 190 168 172 l 148 179 l 141 169 l 170 144 l 197 119 l 225 94 l 253 67 l 267 94 l 237 121 m 215 810 l 235 793 l 273 758 q 289 765 280 761 l 305 774 l 301 780 l 297 786 q 288 797 292 793 l 263 820 l 238 843 q 235 844 237 844 q 233 844 234 844 l 214 837 l 205 833 l 195 829 l 215 810 m 224 276 l 260 250 l 297 224 l 306 218 l 315 211 q 335 201 326 203 l 345 214 l 353 227 l 296 262 l 239 298 l 235 294 l 231 288 l 222 278 l 224 276 m 248 198 l 302 154 l 308 161 l 313 169 l 322 183 l 210 264 q 192 243 201 254 l 248 198 m 177 224 l 174 219 l 168 212 q 168 203 164 207 l 174 196 l 180 189 q 192 178 186 182 q 220 156 202 169 l 250 134 q 263 123 256 130 l 277 111 l 283 121 l 290 132 q 288 143 294 138 l 258 166 l 230 190 l 205 209 l 180 229 l 177 224 m 88 734 l 94 727 l 107 712 l 131 683 l 155 654 q 160 650 157 652 l 165 646 q 189 680 177 663 q 168 702 180 688 l 149 726 q 104 767 125 753 l 93 755 l 81 743 l 88 734 m 265 303 l 279 294 l 304 277 q 320 269 311 273 l 336 260 q 363 239 354 251 l 377 258 l 391 278 q 277 341 349 294 l 272 334 l 265 328 q 252 313 258 319 l 265 303 m 326 391 q 374 359 347 381 l 396 339 q 420 321 410 328 l 433 343 l 448 366 l 404 398 l 361 430 q 326 391 342 410 m 109 116 l 113 114 q 161 76 144 93 q 190 47 172 64 l 220 20 q 229 22 226 14 l 234 32 q 239 41 237 37 q 237 56 245 49 l 209 84 q 180 111 192 100 q 155 132 171 120 l 129 154 q 105 119 117 136 l 109 116 m 245 -24 q 781 66 560 -7 l 779 73 q 779 81 779 78 q 783 136 780 103 l 785 152 l 787 168 l 779 169 l 772 170 q 768 170 770 171 l 747 164 q 727 159 735 161 q 602 127 652 144 q 542 117 570 117 q 525 133 527 118 q 523 139 524 137 q 520 159 516 149 q 535 173 524 170 q 543 178 540 175 l 555 197 q 568 216 563 207 l 580 235 l 591 255 q 614 294 605 279 l 631 321 l 648 347 q 680 403 669 379 q 718 574 723 496 q 685 666 713 626 q 574 748 645 723 q 385 760 488 779 q 283 723 324 749 q 197 630 235 691 l 184 610 l 173 589 q 231 557 200 579 l 256 538 l 282 519 l 284 524 l 286 528 q 333 595 305 568 q 465 635 389 649 q 540 591 511 627 q 564 503 569 553 q 534 436 560 473 l 509 399 q 485 363 495 378 l 469 337 l 454 311 q 422 261 436 280 q 282 43 338 144 l 245 -24 m 372 578 q 332 536 347 559 q 308 489 321 517 q 277 479 296 465 l 241 507 l 205 532 q 146 559 177 553 q 131 574 133 562 l 130 576 q 130 577 130 577 q 119 586 123 578 l 115 592 q 111 597 113 595 q 77 635 94 612 l 62 655 l 47 676 l 28 700 q 28 727 18 713 l 35 735 l 40 744 q 52 761 47 755 q 159 850 92 813 q 323 900 237 892 q 469 877 392 905 q 618 795 534 852 q 627 779 627 789 q 630 770 627 773 l 656 747 l 683 723 q 753 572 748 661 q 718 401 759 493 q 655 292 700 361 l 653 289 l 652 288 l 650 285 l 673 289 l 694 292 l 714 296 q 731 292 726 299 q 755 267 739 279 l 769 256 l 783 244 q 795 230 788 239 l 802 222 l 808 215 l 810 212 q 813 210 812 211 q 825 193 826 206 l 821 161 l 817 129 l 815 102 l 813 77 q 810 68 812 73 l 807 61 l 805 62 l 807 57 l 808 52 q 796 31 812 35 l 580 -21 q 365 -52 500 -41 l 231 -63 q 208 -43 206 -65 q 207 -40 208 -42 q 203 -37 205 -39 q 101 28 139 -3 q 80 47 92 36 l 60 66 q 54 92 48 77 q 147 245 88 172 q 282 406 199 309 q 309 433 291 416 l 323 446 l 336 459 q 380 514 353 477 q 385 525 383 518 q 389 536 387 529 q 372 578 396 562 m 524 918 q 513 926 514 920 q 520 937 513 932 q 548 958 532 944 q 556 968 551 962 l 564 977 q 578 981 571 986 q 582 974 581 978 q 578 965 582 969 l 558 945 l 538 926 q 532 922 536 924 l 528 920 l 524 918 m 157 981 l 159 981 q 163 979 161 979 q 188 951 180 960 l 191 947 l 195 943 q 204 939 199 940 q 208 937 205 939 q 210 932 210 934 q 203 922 212 924 q 184 928 193 920 l 173 941 l 161 954 q 153 960 158 957 q 147 975 145 964 q 151 979 148 976 l 153 981 l 155 983 l 157 981 m 282 960 q 273 951 282 951 q 264 960 264 951 q 261 981 265 969 l 258 991 l 254 1002 q 252 1005 254 1003 q 248 1008 250 1007 q 242 1020 240 1011 q 253 1025 245 1029 q 261 1021 258 1023 q 267 1015 265 1018 q 282 964 281 992 l 282 960 m 584 897 l 582 899 q 579 903 579 901 q 580 908 578 905 q 583 912 581 911 l 595 919 l 608 926 l 619 930 l 631 935 q 637 935 633 936 q 642 932 641 935 q 644 928 644 931 q 642 922 644 924 q 624 911 636 917 l 608 905 l 593 898 q 586 896 593 898 l 584 897 m 649 839 q 639 848 640 838 q 648 857 638 855 l 663 860 l 678 863 l 685 865 q 691 865 689 865 q 696 861 693 864 q 699 857 698 859 q 697 852 699 855 q 694 848 696 849 l 672 844 l 650 839 l 649 839 m 321 1036 q 331 1045 321 1045 q 339 1035 338 1044 l 340 1016 l 342 997 q 332 985 343 982 q 328 988 330 986 q 325 992 325 990 l 322 1008 l 321 1025 l 321 1025 l 321 1036 z "},"3":{"ha":895,"x_min":60,"x_max":817,"o":"m 640 143 l 670 176 l 668 178 l 637 144 l 640 143 m 392 223 q 358 201 375 216 l 343 187 l 329 173 q 366 190 346 174 q 392 223 387 206 m 352 224 l 348 225 q 329 219 338 229 l 310 201 l 290 183 l 283 176 l 280 173 l 276 168 q 295 174 293 168 q 297 175 296 174 l 299 176 l 306 178 q 311 182 309 180 l 334 202 l 346 213 l 357 223 l 352 224 m 696 591 l 635 555 l 612 543 l 589 529 q 586 525 587 528 l 585 522 l 583 519 l 585 518 l 600 526 l 616 534 q 646 549 636 543 q 700 593 682 568 l 696 591 m 340 587 q 325 588 334 594 l 310 579 l 296 570 l 271 551 l 258 542 l 245 532 l 248 532 l 251 531 l 255 530 q 277 536 267 526 q 286 543 280 539 l 296 551 l 340 587 m 195 192 q 208 186 205 186 q 218 193 212 186 l 221 195 l 223 196 l 254 224 l 286 252 l 281 255 l 275 258 l 255 243 q 234 227 243 233 q 195 192 217 216 m 315 235 l 312 236 q 295 235 304 243 l 275 217 l 255 199 l 243 189 l 231 178 l 240 176 l 250 173 q 260 177 256 172 q 276 195 269 188 l 297 213 l 319 233 l 315 235 m 258 272 q 244 272 254 279 l 200 242 l 178 227 l 155 212 q 176 199 170 203 q 218 236 192 214 l 258 272 m 297 528 q 351 540 321 525 q 387 576 385 556 q 347 569 361 589 l 345 567 l 343 566 q 297 528 315 543 m 355 932 q 201 857 294 913 l 214 856 l 227 855 l 251 854 q 259 858 255 854 l 355 932 m 550 423 q 684 514 600 457 l 680 515 l 677 517 q 671 517 673 518 q 598 483 637 503 q 549 440 561 464 q 545 436 548 438 l 543 434 l 540 432 l 543 429 l 547 426 l 550 423 m 663 263 l 673 273 l 696 294 q 719 314 709 307 q 767 340 743 334 l 770 359 l 772 380 l 753 366 l 734 351 q 698 322 712 334 q 675 302 688 314 l 654 282 q 650 273 650 278 l 651 263 l 652 253 l 663 263 m 758 317 l 741 307 q 702 275 722 295 l 684 257 l 667 239 l 663 235 l 659 232 q 654 223 654 227 q 650 203 652 216 l 650 193 l 648 182 l 659 191 l 668 199 l 686 216 q 705 233 697 227 q 739 271 731 254 l 749 293 l 760 316 l 758 317 m 745 459 l 740 467 l 726 456 l 712 446 l 673 420 l 634 393 q 620 380 628 388 l 612 374 l 606 367 q 621 345 612 357 q 751 451 697 399 l 745 459 m 650 304 l 655 311 q 667 321 661 317 l 692 340 l 718 360 q 765 402 747 382 l 768 405 q 768 408 768 407 l 765 421 l 761 435 l 753 428 l 746 421 l 732 409 l 635 330 q 633 322 631 327 l 639 311 l 644 298 l 650 304 m 417 812 l 422 809 l 435 804 q 444 805 439 802 l 546 865 q 584 887 561 873 l 572 892 l 562 898 q 541 897 552 904 q 461 846 510 876 l 436 831 l 410 815 l 417 812 m 720 730 l 713 725 l 700 717 l 648 688 l 595 659 q 592 656 593 658 q 591 652 590 654 l 593 636 l 597 619 l 610 627 l 623 635 l 676 666 l 729 697 q 732 701 730 698 q 733 705 733 703 l 730 720 l 728 734 l 720 730 m 496 768 q 505 785 492 781 q 519 793 511 787 l 549 810 l 578 827 l 605 843 l 633 859 l 623 864 q 614 870 618 867 q 591 870 604 878 l 544 842 l 497 815 l 477 804 l 457 792 l 477 780 l 496 768 m 292 850 l 299 848 q 332 853 317 844 q 377 880 349 865 l 423 907 l 442 919 l 462 932 l 448 934 l 434 937 q 406 934 418 938 q 283 852 357 917 l 292 850 m 722 486 l 715 491 l 704 500 q 701 500 703 500 q 699 500 699 500 l 677 487 l 656 474 q 584 425 629 456 l 575 417 l 566 410 l 581 395 l 595 381 l 597 382 l 598 384 q 704 464 651 434 q 715 471 709 467 l 722 476 l 728 480 l 722 486 m 529 913 l 512 918 l 495 924 q 480 922 488 927 l 452 903 l 425 887 l 399 870 q 342 840 367 850 l 363 833 l 383 826 q 395 827 390 825 q 456 864 427 846 l 493 887 l 530 910 l 529 913 m 598 557 l 603 559 l 652 588 q 703 616 682 605 q 729 650 724 627 l 731 665 l 732 671 l 734 680 l 730 677 l 728 676 l 723 673 l 600 602 l 597 600 q 596 597 596 598 l 594 576 l 593 554 l 598 557 m 587 675 l 591 677 l 633 701 l 675 724 l 696 736 l 715 749 q 718 753 717 751 q 720 756 720 755 l 711 773 l 703 789 l 679 776 l 656 763 l 610 737 q 566 705 578 720 l 575 689 l 584 674 l 587 675 m 528 743 q 553 721 545 728 l 572 734 q 591 747 583 742 l 621 764 l 649 779 l 670 791 l 681 798 l 692 805 l 683 814 l 673 823 l 656 840 q 644 842 650 846 l 616 828 q 589 813 600 820 l 568 800 l 547 787 q 502 765 522 772 l 528 743 m 124 77 l 138 71 l 155 62 l 174 54 q 210 37 195 43 q 349 5 262 18 q 448 10 405 -3 q 599 143 551 43 q 613 275 629 208 q 559 366 601 323 q 534 389 550 375 l 522 400 l 510 412 q 496 429 502 419 q 502 452 489 442 q 509 458 506 454 q 556 554 545 501 q 515 704 573 641 q 425 769 480 743 q 191 821 300 828 l 174 820 q 157 818 164 819 q 125 804 138 814 l 136 738 l 145 672 l 149 673 l 152 673 l 163 677 l 174 682 q 195 688 186 686 q 341 689 275 705 q 425 608 412 673 q 430 596 425 603 q 431 576 436 586 q 427 564 427 569 q 394 517 422 532 q 309 495 353 494 q 235 499 285 496 q 228 494 229 500 l 221 458 l 216 423 l 214 410 l 214 396 q 353 375 283 400 q 418 321 400 358 q 422 205 445 266 q 361 144 406 162 q 300 134 334 134 q 172 163 237 134 l 157 170 l 142 177 q 111 82 132 146 l 124 77 m 359 -35 l 328 -31 q 197 1 254 -20 q 168 13 184 5 l 154 20 l 140 28 q 79 54 102 49 q 70 80 60 58 l 78 98 q 85 116 83 109 q 106 187 96 149 q 105 207 108 194 q 119 231 101 226 q 137 240 130 235 q 237 309 198 288 q 272 306 256 319 q 294 290 281 298 l 317 275 q 400 259 349 254 q 394 286 401 271 q 326 344 373 330 q 245 360 288 354 q 202 357 231 362 q 178 376 176 353 q 184 454 180 424 q 189 483 185 465 l 195 511 q 194 518 196 515 q 199 546 181 534 l 210 554 l 222 563 q 245 579 237 574 q 315 623 273 597 q 342 625 327 630 l 351 622 l 361 619 q 379 617 371 616 q 382 617 380 618 l 386 615 q 340 659 371 648 q 261 662 306 671 q 210 651 239 658 l 158 639 q 138 631 149 636 q 121 631 129 627 q 112 644 113 635 l 104 708 l 101 736 l 98 763 q 85 798 94 787 q 89 825 73 812 q 100 833 93 829 l 111 840 l 141 858 l 234 913 l 270 934 l 306 956 q 416 978 354 984 q 640 895 526 968 q 705 845 676 871 q 770 700 772 781 q 767 671 770 688 l 764 656 l 762 642 q 762 633 761 638 q 758 621 765 624 q 751 615 753 619 q 703 543 731 570 l 709 539 l 715 535 q 811 382 801 475 q 794 281 817 335 q 713 163 769 223 q 602 63 671 117 q 595 60 600 61 l 591 58 l 588 56 q 581 52 583 54 q 504 -8 547 13 q 407 -34 460 -30 l 405 -35 l 404 -35 l 359 -35 m 267 1011 q 264 1008 265 1008 q 259 1008 262 1007 q 255 1009 256 1008 l 237 1031 q 220 1054 227 1044 q 216 1064 218 1058 l 216 1069 l 215 1076 q 224 1084 214 1084 q 233 1076 233 1084 q 237 1061 233 1067 l 250 1044 l 264 1026 l 267 1021 l 271 1016 l 267 1011 m 553 1008 q 541 1019 541 1010 q 550 1028 541 1027 q 557 1031 553 1028 l 564 1035 l 574 1044 l 585 1052 l 587 1055 l 589 1057 q 603 1060 595 1065 q 607 1054 607 1058 q 605 1048 607 1051 q 597 1039 603 1044 l 585 1028 l 571 1018 q 562 1013 568 1016 l 553 1008 m 660 1004 l 662 1004 q 666 1002 665 1004 q 668 998 667 1001 q 668 993 669 995 q 660 987 666 988 l 645 985 l 630 984 q 614 978 623 983 q 599 980 603 972 q 604 994 595 987 q 630 1002 614 1001 l 644 1004 l 657 1005 l 660 1004 m 388 1082 l 383 1056 q 380 1052 382 1054 q 374 1050 376 1050 q 366 1061 365 1050 l 372 1096 l 373 1102 l 374 1108 q 385 1118 376 1119 q 393 1107 393 1118 l 388 1082 m 323 1057 q 319 1053 321 1054 q 309 1059 313 1050 l 302 1078 l 296 1099 q 304 1113 291 1113 q 308 1112 306 1113 q 311 1110 310 1112 l 319 1086 l 324 1074 l 328 1061 l 323 1057 m 694 912 q 684 922 684 913 q 694 930 684 930 l 703 933 l 713 936 l 720 938 l 728 939 q 737 930 737 939 q 729 921 737 922 l 719 919 l 709 916 l 694 912 z "},"4":{"ha":895,"x_min":22,"x_max":914,"o":"m 734 378 l 735 361 q 737 359 735 360 q 741 357 739 357 l 758 357 l 775 359 q 733 395 766 379 l 734 378 m 801 382 l 796 388 l 791 393 q 779 399 785 398 q 777 402 777 400 q 774 406 775 404 q 763 414 772 416 l 754 413 l 744 410 l 749 408 l 753 405 q 790 373 777 391 q 800 362 796 363 q 817 363 805 360 l 801 382 m 66 218 q 106 186 80 201 l 117 180 l 128 174 q 149 162 141 168 l 149 166 l 149 170 q 145 176 147 174 q 110 202 132 192 q 89 210 101 206 l 66 218 m 137 292 q 130 311 141 304 l 116 320 l 102 329 l 81 342 l 70 349 l 58 355 l 58 352 l 58 349 l 58 344 q 66 331 57 335 l 77 326 l 88 321 l 101 315 l 114 309 q 137 292 128 302 m 553 836 l 576 817 q 599 781 597 798 l 621 783 l 643 785 q 556 839 612 814 l 553 836 m 456 79 q 470 60 456 64 q 530 30 494 54 l 540 24 l 545 20 l 551 16 l 550 21 l 549 26 l 549 34 q 541 46 549 43 l 512 58 l 483 70 l 470 75 l 463 77 l 456 79 m 455 99 q 545 65 488 87 l 544 74 l 543 82 q 541 85 543 83 q 538 87 540 86 l 492 105 l 473 112 l 455 119 l 455 99 m 137 268 l 130 273 l 123 279 l 119 282 l 115 286 q 106 292 111 290 l 83 303 l 59 314 l 59 302 l 60 291 q 61 288 60 290 q 64 286 62 287 l 81 279 l 96 272 l 118 260 l 140 248 l 139 269 l 137 268 m 61 267 l 62 258 l 63 250 q 72 235 62 239 l 92 228 q 112 220 104 224 q 127 212 118 218 l 140 204 l 142 203 l 145 201 l 144 208 l 144 214 q 135 229 144 223 l 115 241 l 94 252 l 79 260 l 63 268 l 61 267 m 469 846 l 490 830 l 511 814 q 549 779 534 795 q 552 778 550 778 l 566 779 l 582 780 l 578 787 q 574 792 576 791 l 564 802 l 554 812 q 532 829 542 824 q 517 844 521 836 q 502 852 513 852 l 498 852 l 494 852 l 481 850 l 467 848 l 469 846 m 495 157 l 453 153 q 454 144 453 149 l 454 141 l 454 138 l 498 121 l 541 103 q 538 132 540 114 l 537 161 l 495 157 m 121 473 q 209 417 173 452 q 222 439 216 428 l 197 461 l 172 483 q 162 490 169 486 l 156 492 l 151 495 l 144 497 l 137 500 q 121 473 132 491 m 277 524 l 275 525 q 191 574 248 549 q 187 574 189 575 q 184 572 185 574 l 178 564 l 173 557 q 259 496 213 537 l 269 509 l 278 522 l 277 524 m 220 505 l 191 527 q 179 534 186 530 l 173 536 l 167 538 q 163 538 165 539 q 160 536 161 538 l 153 526 l 146 515 q 193 490 169 509 l 203 481 l 212 472 q 232 455 224 460 l 240 467 l 245 474 l 249 481 l 220 505 m 146 378 l 118 396 l 103 405 l 87 414 q 84 414 86 414 q 81 413 82 414 l 73 403 l 66 393 l 110 365 l 153 338 q 161 339 158 334 l 168 349 l 174 359 l 146 378 m 395 836 q 441 802 414 819 l 466 787 l 491 774 q 494 772 493 772 l 510 774 l 526 776 l 524 779 l 522 781 l 517 785 l 445 842 q 442 843 444 843 l 439 843 l 395 836 m 297 568 l 287 577 l 275 587 l 262 597 q 235 610 249 607 q 227 615 231 612 l 224 618 l 220 621 q 209 607 216 616 l 203 599 l 197 591 q 290 536 258 566 l 299 548 l 308 558 l 297 568 m 139 404 l 183 376 q 199 401 193 391 q 111 458 153 444 l 102 444 l 94 432 l 139 404 m 405 671 l 418 687 l 397 704 l 376 722 l 354 739 l 339 750 l 323 762 q 310 745 315 752 l 296 728 q 392 654 348 699 l 405 671 m 336 776 q 431 701 389 734 l 442 718 l 454 734 q 454 748 457 740 q 447 759 452 755 q 391 795 415 776 q 380 803 387 800 l 368 808 q 363 808 366 809 q 359 806 361 807 l 347 791 l 341 783 l 336 776 m 286 715 q 257 674 271 694 l 264 671 l 271 669 l 280 667 q 288 663 286 665 l 319 642 l 349 620 l 351 618 q 352 616 352 616 l 351 613 l 351 610 q 348 606 349 607 q 334 608 342 602 l 314 624 q 293 638 302 633 q 246 659 269 654 l 236 644 l 226 629 l 231 630 q 235 629 233 630 q 287 602 269 616 l 295 594 l 303 586 q 325 576 313 577 l 353 607 q 382 640 371 627 l 370 650 l 359 661 q 335 680 345 673 q 311 698 326 688 l 286 715 m 867 333 l 804 327 l 741 321 l 731 321 q 723 321 726 321 q 709 333 713 323 l 709 334 l 707 335 l 703 342 q 701 349 701 347 l 699 384 l 696 418 q 688 514 692 465 q 673 644 679 599 l 668 678 l 663 713 l 661 730 l 661 749 l 576 743 l 535 740 l 495 737 l 490 728 l 486 720 q 476 705 480 711 q 461 686 471 698 l 453 677 l 446 667 l 433 650 l 420 633 q 394 598 404 611 q 358 557 382 584 l 340 536 l 323 515 q 265 436 296 483 l 239 395 l 213 355 l 204 340 l 195 325 q 173 298 184 308 l 172 297 l 172 295 l 174 279 l 174 263 l 185 155 l 186 148 l 187 141 l 210 148 l 233 154 q 279 163 261 161 q 467 189 383 178 q 547 196 513 194 q 573 172 574 197 q 574 129 572 153 l 578 86 l 583 43 l 585 15 l 589 -12 l 616 -6 l 644 -1 l 664 4 l 685 9 l 720 17 l 735 20 q 742 28 742 20 l 744 79 q 744 130 745 109 q 741 157 744 142 l 738 171 l 735 185 q 749 208 731 205 l 764 210 l 779 212 l 789 214 l 800 218 l 805 220 l 810 222 l 843 231 l 877 240 q 875 264 880 253 q 873 271 873 267 l 873 277 l 869 332 l 867 333 m 914 240 q 910 227 909 233 q 901 210 913 214 l 890 206 l 878 203 l 821 189 l 819 189 q 775 174 806 176 l 777 162 l 778 151 q 776 12 785 87 l 774 4 q 772 -3 773 -1 q 760 -11 768 -9 q 675 -31 709 -24 l 648 -35 q 621 -41 630 -39 q 601 -46 613 -42 l 581 -53 q 572 -54 576 -54 q 565 -53 568 -54 q 554 -45 558 -49 q 546 -35 549 -40 q 517 -5 538 -18 l 503 3 q 488 11 494 8 q 457 22 472 18 q 420 68 420 31 l 419 104 l 418 141 q 410 149 418 149 q 231 117 345 142 q 199 111 218 114 l 168 106 q 148 117 154 104 q 141 123 146 121 l 93 154 l 45 185 q 28 224 27 197 l 28 256 l 26 286 l 24 356 l 22 370 l 22 385 q 26 399 22 394 q 73 463 49 426 l 93 497 l 113 532 q 152 591 128 558 l 174 621 l 195 649 l 214 675 l 233 702 q 271 755 258 736 q 296 785 280 767 l 309 801 l 322 816 q 340 842 334 830 q 360 853 349 855 l 362 858 l 364 862 q 370 869 367 867 q 376 873 372 872 q 382 873 380 874 q 399 871 390 870 l 408 872 l 416 873 l 455 880 l 494 886 q 566 871 529 890 l 585 861 l 606 850 q 645 828 629 838 q 663 812 653 823 l 671 804 l 680 795 q 688 793 683 792 q 705 787 698 793 q 709 770 711 779 l 708 767 q 707 765 707 766 q 697 750 698 760 q 697 741 696 746 l 698 732 l 707 653 l 716 575 l 722 515 l 728 454 l 729 450 l 729 447 l 730 444 l 746 447 l 762 451 q 783 447 773 454 q 818 425 800 435 q 885 381 860 404 l 890 377 l 896 373 q 903 361 902 368 l 904 355 l 905 349 q 913 258 903 292 l 913 257 l 914 256 l 914 240 m 712 1011 l 715 1009 q 718 1005 718 1007 q 718 1000 719 1004 q 715 996 717 998 l 701 983 l 686 971 l 662 950 q 661 947 661 949 l 660 944 q 650 935 659 935 q 642 939 645 935 q 640 947 638 943 q 648 961 642 956 l 673 983 l 699 1004 l 703 1008 l 709 1013 l 712 1011 m 811 848 q 826 840 825 848 q 818 830 827 831 l 739 821 q 728 828 728 819 q 736 838 726 838 l 804 847 l 808 848 l 810 848 l 811 848 m 768 902 q 726 899 745 907 l 715 893 l 705 888 q 688 895 693 882 q 696 907 684 905 q 707 910 702 907 l 721 916 q 735 921 729 920 q 765 921 751 925 l 768 920 l 771 920 q 781 910 781 920 q 768 902 780 902 m 176 861 q 190 855 184 858 q 205 847 196 852 l 220 838 q 227 832 223 836 q 225 819 231 825 q 214 819 220 814 q 160 846 184 841 q 152 857 151 848 q 162 865 153 864 l 176 861 m 284 888 q 283 882 284 884 q 276 880 280 880 q 267 888 267 879 q 259 906 266 898 q 252 912 256 909 l 244 918 l 239 920 l 235 922 q 231 934 227 928 q 244 938 236 943 q 274 917 262 927 q 284 888 283 909 m 325 1013 l 326 1011 q 330 1007 329 1009 l 335 995 l 340 983 l 345 975 l 349 967 q 345 956 353 958 q 338 956 342 956 q 333 959 334 957 q 317 986 324 971 q 312 1006 314 992 q 323 1015 311 1014 l 325 1013 m 381 339 q 389 342 385 340 l 396 345 l 392 346 l 388 347 q 381 339 383 347 m 509 551 l 509 558 l 508 566 l 504 560 l 500 554 l 492 543 q 510 536 503 538 l 509 551 m 458 370 l 441 377 l 408 390 q 393 364 401 378 l 401 363 l 408 363 l 422 362 l 431 362 q 440 358 437 362 q 442 357 441 357 l 446 358 l 459 360 l 467 361 l 475 363 l 458 370 m 480 437 l 517 421 l 517 426 l 515 431 q 514 441 515 437 q 503 454 514 452 l 490 458 l 477 461 q 453 475 462 466 q 442 454 445 460 l 480 437 m 532 371 q 505 385 521 376 l 492 392 l 479 399 q 423 418 449 416 l 421 414 l 418 409 q 479 381 438 395 q 484 381 481 380 l 488 382 q 497 365 499 383 l 532 368 l 532 371 m 461 490 q 511 472 477 477 l 512 490 l 511 508 q 511 513 511 511 q 509 517 510 516 l 496 522 l 482 528 l 477 518 l 471 509 l 461 490 m 550 461 l 551 443 q 553 431 551 438 l 557 418 l 558 412 l 559 406 l 562 401 q 564 398 563 399 q 574 382 574 391 q 563 347 573 358 q 534 333 551 334 l 511 331 l 488 329 q 440 321 460 327 l 413 313 q 387 304 397 308 q 358 286 376 299 q 341 282 349 279 q 329 298 328 288 q 332 313 330 305 q 372 400 342 345 l 410 470 l 448 539 q 504 616 471 580 q 527 618 513 627 q 541 594 541 612 l 546 537 l 551 480 l 550 479 l 550 461 z "},"5":{"ha":895,"x_min":60,"x_max":831,"o":"m 783 845 q 781 842 783 846 q 774 811 776 826 l 774 808 l 729 778 l 688 751 q 679 743 686 749 l 673 737 l 667 732 q 666 751 667 743 q 726 798 702 777 l 741 811 l 754 825 q 784 848 771 840 l 783 845 m 768 777 q 765 763 766 771 l 764 748 q 759 741 760 745 l 743 733 q 728 724 735 728 l 704 709 l 678 694 q 671 692 674 695 q 668 684 667 689 l 669 682 q 674 676 670 677 q 682 676 678 674 l 697 685 l 713 694 q 743 713 730 705 q 759 723 749 718 l 759 719 q 760 711 760 717 q 745 707 751 712 q 711 688 733 698 l 694 680 q 676 672 683 675 l 656 661 l 659 673 l 661 685 q 666 711 665 701 q 677 720 671 714 q 726 755 695 735 l 770 785 l 769 781 l 768 777 m 646 779 q 612 789 633 785 q 593 790 604 789 l 585 791 l 578 791 l 559 793 q 575 810 565 799 l 583 819 q 590 826 587 823 l 606 841 l 623 856 q 656 884 642 873 q 751 867 715 873 q 733 851 743 861 l 715 835 q 647 779 684 806 l 646 779 m 620 654 q 622 644 619 648 l 621 643 l 621 642 l 619 644 l 618 644 l 611 650 q 597 652 604 654 q 543 660 576 657 l 516 662 q 490 664 500 663 q 410 669 455 668 l 370 669 l 329 669 q 319 665 323 669 q 303 654 307 665 q 297 594 297 634 l 296 564 l 294 534 l 294 533 l 294 532 l 294 527 q 302 513 294 517 q 319 513 311 509 q 443 472 388 497 q 545 401 511 441 q 603 191 623 309 q 475 24 583 70 q 243 16 378 -18 l 237 18 l 229 20 q 209 25 218 22 q 165 39 184 32 q 105 75 111 57 q 107 123 101 88 q 113 154 109 136 l 116 168 q 119 181 118 177 q 262 121 214 128 q 271 119 264 117 l 273 119 l 274 120 q 321 121 298 118 q 467 239 457 140 q 449 333 471 290 q 379 401 426 377 q 313 418 355 413 l 295 420 l 277 422 q 243 429 257 425 q 147 443 192 441 l 151 496 l 155 550 q 167 656 160 614 q 171 687 169 669 l 173 718 q 181 781 176 759 q 192 785 187 781 l 197 791 q 330 777 247 789 l 396 768 q 462 761 433 763 q 496 760 474 760 l 515 761 l 534 761 q 604 751 583 761 q 631 714 631 740 q 627 687 631 705 l 623 671 q 620 654 621 662 m 399 558 q 420 566 408 562 l 432 568 l 443 571 q 485 584 472 576 l 488 585 l 491 583 q 474 574 483 580 l 466 570 l 458 565 q 431 551 448 559 l 416 544 l 403 537 q 395 534 397 537 l 393 531 l 392 528 l 364 536 l 382 548 q 399 558 391 554 m 331 606 q 334 635 332 623 l 378 635 q 354 619 366 628 q 343 612 349 615 l 331 606 m 332 561 q 338 562 336 559 q 342 568 341 564 q 359 581 348 574 l 368 586 l 376 591 q 400 604 387 597 l 424 616 q 428 621 427 618 q 427 627 429 624 q 422 631 425 630 q 415 631 418 633 q 363 603 382 614 l 355 598 l 365 606 l 374 612 l 386 620 q 398 627 393 625 l 408 630 l 418 634 q 456 632 439 633 l 468 631 l 468 614 q 450 609 461 611 l 440 608 l 431 606 q 392 592 412 602 q 361 574 380 587 l 345 564 q 330 555 336 558 l 330 562 l 332 561 m 535 564 l 525 559 l 515 553 q 496 540 503 546 q 472 523 487 532 l 448 507 q 411 522 428 516 l 435 534 q 460 547 451 541 l 473 553 l 486 562 q 513 573 501 570 l 535 564 m 570 528 l 547 511 q 502 479 517 491 q 466 499 484 490 l 486 512 q 507 526 498 520 q 530 543 515 533 l 543 550 l 555 557 l 593 544 l 570 528 m 644 519 q 632 508 641 515 l 625 503 l 619 498 l 605 486 l 591 475 l 576 463 l 562 452 q 552 441 557 448 q 517 469 535 456 l 541 486 l 564 503 q 611 536 595 524 q 645 521 629 530 l 644 519 m 659 513 q 682 494 671 505 q 673 489 677 493 l 669 486 l 665 481 l 633 449 l 618 434 l 602 420 q 595 412 600 418 l 591 407 l 587 402 q 564 429 576 417 q 579 443 573 438 l 593 455 l 608 467 l 623 480 l 639 493 l 644 497 l 650 501 q 659 511 655 505 l 659 513 m 693 484 q 712 457 703 473 q 661 406 690 436 q 614 357 627 371 l 613 357 q 597 388 607 372 l 600 393 l 605 399 q 618 412 609 404 l 625 417 l 631 423 l 647 438 l 662 454 q 667 460 663 456 l 673 467 q 687 478 682 477 q 693 484 692 479 m 730 407 q 718 393 726 401 l 713 387 q 709 382 709 384 q 668 348 696 369 q 656 337 663 344 l 650 332 l 644 326 q 637 319 642 324 l 629 311 q 621 339 625 328 q 644 364 631 347 l 656 378 l 667 390 q 720 441 688 413 q 728 414 726 427 l 730 407 m 733 385 q 721 297 736 342 q 692 271 703 279 l 660 243 l 650 234 l 640 224 q 633 294 641 260 l 639 299 l 644 304 l 668 324 q 692 344 682 336 q 730 381 711 358 l 733 385 m 633 162 q 639 200 637 179 q 649 210 644 203 l 659 220 q 681 239 668 229 l 703 258 l 705 259 q 633 162 678 204 m 179 229 q 195 243 184 233 l 203 253 l 214 262 q 251 288 239 287 q 265 281 254 289 q 222 243 236 257 l 204 226 l 186 208 q 180 201 185 207 l 176 196 l 172 191 l 147 204 q 179 229 161 214 m 257 212 l 216 169 q 185 183 201 175 l 185 184 q 205 204 193 192 l 227 224 q 279 269 243 241 l 289 261 q 298 254 294 256 l 257 212 m 315 246 q 360 234 334 238 q 339 213 353 227 l 329 203 l 319 193 l 304 177 l 288 161 q 281 153 286 159 q 233 163 257 155 l 274 204 l 315 246 m 413 220 l 402 210 q 381 188 394 201 l 372 177 l 361 167 q 312 155 339 159 l 309 154 l 304 154 l 317 165 l 328 178 q 341 191 333 182 l 355 203 q 380 231 372 220 q 424 229 399 230 l 413 220 m 277 865 q 315 895 290 876 l 335 911 l 354 926 l 368 926 l 382 925 l 380 924 l 356 905 l 333 886 l 304 863 l 276 840 l 271 836 l 267 831 q 255 822 260 825 l 232 824 q 277 865 258 848 m 444 921 l 424 906 l 414 898 l 406 890 q 387 873 397 884 l 368 855 q 328 823 345 833 q 321 821 323 823 q 317 815 317 819 l 300 817 l 282 819 q 307 841 291 827 l 319 852 l 330 861 l 343 872 l 357 883 q 385 904 375 896 q 398 914 389 909 l 413 924 l 444 921 m 507 907 l 500 901 l 484 888 l 468 873 l 451 858 l 433 843 q 398 814 413 825 q 395 806 395 811 l 381 808 l 368 809 l 355 810 l 343 812 q 376 837 358 821 l 391 851 l 405 865 q 468 918 444 904 l 515 911 l 507 907 m 567 902 l 562 897 l 551 888 l 543 879 q 523 861 530 867 q 508 847 517 856 l 493 832 q 460 806 474 814 q 452 801 454 806 l 414 804 q 444 829 427 814 l 474 856 l 506 884 l 513 889 l 521 894 q 534 906 530 901 l 535 908 l 567 902 m 616 873 l 599 857 l 565 826 q 558 819 562 824 l 554 814 l 551 810 q 534 798 541 799 q 531 795 532 797 l 481 799 q 508 823 492 806 l 521 836 l 534 848 q 551 863 541 853 l 567 879 l 578 888 l 590 898 l 635 889 l 616 873 m 810 865 l 807 867 q 804 880 809 873 q 791 887 799 886 q 780 897 789 896 q 675 916 738 903 l 623 926 l 570 937 q 357 960 444 960 q 346 962 352 964 l 340 960 l 340 959 q 331 951 334 957 l 311 935 l 292 920 q 252 889 267 901 l 218 858 l 184 826 l 174 826 q 166 824 170 826 q 155 814 157 822 q 138 731 144 785 l 136 709 l 134 687 q 130 645 132 661 q 119 541 123 606 l 116 489 l 112 437 q 111 419 106 429 q 125 409 115 410 q 205 401 160 409 l 245 395 l 285 387 q 383 351 349 376 q 433 264 430 319 l 433 264 q 340 275 378 263 q 334 283 339 281 q 325 281 329 286 l 325 281 q 310 288 317 284 l 302 292 q 299 298 302 296 q 292 300 296 301 l 283 307 l 273 313 q 254 324 263 320 q 234 321 241 330 q 103 218 174 252 l 102 217 q 94 214 97 217 q 86 196 84 208 l 87 194 l 87 194 q 83 177 85 187 l 78 159 q 69 120 72 135 q 71 54 60 73 q 142 9 86 28 q 187 -5 159 3 l 198 -7 l 208 -10 q 227 -16 220 -14 q 376 -33 297 -37 q 520 5 461 -29 q 611 101 579 39 q 705 192 664 136 q 762 311 747 250 l 765 315 q 768 321 768 317 q 765 326 768 324 q 768 391 771 360 q 673 541 757 492 q 591 577 647 555 l 569 586 l 547 595 q 503 615 522 606 l 503 630 q 555 626 536 629 q 602 614 584 623 q 614 614 607 612 q 629 610 620 606 q 664 626 644 615 l 680 635 l 697 644 l 715 653 l 734 662 q 768 683 755 672 l 771 685 q 786 686 779 682 q 793 701 793 691 l 793 709 l 793 718 l 793 722 l 793 725 q 795 731 795 728 l 798 744 l 803 747 l 808 751 q 810 761 813 755 q 800 766 806 766 l 801 768 q 808 801 807 790 q 812 826 809 817 l 816 837 q 822 850 822 843 q 814 864 822 859 l 810 865 m 268 1006 q 254 1014 262 1008 l 247 1018 l 240 1023 l 235 1026 l 229 1029 q 217 1031 222 1032 q 209 1023 209 1031 q 217 1015 209 1014 q 227 1011 220 1015 l 232 1008 l 236 1005 l 249 996 q 263 989 257 991 q 273 994 271 986 q 268 1006 275 1002 m 331 1031 q 318 1053 326 1043 q 299 1069 309 1065 q 292 1067 295 1069 q 289 1063 290 1066 q 290 1057 288 1059 q 294 1052 291 1053 q 307 1041 300 1050 q 314 1027 312 1033 q 319 1021 315 1023 q 326 1021 322 1020 q 330 1025 329 1022 q 331 1031 332 1027 m 399 1074 q 397 1081 399 1078 q 391 1083 395 1083 q 385 1081 387 1083 q 382 1074 382 1078 l 382 1065 l 382 1056 l 381 1048 l 380 1040 q 387 1029 378 1031 q 396 1035 395 1027 l 398 1044 l 399 1053 l 399 1064 l 399 1074 m 641 1065 q 632 1057 637 1063 l 628 1053 l 625 1048 l 616 1042 l 608 1036 l 604 1033 l 601 1030 q 594 1023 597 1026 q 588 1006 587 1015 q 591 1000 589 1002 q 597 998 594 998 q 603 1000 601 998 q 605 1006 606 1002 q 612 1018 604 1011 q 618 1023 614 1020 l 622 1025 l 624 1026 q 635 1036 631 1031 l 639 1039 l 642 1043 q 650 1050 646 1048 q 652 1061 656 1054 q 641 1065 648 1069 m 723 1037 q 685 1015 704 1030 q 669 1000 677 1008 l 653 983 q 654 972 648 977 q 665 971 660 966 l 680 985 q 694 1000 688 994 q 727 1021 711 1015 q 732 1031 735 1023 q 723 1037 730 1040 m 816 978 q 809 975 814 976 l 806 975 l 802 974 l 793 971 l 783 968 q 777 966 781 968 l 769 962 q 755 959 760 957 q 743 956 747 963 q 747 944 739 948 q 766 943 755 940 l 774 947 l 783 951 q 795 954 788 952 l 807 956 q 828 966 821 960 q 831 972 831 968 q 828 977 831 975 q 823 980 826 979 q 816 978 819 980 z "},"6":{"ha":895,"x_min":25,"x_max":939,"o":"m 804 507 q 768 551 793 528 q 730 576 743 574 l 753 552 l 776 528 q 804 507 790 512 m 454 467 q 477 481 468 475 q 456 492 463 488 l 446 498 l 435 503 q 431 454 429 477 l 454 467 m 503 564 q 515 552 507 555 q 532 542 523 548 l 548 530 q 567 518 555 524 q 578 516 572 515 l 593 519 l 600 520 l 608 522 q 588 536 601 528 q 549 566 564 549 l 545 573 l 539 580 l 521 572 l 503 564 m 129 182 q 172 119 140 157 q 223 70 204 79 l 218 79 l 214 87 q 185 156 197 120 l 184 159 l 183 161 q 178 165 182 164 l 154 174 l 142 178 l 129 182 m 643 884 q 639 887 639 887 q 525 927 574 916 l 520 928 l 515 930 q 505 929 509 930 l 507 927 l 509 925 l 561 890 q 578 869 576 880 l 610 877 l 643 884 m 473 565 q 443 525 454 546 l 446 522 q 448 519 448 521 q 460 509 450 512 q 490 492 479 503 q 501 491 494 488 l 519 498 l 536 505 l 541 506 l 545 507 l 548 509 l 538 515 l 528 522 l 511 534 l 506 536 l 501 539 q 494 546 496 543 q 473 565 485 559 m 87 275 q 90 266 90 267 l 110 216 q 121 207 113 208 q 125 205 123 206 l 130 202 q 152 193 138 197 l 164 189 l 176 185 l 174 198 l 171 210 q 168 235 168 225 q 155 249 166 245 l 124 261 l 106 267 l 98 271 l 87 275 m 83 574 l 80 564 l 75 545 l 80 541 l 84 539 l 110 528 l 134 516 q 160 502 150 509 q 180 494 172 494 l 183 507 l 187 522 l 180 526 l 173 532 l 104 575 l 96 580 l 91 582 l 85 584 l 83 574 m 71 363 q 70 357 70 357 l 79 303 q 87 295 80 298 l 156 269 l 159 269 l 163 268 l 161 295 l 161 321 l 149 326 l 138 330 l 115 340 q 94 351 106 345 l 82 357 l 71 363 m 127 659 l 130 658 l 135 655 l 150 649 l 165 644 l 180 638 l 195 633 q 225 618 213 626 q 253 663 241 646 l 231 676 l 208 689 q 161 709 182 703 l 142 686 l 133 674 l 123 661 l 127 659 m 64 471 q 116 445 84 465 l 140 430 q 166 417 154 422 l 176 475 l 171 477 l 166 478 l 161 480 l 157 482 q 116 505 142 494 l 95 515 l 73 524 q 71 524 73 524 q 64 471 66 491 m 408 909 l 410 907 l 413 905 l 431 892 l 449 881 q 484 855 472 866 q 492 841 493 848 l 528 853 l 562 865 q 546 879 558 873 q 508 903 528 887 q 491 915 501 909 l 473 926 l 469 929 q 465 929 467 930 q 406 911 435 925 l 408 909 m 66 382 q 96 371 80 378 l 109 363 l 122 356 q 146 345 131 351 l 153 342 l 161 340 l 163 370 l 164 398 l 153 403 l 143 408 l 117 424 l 90 439 q 71 448 83 443 q 68 449 71 449 l 66 450 l 64 450 l 65 416 l 66 382 m 203 570 l 215 600 q 188 616 205 609 l 170 623 l 151 629 q 115 646 128 637 q 93 602 99 620 l 112 590 l 130 579 l 161 559 l 192 540 l 203 570 m 464 849 l 448 861 l 426 877 l 404 892 q 387 901 391 901 q 371 895 383 901 q 332 869 347 882 q 375 840 353 860 l 393 822 l 412 804 l 446 820 l 480 836 l 464 849 m 673 534 l 666 541 l 652 553 q 626 570 638 566 q 616 576 621 572 q 613 588 608 582 q 627 591 618 595 l 646 580 l 651 577 l 655 574 l 674 557 q 692 541 685 548 q 728 523 711 522 l 730 522 l 732 522 l 747 518 l 764 515 l 762 517 l 761 518 l 759 520 l 724 555 l 689 589 q 667 599 682 597 q 565 589 621 605 l 562 587 l 557 585 q 584 560 566 572 l 595 553 l 606 546 q 627 530 618 538 q 637 526 631 526 l 658 526 l 669 527 l 681 528 l 673 534 m 174 722 q 221 703 197 716 l 242 690 l 263 677 q 324 742 291 713 q 397 795 353 768 l 385 806 l 374 817 q 351 836 361 829 q 336 846 346 841 l 329 850 l 321 854 q 317 855 319 855 q 312 853 314 855 l 294 837 l 275 820 q 283 814 279 818 l 292 810 l 304 802 l 317 794 q 335 779 326 788 q 334 766 342 772 q 322 767 328 761 q 296 787 313 777 l 281 795 l 267 804 l 264 805 l 261 806 l 243 789 l 227 773 q 275 740 250 761 q 279 739 276 739 l 284 738 q 295 729 294 738 q 284 718 296 716 q 271 722 277 718 q 264 727 268 724 l 257 732 l 218 757 q 208 756 212 760 q 174 722 186 734 m 676 854 l 668 853 q 443 779 564 831 q 287 649 345 737 q 228 532 250 593 q 197 260 181 401 q 235 118 205 181 q 389 -32 286 13 q 587 -48 479 -71 q 642 -32 611 -43 l 669 -22 l 696 -12 q 777 26 743 6 q 869 120 839 63 q 897 218 891 163 q 871 374 905 302 q 785 464 841 438 q 593 488 693 506 q 434 414 509 472 l 430 411 l 426 408 q 406 408 416 401 q 397 424 397 413 l 397 433 l 396 442 l 398 470 q 401 497 399 486 q 462 602 410 557 q 653 717 547 677 q 686 727 666 722 l 702 731 l 718 736 l 715 751 l 713 766 q 685 857 702 819 l 676 854 m 25 478 l 27 490 l 29 501 q 86 673 39 603 q 149 753 119 722 q 315 900 227 834 q 366 930 336 916 l 392 943 l 419 956 l 424 958 l 428 961 q 437 964 433 964 q 529 964 484 976 q 685 905 611 942 q 698 901 692 901 q 713 892 707 901 q 719 877 718 886 q 722 862 720 870 l 728 849 l 732 836 q 743 791 736 819 l 745 780 l 747 768 l 749 759 q 751 751 750 754 q 743 728 759 734 l 740 727 l 737 726 q 734 703 741 714 q 716 696 728 694 q 703 695 709 696 q 621 662 669 687 l 593 646 l 565 631 q 558 625 560 629 l 574 630 l 591 634 q 701 635 650 648 q 807 566 761 620 q 854 492 829 539 q 848 467 862 478 l 857 460 l 863 453 q 909 378 892 422 q 935 235 939 304 q 854 46 928 126 q 720 -41 799 -12 q 587 -83 637 -71 q 470 -92 524 -98 q 330 -41 393 -83 q 306 -23 319 -35 l 282 -4 q 271 2 277 1 q 241 15 256 7 q 155 85 196 39 q 55 249 85 161 q 31 363 40 295 l 29 382 l 27 402 l 26 404 l 25 406 l 25 478 m 497 1143 q 500 1132 500 1135 q 492 1124 499 1129 q 486 1116 489 1121 q 481 1107 483 1112 l 462 1026 l 461 1023 l 461 1020 q 451 1011 459 1010 q 444 1022 442 1012 q 449 1053 446 1042 l 456 1082 l 465 1110 q 489 1143 472 1134 l 497 1143 m 123 894 l 112 898 q 80 913 100 903 l 73 918 q 66 922 68 920 q 56 936 61 927 q 58 947 52 943 q 65 948 62 948 q 71 944 69 947 q 83 931 75 936 l 92 927 l 100 924 q 112 918 106 921 q 138 908 127 909 q 146 901 144 907 q 135 890 149 891 l 123 894 m 589 1095 q 585 1087 587 1090 l 570 1070 l 555 1053 l 552 1049 l 549 1046 q 546 1036 546 1041 q 536 1028 546 1027 q 529 1038 529 1029 q 538 1060 528 1048 l 561 1086 l 566 1090 l 570 1096 q 576 1107 574 1101 q 580 1112 576 1111 q 586 1113 583 1114 q 593 1104 592 1112 l 589 1095 m 663 1034 q 670 1034 670 1034 q 677 1023 678 1031 q 669 1016 676 1017 l 661 1016 l 654 1015 q 623 995 635 1010 q 605 983 614 985 q 593 987 597 981 q 597 999 588 997 q 610 1006 604 1000 l 615 1010 l 620 1015 q 663 1034 635 1030 m 198 1053 l 199 1055 q 200 1059 199 1058 q 204 1061 201 1061 q 209 1061 207 1062 q 213 1059 211 1061 q 215 1055 215 1057 q 220 1027 216 1043 l 225 1014 l 229 1000 q 232 985 231 993 q 224 977 232 978 q 216 982 217 976 l 199 1039 l 199 1045 l 198 1048 l 198 1052 l 198 1053 m 172 942 q 132 952 146 944 q 113 976 115 960 q 117 987 111 985 q 130 981 127 990 q 146 964 132 968 l 158 962 l 170 960 l 174 960 l 178 960 q 186 949 187 958 q 177 942 186 943 l 172 942 m 474 140 q 530 116 496 118 l 525 123 l 519 130 q 507 138 514 136 q 495 146 499 140 l 485 143 l 474 140 m 568 184 q 608 146 578 159 q 620 140 613 144 l 627 136 l 633 133 q 653 142 642 136 l 641 148 l 629 154 q 607 165 616 161 q 581 195 582 176 l 577 191 l 574 189 l 568 184 m 532 140 l 544 127 q 569 117 555 113 l 572 118 l 575 119 l 608 125 l 608 127 q 553 172 570 140 l 545 167 l 536 163 l 519 155 l 532 140 m 676 178 l 663 184 l 644 192 l 624 201 q 606 221 610 209 q 588 201 593 206 l 591 199 l 594 197 q 598 192 597 194 q 610 182 602 184 q 631 173 618 180 l 642 168 l 652 162 q 672 156 669 155 q 688 172 676 157 l 690 174 l 676 178 m 708 207 q 676 227 692 211 q 651 241 666 236 l 637 245 l 623 249 q 614 231 617 237 l 619 227 l 625 224 l 635 217 q 647 210 642 212 l 669 201 l 692 192 l 696 190 l 701 189 q 708 207 703 195 m 710 263 l 707 265 l 699 269 l 676 283 l 654 296 q 633 311 642 303 q 631 324 625 317 q 645 323 637 330 l 652 317 q 661 313 657 315 l 680 302 q 699 290 691 296 l 701 288 l 703 287 q 709 286 706 286 q 667 336 699 318 q 607 346 637 353 q 627 267 631 310 l 637 264 l 646 261 q 676 250 665 258 l 687 241 l 698 233 l 701 230 l 704 227 q 713 225 709 224 l 714 235 l 715 243 q 715 260 717 254 l 710 263 m 468 287 q 460 259 474 271 q 454 251 457 256 l 447 242 q 441 218 439 231 l 445 201 l 450 184 q 457 176 452 180 q 468 174 463 174 q 583 250 534 186 q 592 284 593 264 q 568 340 590 314 q 468 287 514 325 m 420 273 l 419 277 q 425 296 417 290 q 501 351 467 332 q 614 385 560 382 q 680 376 650 387 q 735 319 718 361 q 739 192 762 255 q 648 99 714 127 q 521 79 588 73 q 450 117 480 83 q 408 209 420 152 l 404 227 l 402 245 q 418 267 400 264 l 422 268 l 420 273 z "},"7":{"ha":895,"x_min":27,"x_max":810,"o":"m 442 135 l 440 134 l 437 131 q 406 109 425 118 l 389 100 q 385 98 386 99 q 382 92 382 96 q 427 114 406 101 q 444 136 441 123 l 442 135 m 410 82 q 375 66 392 79 l 372 63 l 368 60 q 359 58 363 57 l 357 57 l 356 56 l 347 41 q 410 82 382 60 m 644 492 q 652 494 652 494 l 665 501 q 678 508 673 506 q 707 536 696 514 l 708 540 l 710 543 q 712 550 711 544 q 688 528 696 538 q 671 518 681 518 l 667 517 l 663 516 q 652 506 656 513 l 648 499 l 644 492 m 474 192 l 467 189 l 461 186 q 429 159 441 180 l 420 148 l 412 136 l 413 134 l 422 142 q 458 164 444 160 q 463 168 460 165 l 475 191 l 474 192 m 608 382 l 600 378 l 591 374 q 579 364 585 372 l 559 336 l 539 308 q 532 298 538 307 q 564 321 556 309 q 576 340 568 329 l 590 357 l 610 382 l 608 382 m 494 248 l 467 211 l 468 210 l 492 220 q 496 224 494 222 l 513 250 l 530 275 l 526 280 l 522 286 l 494 248 m 686 713 l 768 766 q 772 769 770 768 q 774 773 774 771 q 773 789 775 780 q 768 787 768 787 l 732 761 l 695 735 l 685 727 l 675 719 q 673 705 668 713 l 686 713 m 601 399 q 631 415 617 407 q 647 432 642 422 l 675 482 l 675 484 l 675 485 l 656 477 q 644 467 646 473 q 634 461 642 459 l 632 461 l 629 461 q 601 399 612 425 m 772 747 l 770 746 l 768 745 l 766 743 q 697 699 739 723 q 684 690 691 696 l 671 679 q 662 646 660 669 l 663 647 l 665 647 l 758 718 l 764 722 l 768 724 l 772 727 l 772 747 m 216 768 l 217 772 q 220 779 218 777 l 233 791 q 245 804 239 799 l 293 841 l 340 878 l 344 880 l 346 882 l 349 884 l 343 885 l 338 885 l 330 886 q 308 879 315 888 q 298 870 304 875 q 242 823 276 854 l 215 798 q 187 774 199 783 l 184 770 l 182 768 l 180 766 q 214 764 203 765 l 216 768 m 487 749 q 522 789 495 769 l 582 838 q 589 844 583 838 q 581 846 585 844 l 572 848 q 555 846 562 851 l 553 846 l 551 846 q 545 846 548 848 l 543 845 l 540 842 q 531 833 534 836 q 502 806 522 820 q 479 788 488 796 l 460 770 l 441 752 l 487 749 m 159 768 q 165 778 161 773 l 169 782 l 173 785 q 240 845 216 824 l 260 863 l 281 879 l 289 886 q 265 888 275 890 q 246 878 254 887 q 195 832 222 846 q 111 774 162 815 q 104 768 111 774 l 159 768 m 652 827 l 636 831 l 619 836 q 603 832 611 838 l 570 805 l 536 779 q 523 766 530 774 l 511 753 l 509 751 l 507 747 l 520 745 l 532 744 q 555 742 547 743 q 653 825 602 796 l 652 827 m 268 767 l 273 772 q 283 782 279 779 l 328 815 l 373 848 l 389 860 l 404 872 l 408 874 l 410 876 l 409 878 l 397 880 l 384 882 q 368 878 375 883 l 315 836 l 261 794 q 248 783 255 790 l 237 771 l 235 768 l 233 764 q 249 762 239 763 l 256 762 l 262 762 l 268 767 m 460 871 l 453 872 l 441 874 q 428 869 434 876 q 403 847 413 855 l 353 812 l 304 776 l 286 763 l 287 760 l 315 759 l 342 758 l 345 762 l 347 765 q 351 771 349 769 q 386 802 368 787 l 425 836 l 446 852 l 467 870 l 460 871 m 661 623 q 667 568 663 600 q 674 565 671 566 l 694 584 l 714 602 q 766 693 754 637 l 766 697 l 767 701 l 765 700 l 763 699 l 760 697 l 680 637 l 677 634 q 675 631 675 633 q 661 623 672 623 m 530 857 q 528 859 528 859 q 494 864 504 865 q 465 846 484 862 l 452 835 l 414 803 l 368 762 l 366 760 l 364 756 l 385 755 l 406 754 q 415 758 410 754 q 467 801 446 781 q 489 821 475 809 l 513 841 l 521 848 l 530 857 m 650 741 q 663 752 658 748 l 696 777 l 728 802 l 732 804 l 736 808 l 709 813 l 684 819 q 673 816 677 821 q 656 804 664 808 q 605 767 631 792 l 591 753 l 583 747 l 576 739 q 608 733 589 736 l 623 730 l 637 727 l 650 741 m 624 694 l 615 696 q 406 720 533 715 l 334 723 l 261 725 l 195 729 l 127 732 l 108 733 l 88 732 q 84 695 80 717 q 88 676 86 683 l 111 612 l 113 610 l 114 606 q 182 606 144 611 q 280 597 237 597 q 369 595 325 598 q 391 593 378 595 l 412 589 q 425 568 430 585 l 420 553 q 414 538 417 545 l 401 517 l 389 496 l 359 449 l 330 402 q 273 309 294 347 q 217 218 249 269 l 161 128 l 130 77 l 99 26 l 96 21 l 94 16 l 100 15 l 105 14 l 174 11 q 241 -1 215 9 q 273 -3 256 -7 q 285 4 281 -2 q 380 154 322 75 l 442 237 l 505 320 q 587 453 558 393 l 604 487 l 621 521 l 625 527 l 629 532 q 634 545 633 540 q 634 558 635 550 l 633 565 l 632 572 l 629 602 l 627 631 q 633 692 627 665 l 624 694 m 372 561 l 359 562 q 334 563 344 563 l 291 563 q 248 564 264 563 q 217 566 235 564 l 185 570 q 118 572 142 576 l 112 570 l 105 568 q 85 579 90 565 l 69 629 l 54 679 q 52 734 46 703 l 44 736 q 34 759 27 743 q 41 770 36 764 q 52 779 47 775 q 97 810 70 789 l 119 826 q 140 842 131 835 q 173 861 159 854 q 217 895 199 874 l 229 909 l 241 921 q 262 925 252 930 q 267 924 264 924 l 272 923 q 420 911 334 922 l 441 909 l 445 908 q 449 909 448 908 q 465 906 458 913 l 466 905 l 469 905 q 566 886 511 900 l 613 873 l 661 860 q 770 838 725 842 q 782 840 776 838 q 806 823 804 846 q 808 797 808 809 l 810 749 q 807 702 809 723 q 785 629 801 654 q 784 622 784 626 q 783 607 785 611 q 771 597 781 603 q 767 593 769 596 q 764 589 765 591 l 740 541 l 717 492 q 633 349 673 401 l 605 312 l 576 275 q 482 132 514 191 l 475 119 l 469 107 q 461 81 463 93 q 456 73 460 76 l 452 69 l 448 66 l 431 54 l 387 23 l 360 4 l 334 -15 l 316 -28 l 298 -41 q 275 -42 288 -49 q 267 -40 271 -39 q 231 -35 252 -41 q 154 -24 201 -28 l 119 -22 l 83 -20 q 71 -23 76 -19 q 45 -19 60 -31 q 42 2 37 -11 q 52 14 46 11 q 54 16 53 15 l 56 20 q 118 128 81 66 l 151 181 l 183 234 l 230 311 l 277 387 q 315 448 291 410 l 355 508 q 370 533 361 518 l 377 546 l 385 560 l 372 561 m 501 962 q 490 969 492 962 q 496 979 489 976 l 502 981 l 507 983 l 522 987 l 536 994 q 556 996 545 998 q 564 985 565 994 q 555 979 563 978 q 545 977 551 979 l 540 975 l 534 973 q 517 967 528 970 l 509 964 l 501 962 m 402 1022 q 393 1026 396 1022 q 395 1036 391 1031 q 414 1062 406 1052 q 422 1070 418 1065 l 432 1078 q 445 1078 439 1085 q 444 1065 450 1073 l 439 1061 l 434 1057 l 426 1046 l 418 1037 l 413 1030 l 408 1024 q 405 1023 407 1023 l 402 1022 m 182 952 q 178 943 182 947 q 170 943 174 941 q 128 966 155 951 q 121 973 125 968 q 122 985 116 979 q 134 985 127 991 q 147 975 139 979 l 155 970 l 163 967 q 178 958 170 963 q 180 955 179 957 l 182 952 m 481 1025 l 480 1025 l 477 1024 l 471 1021 l 464 1017 q 452 1006 456 1012 q 446 1002 450 1002 q 439 1004 441 1002 q 438 1017 433 1008 l 441 1021 q 444 1024 443 1023 q 475 1043 459 1034 q 484 1045 478 1044 q 496 1036 496 1046 q 486 1025 496 1025 l 482 1025 l 481 1025 m 273 1027 q 264 1013 273 1014 q 256 1022 257 1013 l 252 1041 q 246 1052 251 1049 q 243 1063 238 1057 q 258 1067 250 1074 q 266 1057 264 1062 q 270 1041 268 1050 l 272 1034 l 273 1027 m 185 1036 l 188 1034 q 193 1031 191 1034 q 215 1010 203 1022 q 218 1000 218 1007 q 212 991 220 992 q 202 996 205 989 q 180 1019 196 1008 q 174 1027 175 1022 q 184 1036 171 1036 l 185 1036 z "},"8":{"ha":895,"x_min":32,"x_max":880,"o":"m 570 876 l 572 878 q 552 892 563 884 l 551 886 l 550 880 l 570 876 m 113 219 q 136 186 119 207 q 165 159 153 166 l 163 170 l 160 180 q 154 189 159 186 l 136 202 l 119 215 l 117 217 l 113 219 m 164 570 q 191 532 170 554 q 227 504 211 511 l 224 509 l 222 512 l 216 526 l 210 540 q 199 551 206 548 l 192 555 l 184 559 l 164 570 m 260 420 q 293 440 280 432 l 278 450 l 264 460 q 250 451 255 452 q 234 456 244 450 l 218 466 l 203 475 l 202 477 l 200 477 q 197 476 198 478 l 197 475 l 197 474 l 245 441 q 260 420 259 431 m 99 244 q 117 241 109 248 l 126 233 l 134 226 l 139 222 l 144 218 q 155 212 149 214 l 155 241 q 123 258 142 250 l 106 265 l 90 273 q 94 258 92 267 l 99 244 m 334 904 l 343 896 l 359 879 q 371 875 364 873 l 382 878 l 389 880 l 395 881 l 376 902 l 358 922 q 326 913 340 917 l 334 904 m 222 869 q 276 823 251 844 q 295 838 286 831 q 245 881 278 852 l 234 876 q 222 869 227 872 m 441 902 l 431 916 l 427 919 q 423 922 425 921 q 413 931 416 923 l 396 929 l 380 927 l 380 924 l 414 886 q 420 884 416 884 l 436 886 l 452 887 l 441 902 m 196 590 l 193 608 q 191 611 193 609 q 186 614 189 613 q 155 633 170 625 l 145 638 l 135 643 l 133 642 l 143 606 q 157 595 157 607 q 159 593 157 594 q 162 591 160 591 l 180 581 l 199 572 l 196 590 m 446 926 l 447 924 q 461 907 452 916 l 469 899 l 477 891 q 487 887 481 887 l 526 884 q 536 883 527 884 l 534 887 l 532 891 q 529 899 530 895 q 514 912 526 908 l 500 918 l 486 922 q 444 930 461 930 l 446 926 m 304 906 q 285 898 298 903 l 274 894 l 262 889 q 311 848 296 861 l 328 857 l 345 867 l 326 886 q 304 906 313 897 m 181 332 q 143 360 168 345 l 123 372 l 102 385 l 98 372 q 94 359 95 363 l 100 355 l 107 351 l 111 349 l 115 347 q 151 321 130 339 q 171 310 161 311 l 176 321 l 181 332 m 161 277 l 164 292 q 89 342 127 316 q 87 299 84 317 l 92 296 q 96 294 94 295 q 105 285 99 289 l 111 282 l 117 279 l 137 271 l 157 262 l 161 277 m 111 405 q 124 391 115 397 l 132 387 l 140 382 l 161 368 l 182 355 l 191 349 q 201 363 195 355 l 211 376 q 126 430 183 401 l 111 405 m 211 441 l 171 470 q 138 445 153 463 l 161 432 l 182 420 l 203 406 l 224 391 l 237 401 l 243 407 l 251 414 l 211 441 m 188 812 l 208 796 l 214 791 q 221 789 218 789 q 233 777 231 787 l 249 795 l 264 812 l 254 819 l 245 825 l 225 842 l 205 860 q 166 828 181 845 l 188 812 m 191 640 l 191 648 q 191 662 191 656 q 182 679 193 673 l 149 696 q 134 706 138 703 q 131 720 125 711 q 142 721 135 725 l 188 697 l 191 696 l 194 694 q 200 716 198 710 l 189 724 l 179 730 q 161 746 167 739 q 155 751 159 749 l 151 752 l 147 753 q 140 766 138 758 q 152 770 142 772 q 173 758 161 769 l 187 747 l 202 736 l 204 735 l 207 734 l 216 751 l 220 758 l 224 766 l 213 772 q 202 779 206 776 l 189 789 l 176 799 l 165 806 l 154 813 q 130 665 117 758 q 161 650 144 659 l 176 642 l 191 632 l 191 640 m 496 -7 q 676 33 591 -7 q 793 119 748 67 q 839 253 845 180 q 778 392 832 335 q 739 435 758 413 q 718 475 723 454 q 718 494 715 484 l 724 515 l 730 538 q 743 643 745 598 q 724 721 741 686 q 622 819 693 784 q 514 848 574 841 q 373 835 437 858 q 258 750 299 808 q 226 614 217 692 q 230 608 227 611 q 233 594 235 602 q 231 585 231 589 q 258 520 239 549 q 320 465 284 481 q 342 450 331 460 q 348 433 349 443 q 337 420 346 424 l 334 419 l 330 418 q 252 368 282 401 q 200 169 173 282 q 254 72 214 111 q 328 26 282 44 q 496 -7 402 -5 m 496 -42 l 483 -40 l 470 -38 q 338 -11 392 -30 q 222 61 265 14 q 208 78 216 67 l 193 96 q 176 104 186 96 q 102 174 127 142 q 54 278 62 222 q 90 437 40 368 q 157 500 121 481 l 161 503 l 164 506 l 146 528 q 130 549 136 540 q 94 650 102 591 q 89 717 88 686 q 146 857 92 804 q 178 882 163 873 q 351 960 262 937 q 589 908 476 993 q 657 843 624 882 l 661 840 l 665 837 q 774 667 756 777 q 773 583 779 631 q 753 488 768 538 q 756 472 751 478 l 793 429 l 802 419 l 810 410 q 827 389 821 397 q 870 279 857 349 q 864 174 880 223 q 817 96 851 136 q 649 -18 751 20 q 545 -40 603 -34 l 541 -41 l 537 -42 l 496 -42 m 473 1046 l 471 1045 q 467 1043 469 1044 l 454 1034 l 441 1025 l 439 1024 l 437 1023 q 427 1027 431 1021 q 428 1037 423 1031 q 434 1042 430 1040 l 460 1061 q 482 1062 471 1067 q 488 1052 490 1059 q 478 1045 486 1045 q 474 1046 478 1045 l 473 1046 m 157 963 q 150 957 157 958 q 140 964 141 956 q 117 994 139 981 q 112 1004 111 998 q 122 1010 113 1011 l 126 1010 q 130 1008 129 1009 q 150 989 142 998 q 157 963 157 980 m 43 928 l 47 927 l 51 926 l 66 920 l 81 913 q 92 898 92 908 q 84 888 91 890 q 74 895 76 887 q 72 897 74 896 q 69 900 71 899 l 54 905 l 37 911 q 32 920 32 913 q 39 928 33 927 l 41 928 l 43 928 m 73 982 l 73 982 l 77 981 q 114 954 98 974 l 116 950 q 115 939 120 942 q 107 937 111 937 q 101 941 103 938 q 92 952 98 947 l 85 956 l 79 960 q 73 963 77 962 l 67 965 q 60 976 59 968 q 72 982 62 983 l 73 982 m 363 1042 q 372 1067 363 1053 q 391 1084 382 1080 q 405 1078 401 1087 q 399 1065 408 1069 q 381 1046 387 1061 l 380 1042 l 378 1038 q 368 1034 375 1032 q 363 1042 362 1036 m 342 1074 l 340 1071 l 338 1065 l 333 1055 l 328 1044 q 318 1037 326 1036 q 311 1046 310 1038 l 314 1055 l 317 1063 l 321 1072 l 326 1081 q 335 1088 329 1089 q 342 1076 342 1086 l 342 1074 m 497 527 q 480 543 490 533 l 464 557 q 447 550 456 553 q 471 536 456 543 q 497 527 488 528 m 566 621 q 541 677 564 650 q 498 707 520 702 q 509 667 509 689 q 517 653 510 658 l 541 637 l 553 629 l 566 621 m 568 563 l 568 570 l 570 585 q 564 600 570 595 q 541 616 555 607 l 528 624 l 515 631 l 509 635 l 506 621 l 503 606 l 534 581 q 567 554 555 564 l 568 563 m 559 506 l 560 513 l 562 526 q 557 538 564 533 l 532 559 l 507 580 l 501 585 l 494 589 l 487 578 l 479 568 l 480 567 l 481 565 l 505 545 l 530 524 l 535 520 l 540 515 q 549 505 546 511 q 553 502 550 504 l 558 498 l 559 506 m 412 589 l 417 588 l 425 587 q 455 595 444 582 q 466 612 463 604 q 473 679 479 644 q 465 693 471 690 q 452 710 454 699 q 410 693 429 710 q 389 652 393 677 q 406 589 385 622 l 412 589 m 578 481 l 578 476 q 570 460 578 466 q 553 461 562 456 q 520 478 539 471 l 503 485 l 485 492 l 467 498 q 449 506 456 502 q 362 602 385 538 q 361 678 347 643 q 377 707 367 694 q 431 747 397 731 q 456 751 441 751 l 485 753 q 492 753 490 754 q 498 750 496 753 q 505 745 500 747 l 509 743 l 513 741 q 583 680 556 724 q 605 600 606 640 q 602 564 604 584 l 597 527 l 595 517 l 595 508 q 577 486 594 490 l 578 481 m 401 213 q 437 186 414 195 q 427 197 434 191 l 421 203 l 416 208 q 401 213 410 216 m 511 180 l 505 186 q 495 197 499 193 l 479 213 l 463 229 l 448 223 l 433 217 l 433 216 l 434 215 l 471 176 q 477 173 473 174 q 517 174 494 170 l 511 180 m 566 182 q 551 201 560 191 l 536 217 l 526 227 l 514 237 q 496 262 501 250 l 487 251 l 478 239 l 485 232 l 492 224 l 503 214 l 513 205 q 532 182 526 193 q 543 177 536 175 l 554 180 l 560 181 l 566 182 m 590 229 q 571 237 578 227 q 549 262 564 248 l 538 274 l 527 286 l 522 291 l 516 296 q 511 286 514 292 l 508 281 l 506 276 l 510 271 l 514 267 l 518 260 l 523 255 l 549 227 l 575 200 l 578 197 l 582 194 q 590 229 597 208 m 397 257 l 400 256 l 403 254 l 406 252 l 410 251 l 413 250 q 464 276 448 253 l 471 288 l 479 300 q 486 325 486 313 l 433 353 q 392 258 390 321 l 397 257 m 629 212 q 608 167 629 184 q 571 148 593 155 q 478 138 519 134 q 382 180 418 144 q 360 225 362 199 l 358 257 q 358 288 357 275 q 397 367 362 336 q 427 395 415 382 q 444 399 434 402 q 455 387 453 397 q 465 375 456 380 l 503 354 l 539 334 q 592 293 570 315 q 628 223 621 263 l 629 217 l 629 214 l 629 212 z "},"9":{"ha":895,"x_min":9,"x_max":890,"o":"m 713 165 l 714 163 l 720 170 l 726 177 q 719 180 721 179 l 713 165 m 363 220 q 335 211 343 220 q 316 191 328 202 l 306 180 l 296 170 l 256 127 l 254 124 l 252 121 q 264 119 258 120 l 269 119 l 273 119 l 284 132 l 294 146 q 315 172 307 161 q 338 196 324 182 l 351 208 l 363 220 m 295 218 q 295 206 296 208 q 286 200 294 203 l 282 198 l 278 196 q 254 176 267 188 l 243 165 l 232 153 q 222 142 228 149 l 212 130 q 222 127 217 128 l 227 126 l 230 125 l 243 140 l 258 154 l 284 182 l 297 195 l 310 209 l 312 211 l 314 212 q 316 218 315 215 l 295 218 m 276 219 l 268 220 l 259 221 q 253 218 256 221 l 241 208 l 229 197 l 207 178 l 185 160 q 173 144 176 152 l 177 142 l 180 140 q 203 147 194 134 q 225 172 216 163 l 245 190 l 267 208 l 277 217 l 276 219 m 413 229 l 407 229 q 389 219 395 227 q 376 207 384 214 l 363 195 q 301 125 323 157 l 299 122 l 297 118 l 302 118 l 306 118 q 323 119 323 119 q 335 132 326 119 q 414 223 373 180 l 416 227 l 418 228 l 420 230 l 413 229 m 766 492 l 774 501 q 791 519 784 512 l 804 536 l 819 553 q 852 583 836 572 q 854 586 853 584 q 855 590 855 588 l 853 604 l 852 612 l 851 621 l 848 618 l 846 615 l 842 611 q 819 586 832 601 l 798 559 q 751 510 770 527 l 754 497 l 755 490 l 758 483 l 766 492 m 309 775 l 314 781 q 368 816 336 800 l 396 830 l 424 845 q 478 877 456 862 l 484 882 q 454 879 472 882 q 448 876 451 878 q 413 854 433 865 l 394 844 l 374 835 l 338 818 q 301 800 317 808 q 262 777 285 791 l 224 752 l 220 749 l 216 747 l 239 753 l 260 758 l 302 770 l 309 775 m 855 564 l 851 560 l 848 557 l 774 474 q 762 458 764 463 q 762 438 761 454 l 763 427 l 764 414 l 768 416 l 854 509 l 857 511 q 857 514 857 513 l 857 563 l 855 564 m 854 482 l 852 480 l 767 389 q 764 380 764 386 l 760 336 l 760 328 l 762 328 l 781 348 l 798 368 q 832 410 819 391 q 845 424 839 418 q 852 435 852 429 l 852 439 l 852 443 l 857 481 l 854 482 m 832 673 l 828 669 q 821 663 823 665 q 768 608 787 627 q 739 566 749 587 l 737 561 q 737 556 736 558 q 741 543 739 551 l 746 529 l 752 535 l 758 541 q 768 551 764 547 l 786 574 l 804 596 q 843 639 825 621 q 845 642 844 640 q 845 646 846 644 l 842 661 l 840 669 l 838 677 l 832 673 m 357 122 l 363 123 l 382 127 l 401 132 q 416 143 411 134 l 420 151 l 426 158 q 493 235 452 194 q 498 240 495 238 l 505 244 q 508 252 509 246 l 481 245 l 455 238 q 448 234 452 237 l 424 208 l 400 182 q 355 127 373 152 q 351 122 355 127 l 357 122 m 844 397 l 838 389 l 827 374 q 816 360 821 366 l 787 329 l 758 298 q 751 286 753 294 l 736 227 l 734 222 l 734 220 l 748 233 l 762 246 l 799 281 l 801 283 l 803 286 q 808 290 806 290 q 815 296 812 292 l 817 300 l 819 305 q 844 384 833 336 l 846 397 l 844 397 m 568 878 l 531 883 q 516 880 524 884 l 503 871 l 490 863 q 401 812 451 838 q 371 797 389 806 l 342 780 q 336 774 342 780 l 342 774 l 347 775 l 357 776 l 368 777 q 378 777 373 777 q 425 792 399 773 q 536 861 485 838 l 551 869 l 568 876 l 568 878 m 549 745 q 678 844 612 793 l 667 848 l 656 852 l 624 835 l 591 817 l 551 794 l 511 770 l 507 766 l 501 762 q 526 753 510 759 l 549 745 m 631 861 l 628 863 l 622 865 q 590 865 604 871 q 566 854 582 861 l 554 850 l 542 845 q 435 779 501 825 l 435 777 l 433 776 l 454 772 l 473 768 q 485 772 479 768 q 627 856 565 827 q 635 860 628 856 l 631 861 m 621 722 l 633 733 l 648 749 l 663 764 l 690 789 l 718 815 l 720 817 l 722 821 l 709 828 l 697 835 q 665 810 683 823 l 632 785 q 567 736 589 754 l 587 724 l 597 718 l 607 711 l 621 722 m 696 619 q 710 604 701 610 q 715 600 713 603 l 718 595 l 722 587 l 724 583 l 726 578 q 765 629 740 604 l 776 640 l 786 651 l 796 663 l 806 674 q 831 694 819 687 l 821 714 l 810 734 l 781 706 l 751 678 q 696 619 717 645 m 648 679 l 650 680 l 713 735 l 755 772 q 768 772 763 778 q 766 758 774 766 l 753 747 l 665 669 l 662 667 l 660 664 l 672 649 l 684 635 l 689 639 l 694 643 l 713 665 q 734 686 726 678 q 753 705 741 694 l 773 722 l 787 735 l 800 748 q 738 810 774 785 l 680 755 l 622 699 l 646 677 l 648 679 m 153 114 q 146 52 146 81 q 149 15 146 39 q 163 -8 149 -1 l 181 -18 q 199 -25 191 -22 q 321 -46 252 -42 q 448 -35 389 -50 q 602 51 538 -13 q 627 85 618 68 q 636 98 630 90 l 641 104 l 645 111 q 703 262 680 173 q 727 427 728 355 q 699 556 726 498 q 675 581 689 576 l 674 583 q 665 596 666 587 q 661 606 665 602 q 602 671 636 643 q 401 739 521 736 q 299 732 353 741 q 193 701 237 721 q 59 545 87 653 q 58 531 58 537 q 52 511 60 518 q 46 497 45 506 l 47 484 q 50 471 48 476 q 130 326 71 387 q 255 254 184 268 q 368 254 305 244 q 435 268 398 258 l 467 277 l 500 286 l 503 286 l 505 288 q 514 292 509 291 l 519 294 l 524 294 q 545 279 542 296 q 534 211 551 248 q 471 134 514 168 q 416 100 442 109 q 199 97 302 64 l 176 105 l 153 114 m 890 484 l 889 476 l 888 469 q 850 288 884 372 q 810 222 836 252 q 703 96 752 152 q 648 53 679 68 q 641 47 644 52 q 420 -78 559 -53 q 198 -56 307 -98 l 182 -51 l 167 -45 l 150 -39 q 109 22 111 -21 q 117 115 108 66 l 117 123 l 118 131 q 125 147 119 141 q 149 172 142 162 q 180 204 165 193 l 198 217 l 215 231 l 213 232 l 210 233 q 83 325 134 258 q 22 429 41 380 q 9 488 9 461 q 17 522 9 506 q 21 535 20 527 q 83 666 36 614 q 87 674 87 670 q 94 694 84 684 q 156 749 118 722 q 206 783 176 763 l 252 812 l 298 842 q 376 879 336 865 l 392 884 l 407 891 q 415 899 414 894 q 426 909 417 907 q 439 915 434 911 q 454 919 446 922 q 466 917 460 916 l 471 917 l 477 918 q 602 907 538 923 q 749 847 685 888 q 880 653 854 781 q 888 580 888 615 l 889 572 l 890 564 l 890 484 m 716 998 l 718 998 l 722 998 q 730 989 731 996 q 721 981 730 979 q 693 975 709 982 l 680 968 l 667 961 l 665 960 l 663 958 q 652 961 656 956 q 652 972 648 966 l 654 974 q 715 998 679 998 l 716 998 m 636 1009 q 629 1001 636 1002 q 616 994 623 1000 l 612 990 l 608 987 l 602 982 l 596 977 q 583 973 589 969 q 582 987 576 979 q 598 1002 590 998 q 604 1006 601 1004 l 610 1012 q 626 1020 618 1019 q 636 1009 636 1021 m 271 953 l 277 949 q 293 936 286 943 q 299 926 298 931 q 293 916 301 918 q 283 919 288 913 l 278 925 l 273 930 q 259 937 267 935 q 251 947 250 939 q 261 955 252 954 l 263 955 l 264 956 l 271 953 m 395 983 q 386 972 393 973 q 376 980 378 971 l 375 989 l 373 998 l 370 1005 l 367 1011 q 370 1025 362 1021 q 378 1025 374 1027 q 384 1020 382 1024 l 389 1002 l 395 983 m 578 1029 l 578 1028 l 576 1025 l 568 1012 l 559 998 q 549 992 555 991 q 542 1002 541 994 q 545 1007 543 1005 l 563 1038 q 574 1041 568 1044 q 579 1031 581 1039 l 578 1029 m 342 953 q 339 955 340 954 q 329 968 336 962 l 322 972 l 316 977 q 311 987 311 981 q 324 994 313 1001 q 353 968 343 981 q 355 956 358 962 q 351 954 353 955 l 347 951 l 342 953 m 532 464 q 500 435 519 454 q 477 410 481 417 q 533 437 514 428 l 532 450 l 532 464 m 450 404 l 452 408 q 458 416 456 414 l 485 444 l 512 471 l 515 473 l 517 475 q 520 482 520 479 q 500 475 507 481 l 490 467 l 479 458 q 423 413 450 439 l 410 401 l 396 390 q 391 385 396 389 q 447 398 418 388 l 450 404 m 481 483 q 447 478 463 492 q 378 422 410 447 q 362 411 372 417 l 346 400 l 338 395 l 330 390 q 363 384 345 382 l 366 387 l 368 390 q 373 395 370 393 l 380 401 l 388 407 q 404 419 398 414 q 475 477 438 452 l 478 480 l 481 483 m 382 618 q 297 606 334 625 q 243 541 256 584 l 243 538 l 243 534 l 273 551 l 302 567 q 365 606 345 589 q 381 612 374 613 q 382 615 382 614 q 382 618 382 615 m 243 479 q 311 520 273 496 l 377 560 l 377 591 l 375 591 l 374 590 q 335 565 358 578 l 314 553 l 294 543 l 269 528 l 245 514 l 243 513 l 241 511 q 239 505 239 509 l 243 479 m 414 593 l 413 580 q 436 534 411 549 q 460 524 449 527 l 479 519 l 498 515 q 511 519 505 514 q 470 571 498 544 q 416 607 441 599 l 414 593 m 368 534 l 355 527 l 292 488 l 262 469 l 256 465 l 252 460 q 270 431 260 443 l 288 444 q 305 456 298 451 q 393 514 334 480 l 399 518 q 382 543 393 528 l 368 534 m 435 495 l 431 497 q 423 501 426 499 q 407 502 415 507 l 369 479 q 331 455 346 465 q 307 436 321 448 l 294 427 l 282 416 q 312 395 295 403 l 319 402 q 326 409 323 406 l 359 432 l 392 456 q 416 473 401 463 l 428 483 l 440 493 l 435 495 m 378 348 q 260 390 309 347 q 206 477 220 426 q 213 574 193 530 q 281 640 233 621 q 422 646 351 669 q 503 591 464 633 q 564 476 550 538 l 566 463 l 568 448 l 568 440 l 569 431 q 562 414 571 419 q 437 356 484 368 q 378 348 410 349 z "},"\u0000":{"ha":0,"x_min":0,"x_max":0,"o":""}," ":{"ha":345,"x_min":0,"x_max":0,"o":""},"!":{"ha":562,"x_min":41,"x_max":568,"o":"m 313 -39 q 264 -3 278 -31 q 260 54 252 22 q 292 102 269 84 q 347 115 317 121 q 359 102 349 104 q 391 73 376 100 q 404 31 404 47 q 373 -22 404 1 q 313 -39 342 -45 m 248 106 q 237 122 244 113 l 230 130 l 222 138 l 184 180 l 182 181 q 193 189 187 185 q 202 189 197 187 l 209 180 l 216 172 q 231 157 224 163 l 241 148 l 250 138 l 258 131 q 265 123 262 127 q 248 106 256 115 m 227 66 q 218 86 224 75 l 212 95 q 206 104 208 101 q 191 124 200 114 l 182 134 l 173 142 q 163 144 169 146 q 172 169 164 157 l 172 168 l 189 150 l 205 132 l 213 123 l 222 115 q 236 94 232 103 q 238 91 237 92 q 227 66 231 78 m 219 24 q 193 56 201 42 q 163 127 168 100 l 177 114 q 189 99 184 106 l 194 91 l 199 82 q 201 78 199 81 l 205 73 q 210 62 210 66 q 214 55 210 57 q 222 55 218 53 q 219 24 218 40 m 170 318 l 155 334 q 157 349 159 341 q 146 358 155 357 q 152 361 150 357 q 159 355 155 359 l 162 351 l 165 349 l 176 339 l 187 330 q 214 305 200 317 l 216 284 q 215 270 216 279 q 199 286 210 275 l 193 294 l 185 302 l 170 318 m 157 494 l 169 481 l 179 471 l 189 459 l 197 452 l 204 444 q 208 437 204 439 l 210 437 l 212 392 l 205 398 l 200 404 q 184 420 195 411 l 176 429 l 168 437 q 155 436 161 442 q 153 431 153 434 q 155 425 153 427 l 163 417 l 170 410 q 185 395 180 401 l 191 388 l 197 380 l 201 376 l 205 372 q 211 363 209 367 l 213 361 l 214 328 l 197 343 l 181 357 l 175 363 l 169 369 q 155 378 161 376 q 153 392 155 383 l 153 399 q 152 404 152 401 l 144 507 l 146 505 l 157 494 m 136 596 q 147 585 144 588 q 163 562 154 577 l 171 550 l 179 539 l 184 533 l 189 528 q 199 517 196 521 q 206 511 201 511 l 208 464 l 203 469 l 188 486 l 172 504 l 165 511 l 158 517 q 142 531 149 526 l 138 581 l 136 596 m 124 673 q 136 662 128 669 l 149 651 q 201 585 186 614 l 201 584 q 202 579 201 581 l 205 538 l 202 541 q 186 559 195 547 l 180 570 l 173 579 q 152 606 163 592 q 148 609 151 606 l 146 611 l 142 614 q 132 625 135 621 l 124 673 m 118 724 q 117 750 117 734 l 116 778 q 165 739 150 771 l 169 733 l 172 726 l 178 713 q 184 684 184 696 q 187 678 184 680 q 193 676 190 676 l 199 621 q 178 646 191 630 q 164 658 173 650 l 157 665 l 149 671 q 127 701 131 688 q 119 707 125 706 l 118 724 m 113 835 q 135 818 125 827 l 148 806 l 161 794 q 182 767 176 780 q 184 755 180 761 l 184 753 q 184 749 184 751 l 186 737 q 177 753 182 746 q 118 795 156 789 l 116 795 q 113 835 115 820 m 182 873 q 195 863 188 872 l 201 855 q 207 848 205 850 l 214 842 l 221 835 q 235 820 230 826 l 244 808 q 254 796 250 800 l 262 789 q 215 777 235 783 q 189 813 207 795 l 174 829 l 157 844 q 131 865 144 856 q 182 874 149 868 l 182 873 m 210 879 q 241 883 229 883 l 248 877 l 254 869 l 258 862 l 263 855 q 275 842 269 848 l 308 814 l 318 806 l 328 798 q 286 793 305 796 l 275 802 q 264 810 268 806 l 257 819 l 250 827 q 237 844 241 838 q 206 876 216 864 l 204 878 q 210 879 209 879 m 367 814 q 390 800 375 808 q 352 800 374 800 l 350 802 q 336 813 345 806 l 330 818 l 322 823 l 308 837 l 293 850 q 269 878 281 861 l 267 880 q 294 868 279 876 q 332 842 311 860 l 349 828 l 367 814 m 233 210 q 235 205 233 207 q 264 180 252 189 q 269 177 266 178 l 275 174 q 281 165 281 170 q 283 159 281 161 q 289 157 286 157 q 295 159 292 157 q 298 165 298 161 q 294 179 299 172 q 281 189 290 184 q 258 206 271 195 l 268 202 l 276 198 q 333 151 315 178 q 279 134 304 151 q 263 151 273 142 l 255 159 l 247 166 q 230 183 239 173 l 214 201 q 231 211 220 208 l 233 210 m 372 135 q 367 143 370 140 q 367 160 371 151 q 349 184 361 172 l 338 194 l 328 204 q 307 221 317 214 l 334 224 l 359 227 q 411 232 393 229 q 422 241 419 233 q 421 257 425 250 l 418 262 q 405 271 414 271 q 391 262 396 270 q 375 260 385 262 l 366 258 l 357 256 q 317 249 334 252 q 251 247 269 241 l 250 248 l 250 250 q 247 275 246 255 l 248 282 l 248 290 q 248 302 248 298 l 246 335 l 243 368 q 238 462 240 408 l 234 556 q 220 743 229 671 q 311 763 262 756 q 397 762 370 771 q 412 758 406 759 q 420 759 417 758 q 421 743 419 753 q 419 702 425 729 l 416 691 l 414 680 q 410 660 410 667 q 384 288 384 509 q 401 271 384 271 q 418 288 418 271 q 431 576 418 473 q 441 623 433 592 l 444 637 l 447 650 l 454 679 q 458 783 468 749 q 455 789 457 785 q 450 803 457 797 q 428 819 441 810 l 405 833 q 359 865 374 852 q 315 897 336 884 q 267 920 289 914 q 211 916 245 924 l 197 913 l 182 909 q 157 903 165 904 q 141 901 151 901 l 125 899 q 96 891 106 897 q 81 891 90 896 q 71 878 73 886 q 65 860 63 871 q 78 848 67 849 q 84 756 85 818 l 84 732 l 83 708 q 86 666 84 682 l 92 632 l 96 598 q 106 530 103 557 q 109 485 108 511 l 111 439 q 120 349 115 382 q 113 335 111 345 l 113 334 q 118 323 113 328 l 117 323 q 142 298 127 314 l 154 286 l 166 273 l 175 264 l 184 254 q 202 236 195 243 q 187 223 193 231 l 186 223 l 184 222 q 130 117 112 189 q 166 33 139 77 q 191 5 170 28 q 212 -15 212 -17 q 220 -30 212 -26 q 238 -28 229 -33 q 298 -72 260 -60 q 381 -58 335 -83 q 437 3 427 -34 q 422 86 447 39 q 401 115 414 101 q 372 135 385 131 m 76 972 q 64 981 71 971 q 60 989 62 985 q 58 995 58 993 q 54 1000 58 999 q 48 1001 52 1002 q 43 998 45 1000 q 41 991 41 994 q 56 966 44 977 q 81 956 68 953 q 86 966 89 958 q 76 972 84 975 m 151 1029 q 144 1050 145 1038 l 144 1061 l 144 1073 q 142 1079 144 1077 q 136 1081 139 1081 q 130 1079 132 1081 q 127 1073 127 1077 l 127 1063 l 126 1053 q 130 1033 127 1041 q 134 1026 131 1030 l 138 1019 q 144 1004 144 1010 q 152 996 143 996 q 161 1004 161 996 q 151 1029 162 1015 m 246 1036 q 246 1063 241 1036 l 248 1074 l 250 1083 q 252 1096 252 1093 q 250 1102 253 1099 q 244 1104 248 1104 q 239 1102 241 1104 q 235 1096 235 1099 q 232 1077 235 1091 l 229 1065 l 227 1053 q 241 1019 224 1023 q 252 1025 250 1017 q 246 1036 254 1034 m 392 1050 q 380 1038 388 1045 l 373 1033 l 367 1027 q 355 996 353 1013 q 366 990 357 988 q 372 1001 374 993 q 376 1012 371 1006 l 380 1017 l 385 1021 l 395 1029 q 404 1038 401 1034 q 406 1045 407 1041 q 404 1050 406 1048 q 398 1053 401 1053 q 392 1050 395 1053 m 490 996 q 471 992 481 997 q 456 983 465 989 q 447 975 452 980 l 438 967 q 418 956 428 958 q 413 945 410 954 q 423 939 415 937 q 441 947 432 941 l 448 954 l 455 960 q 462 966 459 964 l 471 972 q 490 979 481 979 q 498 986 498 977 q 490 996 498 995 m 555 909 q 519 901 538 907 l 515 899 l 511 897 l 501 894 q 484 896 490 890 l 484 897 l 481 898 q 477 899 479 899 q 470 892 471 898 q 471 885 469 888 l 472 884 q 509 878 485 871 l 522 883 l 534 887 q 560 893 549 891 q 566 903 568 895 q 555 909 564 911 z "},"\"":{"ha":517,"x_min":5,"x_max":567,"o":"m 412 987 l 384 965 l 375 957 l 367 949 l 365 948 l 363 947 l 327 952 l 325 952 l 324 953 l 359 981 l 370 989 l 380 997 q 400 1015 393 1006 l 403 1017 q 414 1021 408 1022 l 430 1018 l 438 1017 l 446 1016 l 444 1013 l 443 1012 l 439 1008 l 412 987 m 406 945 l 384 929 q 408 951 393 939 l 422 962 l 435 972 q 428 960 435 964 l 406 945 m 422 913 l 420 907 q 415 900 420 902 l 397 889 l 379 878 q 376 876 379 878 l 377 882 l 378 888 l 382 910 l 382 912 q 384 913 383 913 l 428 945 l 429 945 l 423 919 l 422 913 m 408 850 q 406 846 408 848 l 362 817 q 361 817 362 817 l 366 836 l 370 854 q 372 857 371 857 q 416 886 389 871 l 416 884 l 415 882 l 408 850 m 397 799 q 393 795 397 795 q 389 792 391 794 l 377 783 l 366 774 l 353 764 l 345 758 l 340 754 l 334 751 l 342 767 l 349 783 q 361 800 353 794 q 381 813 370 805 l 400 827 q 404 829 401 827 l 403 823 l 401 817 l 397 799 m 232 741 l 231 751 l 231 760 l 228 793 l 224 826 l 222 847 l 220 869 q 218 912 218 892 l 218 922 l 218 932 l 228 932 l 256 932 l 284 931 q 300 929 290 930 l 315 928 l 330 926 l 347 926 l 351 926 q 356 919 357 924 q 348 869 355 897 l 343 848 l 337 827 q 322 787 330 804 l 311 762 l 301 737 l 232 741 m 182 967 l 175 962 l 170 963 q 164 963 166 964 q 139 966 155 962 q 140 967 140 967 l 170 987 l 201 1007 l 216 1017 l 231 1028 q 233 1036 235 1031 l 245 1035 l 258 1034 l 262 1034 l 265 1034 q 261 1025 266 1029 l 252 1015 q 243 1006 247 1010 q 191 972 214 984 l 182 967 m 178 766 l 172 764 l 145 751 l 144 751 l 146 753 l 147 755 l 155 760 q 163 764 161 762 l 178 777 l 193 789 q 197 797 198 793 q 192 802 197 801 q 186 800 188 803 l 184 798 l 183 798 l 151 771 l 151 770 l 150 770 l 149 770 l 151 779 l 153 789 q 155 791 153 789 l 157 793 l 178 809 l 188 816 l 193 819 l 198 823 q 205 766 201 803 q 184 769 198 773 l 178 766 m 187 860 l 193 865 l 195 851 l 196 838 q 196 836 196 837 l 195 835 l 188 830 l 181 826 l 170 817 l 163 813 l 157 808 l 163 829 l 169 848 q 170 850 169 849 l 172 851 l 177 853 l 181 856 l 187 860 m 192 883 q 189 878 192 880 l 182 873 l 176 868 q 179 878 178 875 q 191 940 190 913 q 193 945 191 944 l 192 932 l 191 920 l 191 901 l 192 883 m 120 763 l 117 752 q 78 761 92 758 l 77 762 l 76 762 l 75 765 l 73 768 q 71 774 71 772 q 58 865 63 830 l 54 888 l 49 911 l 46 932 l 43 952 q 47 956 43 957 q 87 952 65 956 l 106 948 l 125 944 q 160 939 148 939 q 164 933 165 939 q 152 883 161 909 q 123 774 137 843 l 120 763 m 62 989 q 149 1037 108 1019 q 184 1045 167 1045 l 167 1035 l 149 1025 q 93 989 111 1004 l 89 986 q 85 977 83 981 l 68 979 l 51 981 l 57 985 l 62 989 m 195 1035 q 198 1044 200 1037 l 210 1042 l 223 1038 l 216 1033 l 209 1027 l 134 979 l 123 971 q 121 970 121 970 l 109 972 l 96 975 l 100 979 l 103 981 l 111 987 q 160 1017 127 1000 l 170 1022 l 179 1027 q 195 1035 186 1031 m 327 1019 l 330 1021 q 342 1025 335 1025 l 349 1025 l 355 1025 l 331 1007 l 307 989 l 289 973 l 270 958 l 268 957 l 266 956 l 241 956 q 239 956 241 956 q 240 958 240 958 l 323 1016 l 327 1019 m 372 1021 q 382 1023 377 1025 l 385 1023 l 387 1023 l 389 1023 l 383 1017 l 377 1012 q 365 1001 370 1005 l 340 981 l 316 962 q 313 953 311 959 l 300 954 l 287 956 l 298 965 l 309 973 l 340 998 l 372 1021 m 471 1023 q 469 1025 469 1023 q 456 1038 469 1036 q 357 1049 420 1046 l 345 1050 l 332 1051 q 318 1045 321 1052 q 314 1040 317 1042 l 309 1036 l 291 1024 l 290 1023 l 288 1022 l 291 1027 l 294 1031 q 288 1051 300 1044 q 265 1059 279 1057 q 205 1069 237 1061 q 154 1065 177 1074 l 123 1053 q 46 1008 94 1039 q 35 1000 41 1005 l 24 990 q 20 979 18 985 q 20 976 20 977 l 16 969 l 16 941 l 16 939 l 19 925 l 22 911 l 26 894 q 31 878 29 884 l 37 827 l 43 778 l 45 762 l 49 747 q 62 739 51 736 q 67 739 65 739 l 79 736 l 90 734 l 100 731 l 110 728 q 130 722 121 725 q 137 721 133 720 q 149 725 142 722 q 181 740 170 734 l 187 743 l 194 745 q 205 755 201 749 l 206 730 q 208 724 206 726 q 224 718 216 720 l 242 716 l 275 715 l 292 715 q 295 712 294 714 l 296 712 q 323 708 309 711 l 402 771 l 406 774 l 408 777 l 410 779 l 411 779 q 422 789 420 781 l 448 910 l 453 932 l 458 954 l 466 981 l 474 1009 q 471 1023 476 1018 m 567 1032 l 564 1031 l 561 1029 l 521 1018 l 511 1015 l 500 1013 q 493 1017 494 1013 q 494 1022 492 1020 q 498 1025 495 1025 q 527 1032 509 1027 l 541 1037 q 555 1041 549 1040 q 567 1038 564 1042 l 567 1032 m 146 1148 q 155 1132 153 1143 q 158 1118 155 1126 l 161 1105 q 163 1090 163 1097 q 155 1084 163 1083 q 150 1088 150 1084 q 148 1103 151 1095 l 146 1111 l 143 1118 l 142 1124 l 141 1131 l 140 1134 l 140 1137 q 141 1148 136 1143 l 146 1148 m 382 1086 q 380 1089 380 1088 q 380 1092 380 1090 l 380 1095 l 382 1097 l 383 1098 q 436 1139 410 1115 q 446 1141 441 1144 q 446 1131 452 1136 l 431 1118 l 415 1105 l 403 1096 l 391 1088 l 388 1086 l 385 1085 l 382 1086 m 440 1065 q 431 1071 431 1065 q 440 1078 431 1078 q 450 1082 446 1078 q 468 1095 456 1089 q 472 1099 470 1097 l 475 1102 q 486 1105 480 1108 q 487 1096 492 1101 q 476 1086 484 1092 l 467 1080 l 459 1074 q 440 1065 448 1065 m 105 1083 q 102 1081 104 1081 q 99 1080 101 1080 q 96 1081 97 1080 q 79 1100 83 1091 q 77 1105 79 1102 l 73 1109 q 73 1118 69 1114 q 81 1119 77 1123 l 87 1114 q 90 1109 89 1112 q 103 1091 95 1099 l 105 1088 l 107 1086 l 105 1083 m 13 1067 q 31 1061 21 1067 l 45 1051 q 48 1042 51 1048 q 40 1040 45 1037 q 24 1049 33 1044 l 22 1051 l 18 1053 q 11 1056 15 1055 q 6 1063 5 1057 q 13 1067 7 1068 z "},"#":{"ha":895,"x_min":27,"x_max":876,"o":"m 262 593 l 248 612 q 239 608 242 610 l 239 608 l 240 607 l 261 592 l 262 593 m 305 552 l 290 566 l 296 557 l 302 548 q 305 543 304 546 l 308 536 q 314 537 310 536 l 321 538 l 305 552 m 731 355 l 722 366 l 722 338 l 732 340 l 741 344 l 731 355 m 321 -3 l 319 0 q 317 3 318 2 l 255 45 l 250 47 l 245 50 q 247 44 243 46 l 253 40 l 260 36 l 320 -4 l 321 -3 m 332 306 l 333 311 l 334 316 q 330 323 335 321 l 313 331 l 306 334 l 298 337 q 286 346 290 341 l 283 347 l 281 347 l 280 347 l 331 305 l 332 306 m 297 136 l 296 134 l 311 120 l 327 106 q 330 136 328 118 l 297 136 m 530 138 l 554 123 l 554 128 l 555 133 q 550 142 555 139 l 549 143 l 549 144 l 547 146 l 545 149 l 530 157 q 528 157 529 157 l 517 155 l 507 153 l 530 138 m 774 599 l 774 601 l 764 606 l 753 612 l 742 618 l 731 625 l 733 591 l 774 599 m 810 612 l 790 623 l 771 633 q 730 652 747 647 l 730 646 l 733 645 l 736 644 q 740 643 739 644 q 764 626 749 633 q 792 604 785 616 l 809 610 l 810 612 m 156 585 q 186 562 173 567 q 231 531 216 548 q 241 528 235 526 l 239 530 q 184 576 209 565 q 176 582 180 578 l 172 585 l 167 589 q 163 587 166 589 l 156 585 m 274 757 q 296 753 284 761 l 307 746 l 317 737 l 332 726 l 346 715 l 348 721 l 349 726 q 276 778 324 749 l 275 768 l 274 757 m 501 555 q 543 564 525 560 q 530 589 525 574 q 501 604 519 595 l 501 555 m 477 54 l 476 49 q 477 45 476 46 l 486 39 l 494 32 l 509 18 l 524 3 q 531 -2 526 1 l 534 -4 l 538 -7 l 540 1 l 541 8 q 538 13 541 11 l 489 53 l 484 57 l 477 60 l 477 54 m 299 369 l 258 366 l 258 364 l 268 357 l 277 349 q 280 363 275 359 q 293 362 287 368 q 309 352 300 357 l 317 348 l 326 345 l 336 340 l 338 356 l 340 372 l 299 369 m 345 647 l 344 649 l 342 651 l 332 657 l 321 664 l 298 682 l 275 701 q 279 682 270 689 q 316 650 298 669 q 323 644 319 647 l 330 638 l 337 633 l 345 627 l 345 647 m 477 90 l 478 81 l 479 80 l 480 79 q 500 66 490 74 l 509 59 l 518 52 l 530 41 l 543 31 l 544 37 l 545 42 q 541 52 547 48 l 486 95 l 478 100 l 477 90 m 686 798 l 609 846 l 603 850 l 595 852 l 596 851 l 654 791 l 655 790 l 657 789 l 673 793 l 688 795 l 686 798 m 104 290 l 110 288 l 123 280 l 135 271 l 159 251 l 184 231 l 190 227 l 197 222 l 197 231 l 197 238 q 193 245 197 242 l 184 249 l 177 253 q 162 262 168 258 q 132 286 151 273 l 117 296 l 102 307 l 101 307 l 100 307 q 99 293 100 300 l 104 290 m 98 273 l 102 264 q 106 256 104 259 q 125 237 116 244 l 162 212 l 199 187 l 200 186 l 201 186 l 201 190 l 201 193 q 193 204 201 200 q 176 215 183 209 l 127 255 q 100 273 111 269 l 98 273 m 323 31 l 323 41 l 322 43 l 320 44 l 309 51 l 297 58 l 281 69 l 264 81 l 256 87 l 251 90 l 245 93 l 245 81 l 244 71 l 245 68 l 247 68 q 268 58 256 64 l 278 51 l 288 43 l 304 32 l 314 26 l 323 20 l 323 31 m 513 749 l 512 747 q 510 744 510 745 l 509 730 l 509 718 l 511 718 l 514 720 q 518 720 517 720 q 547 706 536 713 l 562 696 l 576 687 l 582 684 l 587 680 q 588 696 589 694 q 577 705 587 698 l 561 718 l 545 730 l 530 741 l 515 751 l 513 749 m 274 732 q 280 720 274 722 l 282 718 l 285 716 l 338 672 l 340 670 l 344 668 l 344 680 l 344 690 q 340 698 344 694 l 326 709 l 312 720 l 304 727 l 295 734 q 274 742 285 742 l 274 732 m 505 692 l 503 677 q 524 673 513 677 l 533 669 l 543 664 l 564 654 l 587 644 l 587 652 l 587 659 q 585 662 587 661 l 573 669 l 561 677 l 551 684 l 540 690 q 517 701 528 698 q 512 704 515 702 l 507 707 l 505 692 m 227 283 l 168 329 l 165 331 q 161 332 163 332 l 148 330 l 134 328 l 134 326 l 135 326 l 175 299 l 215 273 q 240 273 228 264 l 227 283 m 585 595 l 585 607 q 584 625 586 621 q 568 634 581 628 q 528 652 550 642 q 501 660 513 660 l 501 656 l 500 652 q 503 646 500 648 q 539 623 520 635 l 553 615 l 567 607 q 577 585 581 598 q 583 582 580 583 l 585 595 m 511 772 q 513 770 511 771 l 514 769 q 554 745 530 766 l 581 724 l 585 721 l 589 718 l 589 726 l 589 734 l 587 764 q 585 768 587 766 l 574 776 l 562 783 l 546 794 l 530 805 l 524 810 l 517 817 l 516 812 l 516 808 l 520 808 l 523 806 l 536 798 l 547 789 q 553 783 550 787 l 557 777 l 560 772 l 562 767 q 559 755 566 760 q 547 758 552 751 l 545 762 l 543 766 l 541 770 q 538 774 539 773 l 526 783 l 513 791 l 511 772 m 633 789 l 629 793 l 576 846 l 572 850 l 569 855 l 570 857 q 530 852 556 855 q 585 810 566 821 q 614 789 605 797 q 636 785 625 779 l 633 789 m 261 132 q 252 130 254 131 q 250 120 250 128 l 249 117 q 249 114 248 115 q 261 104 254 109 l 271 98 l 280 92 l 296 80 l 311 68 l 317 65 l 323 61 q 326 86 325 76 q 276 134 288 114 l 261 132 m 299 803 l 309 798 l 318 792 l 327 787 l 335 781 l 344 774 l 367 756 q 370 753 369 755 l 371 746 l 372 740 l 391 745 l 410 749 l 410 750 l 410 750 l 385 769 l 361 787 l 345 799 l 328 810 l 326 810 l 324 810 l 299 804 l 299 803 m 478 139 l 477 130 q 482 119 476 123 l 529 85 l 538 77 l 549 69 q 553 99 550 83 l 548 102 l 545 105 l 541 109 l 536 113 l 531 117 l 525 121 l 502 134 l 479 149 l 478 139 m 186 595 l 193 591 l 200 587 q 235 561 220 576 l 262 532 l 264 531 q 267 530 266 530 l 279 532 l 291 534 l 288 538 l 286 542 l 266 564 q 237 587 255 576 q 228 595 233 589 l 218 603 l 216 604 q 213 604 214 605 l 200 601 l 186 597 l 186 595 m 345 606 l 340 608 q 336 610 337 608 l 311 632 l 286 655 l 279 661 l 276 663 l 273 666 l 273 661 l 273 656 l 272 648 q 279 628 271 635 q 283 623 281 626 l 286 618 l 294 608 l 303 599 q 328 578 311 591 l 336 572 l 340 569 l 345 566 l 345 606 m 476 760 q 380 816 435 800 q 349 815 365 820 l 352 814 l 354 812 l 377 796 l 400 780 l 416 767 l 433 753 l 435 752 l 437 751 l 457 754 l 477 758 l 476 760 m 197 329 l 208 321 l 229 304 l 250 288 q 276 279 262 276 l 290 281 l 305 282 l 294 290 q 284 299 288 295 q 233 339 262 321 q 225 354 224 344 l 225 357 l 224 358 l 218 353 l 214 349 q 210 347 212 347 l 198 341 l 185 336 l 197 329 m 197 442 l 196 461 q 196 480 195 473 l 197 496 l 199 513 l 198 515 l 197 517 l 186 524 q 176 529 181 527 q 142 551 157 536 l 138 555 l 133 560 l 132 556 l 132 553 l 132 515 l 132 478 q 143 448 132 460 l 150 441 q 197 412 168 426 l 197 442 m 581 -2 l 589 -1 q 602 1 597 -1 l 627 6 l 653 12 q 659 18 659 13 l 662 50 l 665 81 l 670 176 q 668 182 670 178 q 670 201 663 193 q 693 205 680 212 q 747 218 714 212 l 773 224 l 800 229 l 800 234 l 800 248 l 802 262 q 806 289 803 277 q 806 315 812 304 q 802 319 805 319 q 748 310 779 318 l 726 304 l 703 298 q 687 303 692 296 q 685 321 681 311 q 687 332 687 326 l 690 439 q 693 452 691 446 q 718 463 700 469 q 724 463 720 462 l 751 471 l 779 480 l 798 485 l 817 489 l 818 517 l 818 523 q 819 529 819 526 q 821 538 821 533 l 821 547 l 821 571 l 821 576 l 819 576 l 819 576 l 812 575 q 753 560 783 564 q 734 553 740 558 q 705 555 718 542 l 702 557 l 699 559 q 696 572 693 566 q 699 583 698 577 l 698 593 l 696 625 l 694 657 q 697 697 694 674 l 701 717 l 703 736 l 706 762 l 704 762 q 671 758 689 761 l 654 753 l 637 749 l 635 748 l 634 747 l 630 744 l 626 741 l 624 739 l 623 737 l 623 703 l 622 667 l 620 621 l 617 574 l 615 550 q 599 534 614 534 q 514 523 555 532 q 477 522 493 518 q 464 531 468 524 q 465 548 460 539 q 467 555 467 551 l 467 598 l 467 642 l 468 667 l 471 692 l 472 706 l 474 720 l 453 718 l 433 715 l 420 715 l 407 713 q 382 705 393 711 l 380 704 l 379 701 l 378 691 l 377 682 l 378 634 l 378 587 q 377 557 378 574 l 374 528 q 368 517 374 522 q 353 509 363 513 q 347 508 351 508 l 341 507 l 309 501 l 275 496 l 256 493 l 237 490 q 231 485 232 490 l 230 477 l 229 469 l 231 448 l 231 428 l 232 412 l 231 395 l 237 396 l 251 399 l 265 401 l 311 404 l 356 407 q 372 401 367 408 q 377 385 378 394 l 372 347 l 367 309 l 365 285 l 362 261 q 351 245 361 249 q 332 248 341 241 q 328 250 330 250 l 300 247 l 273 243 q 255 239 266 242 l 237 234 q 231 226 231 233 l 234 191 l 235 162 l 261 165 l 286 170 q 334 173 313 174 l 338 172 l 342 171 l 347 170 l 351 169 q 366 152 368 168 l 365 137 l 358 52 l 357 23 l 355 -5 l 354 -13 l 353 -20 l 393 -13 l 431 -5 l 433 7 q 444 100 445 62 l 444 123 l 444 145 q 442 152 444 149 q 441 169 437 160 q 453 180 444 178 l 477 184 l 500 189 l 538 194 l 576 199 q 593 193 589 201 q 595 171 600 181 q 591 157 592 164 l 591 142 l 591 128 l 585 84 l 580 40 l 577 19 l 574 -3 l 581 -2 m 323 -60 q 311 -45 312 -56 q 309 -42 311 -43 l 307 -39 q 236 9 271 -10 l 229 13 l 222 17 q 208 49 205 28 l 211 87 l 215 125 l 215 129 q 202 142 205 132 l 201 144 l 199 145 l 117 201 l 100 213 l 83 225 q 62 269 60 241 l 64 298 l 67 326 l 68 335 q 68 345 69 340 q 74 360 66 354 q 92 364 82 367 q 140 365 113 359 l 159 368 l 180 371 l 186 373 l 192 375 l 177 382 l 163 391 q 112 431 131 408 q 98 472 98 449 l 98 500 l 98 528 q 99 576 98 559 l 100 585 l 100 593 q 106 606 99 601 q 123 610 114 612 q 132 610 127 608 l 143 615 l 154 620 l 208 640 l 211 641 l 214 642 l 237 646 l 238 669 l 239 691 l 240 732 l 241 774 q 243 787 241 779 l 245 800 q 245 807 246 804 q 247 822 243 814 q 258 831 251 829 l 281 835 l 303 840 l 330 845 l 356 852 q 411 844 385 859 l 441 825 l 470 806 l 474 803 l 479 800 l 483 833 q 481 857 485 846 q 497 880 475 877 l 528 886 l 559 890 q 622 880 593 895 q 728 810 676 849 q 737 797 734 806 q 741 760 743 781 l 739 742 l 736 724 l 734 707 l 731 690 l 751 682 l 770 673 l 783 666 l 797 659 l 806 654 l 814 649 q 846 621 832 642 q 848 617 848 619 l 851 606 l 853 595 q 855 572 857 583 l 855 561 l 855 549 q 854 526 855 534 q 854 486 851 505 q 850 469 856 479 q 837 457 843 458 l 828 456 l 819 454 q 779 444 801 451 l 758 438 l 738 431 l 727 427 l 727 427 l 726 427 q 755 403 744 419 q 784 372 764 390 l 791 367 q 797 361 795 364 q 806 355 800 358 l 810 353 l 815 351 q 820 347 817 351 l 822 343 l 824 340 q 830 337 826 339 l 833 336 l 836 334 q 838 332 838 334 l 839 329 l 842 319 l 843 310 q 842 294 844 302 l 837 265 q 834 237 834 250 l 835 231 l 836 226 q 821 197 841 202 l 754 183 l 705 172 l 704 154 l 703 136 l 699 83 l 694 29 q 694 5 693 19 q 681 -15 694 -8 q 661 -22 673 -19 l 650 -24 l 639 -26 q 595 -34 620 -31 l 572 -36 l 550 -38 l 543 -39 l 537 -41 q 525 -38 532 -41 q 498 -20 511 -32 l 486 -9 l 473 3 l 471 5 q 469 7 471 5 l 464 -19 l 463 -22 l 463 -26 q 441 -41 458 -43 q 429 -42 435 -41 l 403 -46 l 377 -50 l 353 -55 l 329 -60 l 323 -60 m 773 955 q 774 937 784 946 l 706 880 q 700 876 703 878 q 692 876 696 873 q 688 882 689 878 q 694 892 688 889 q 761 949 726 916 l 764 952 l 767 955 l 773 955 m 27 639 q 56 644 36 647 l 68 642 l 81 639 q 90 632 88 637 q 81 622 94 621 l 68 624 l 54 626 l 47 627 l 41 627 q 27 633 32 625 l 27 639 m 865 806 q 876 795 876 806 q 874 793 875 794 q 873 791 873 792 l 863 787 l 852 783 l 790 766 q 779 772 780 764 q 787 783 777 781 l 811 790 l 834 797 l 847 801 l 859 805 l 863 806 l 865 806 m 200 749 q 192 740 199 741 q 183 745 186 739 q 168 768 178 753 l 151 790 l 140 803 q 138 815 134 809 q 143 818 140 817 q 149 817 146 819 q 161 806 157 811 q 186 773 174 790 l 193 764 l 198 753 l 199 751 l 200 749 m 767 846 q 756 854 755 846 q 766 863 756 863 q 781 871 773 863 q 790 879 785 874 l 800 886 l 806 892 l 813 898 l 817 901 q 821 903 819 903 q 826 901 823 903 q 829 899 829 901 q 830 895 831 897 q 829 890 830 892 q 812 873 822 882 l 800 863 l 787 854 q 767 846 777 846 m 75 739 q 85 746 76 749 l 92 743 q 99 739 96 741 q 129 721 115 726 l 131 720 l 133 719 q 134 714 135 718 q 127 705 134 706 q 123 705 125 704 q 93 721 104 710 q 87 725 91 723 l 81 729 q 75 739 75 732 m 494 305 l 478 315 l 477 302 l 476 288 l 493 292 l 509 295 l 494 305 m 533 315 l 515 323 q 481 342 494 332 q 487 330 480 334 l 496 324 l 505 318 l 515 313 q 524 299 526 307 q 551 307 532 302 l 533 315 m 536 390 l 547 382 l 556 375 l 566 368 l 574 362 l 585 357 l 586 368 l 587 379 l 586 380 l 585 382 l 561 402 l 559 404 l 557 404 l 540 401 l 524 397 l 536 390 m 488 382 l 491 380 q 496 377 494 378 q 528 354 508 363 l 581 328 l 582 328 l 583 328 l 583 332 l 583 335 l 582 338 q 580 339 581 339 q 557 353 570 344 l 547 361 l 537 370 q 520 378 530 376 q 510 393 509 382 l 498 390 l 488 387 q 486 386 487 387 l 485 384 l 488 382 m 441 288 l 445 325 l 449 361 l 450 384 l 452 407 q 473 422 454 429 q 490 423 481 420 l 515 430 q 540 436 530 434 q 560 439 548 438 l 581 441 q 598 446 591 441 q 617 447 607 452 q 625 432 626 442 l 623 397 l 620 363 l 618 340 l 617 316 l 617 305 l 616 294 q 589 277 612 272 q 580 277 585 278 l 570 275 l 536 267 l 503 259 l 484 256 l 465 253 l 462 253 l 459 253 q 441 275 441 257 l 441 288 l 441 288 z "},"$":{"ha":897,"x_min":35,"x_max":852,"o":"m 450 -106 q 474 -85 458 -99 q 450 -106 449 -87 m 287 801 l 276 791 l 265 783 l 277 781 l 287 779 l 287 801 m 684 630 l 681 629 l 677 627 l 652 610 q 626 593 637 600 q 618 574 616 588 l 652 602 l 685 629 l 684 630 m 464 564 l 458 566 l 446 570 q 441 570 444 570 q 439 567 439 568 l 437 552 l 437 544 l 437 536 q 454 549 443 541 l 462 555 l 471 562 l 464 564 m 276 132 q 291 130 281 132 l 309 127 l 309 168 l 292 150 l 276 132 m 712 100 l 674 70 q 670 62 671 68 l 669 58 l 667 53 q 750 129 718 81 l 712 100 m 286 829 q 239 803 264 821 l 217 787 l 195 770 l 204 773 l 214 775 l 232 780 l 235 781 l 285 823 l 287 825 l 288 827 l 286 829 m 339 882 l 344 882 l 353 882 q 357 883 355 882 l 374 894 l 391 905 l 439 934 l 487 963 l 490 965 l 492 966 l 494 968 q 457 956 478 969 l 423 935 l 389 913 q 362 898 378 907 l 349 890 l 334 883 l 339 882 m 563 868 l 552 863 l 542 858 q 504 838 526 852 l 486 826 l 467 814 q 459 805 460 810 q 458 795 458 801 l 457 784 l 563 868 m 515 545 l 508 548 l 495 551 q 487 550 491 552 l 439 516 l 437 515 l 437 512 l 436 481 l 439 480 q 522 543 477 524 l 515 545 m 583 -56 l 564 -63 l 545 -69 q 512 -83 523 -77 q 456 -125 479 -104 q 452 -146 446 -134 q 553 -78 486 -115 q 569 -68 559 -75 l 584 -57 l 583 -56 m 460 832 q 468 838 468 837 l 522 868 l 570 896 l 572 897 l 573 899 l 572 910 l 572 922 q 566 918 566 918 q 500 878 534 892 q 484 870 493 876 l 469 862 q 465 857 465 860 l 463 846 l 461 839 l 460 832 m 795 722 q 665 658 728 694 q 651 648 659 654 l 638 638 l 625 629 l 624 630 l 623 621 l 621 611 l 625 613 l 628 615 l 634 618 q 724 671 677 648 q 749 685 735 677 l 773 699 l 778 702 q 781 706 781 704 q 795 713 786 715 q 798 722 798 719 l 795 722 m 646 667 q 665 678 657 674 q 742 718 691 692 l 768 730 l 795 743 q 800 747 798 745 q 802 750 802 749 l 802 761 l 802 772 l 799 771 l 797 769 q 760 744 782 755 l 741 734 l 720 724 l 700 715 l 680 705 q 642 682 658 694 q 628 655 629 673 l 646 667 m 307 269 l 262 241 l 217 213 q 195 197 207 207 l 174 181 q 170 175 172 179 l 168 172 l 166 168 l 173 165 l 180 163 l 192 159 q 202 161 197 157 q 279 237 250 209 q 303 257 289 247 q 309 269 311 262 l 307 269 m 306 238 q 215 151 272 206 l 222 149 l 230 146 l 243 142 q 254 143 249 140 q 281 166 267 152 l 292 180 l 302 193 l 307 198 q 309 203 309 201 l 309 220 l 309 237 l 306 238 m 662 524 q 635 517 644 531 q 631 513 634 515 l 626 509 l 593 484 l 560 459 l 536 441 l 511 424 l 515 421 l 519 418 q 538 418 527 410 q 613 469 567 438 l 629 479 q 646 490 640 486 q 673 520 665 504 l 662 524 m 385 878 l 429 878 q 434 880 432 878 q 456 895 443 888 l 467 901 l 479 907 q 533 937 505 921 q 543 945 537 939 l 548 949 l 553 954 l 545 956 l 536 959 l 521 964 l 519 963 l 517 962 l 491 946 l 465 929 l 429 907 l 393 886 l 385 881 l 385 878 m 678 160 l 682 164 q 690 172 687 169 l 713 190 l 736 208 l 769 235 l 802 262 q 811 296 820 277 l 768 264 l 674 193 q 671 191 672 192 q 670 187 669 189 l 672 172 l 673 164 l 674 156 l 678 160 m 785 399 q 637 284 721 366 l 644 271 l 646 265 l 648 260 l 663 273 l 678 286 l 781 371 q 791 383 791 380 q 785 399 792 387 m 602 342 q 674 399 630 369 l 712 425 l 751 450 q 734 471 742 461 l 721 462 q 708 453 713 456 q 654 419 683 439 l 629 401 l 604 382 q 593 372 600 378 l 584 362 l 589 357 l 593 352 l 602 342 m 772 420 l 768 425 l 762 435 l 760 435 l 760 435 l 703 397 l 646 358 q 631 345 640 353 l 616 332 q 614 328 614 330 q 614 325 613 326 l 621 313 l 625 307 l 629 300 q 776 414 701 374 l 772 420 m 595 519 l 588 521 l 583 522 l 578 524 q 570 524 573 525 q 458 450 518 513 l 472 444 l 485 438 q 498 438 491 435 q 552 475 521 449 l 578 496 q 604 515 592 508 l 595 519 m 675 97 l 676 97 l 677 97 l 781 178 l 784 181 q 787 184 786 183 q 809 245 802 214 l 806 243 l 805 242 l 802 240 l 760 206 l 718 172 q 680 137 704 160 q 676 128 676 134 l 675 113 l 675 97 m 558 388 l 565 382 l 571 376 l 595 395 l 618 414 q 686 461 657 443 l 695 467 l 704 472 q 720 487 714 478 q 690 511 707 496 l 686 507 l 684 503 q 679 496 682 498 q 650 473 662 481 l 597 437 l 544 400 l 558 388 m 783 351 l 767 338 q 735 311 748 322 l 698 278 l 661 244 q 658 241 659 243 q 657 238 656 239 l 661 224 l 665 210 l 669 212 l 672 215 l 749 273 q 804 315 779 294 q 808 319 806 317 q 809 324 809 322 l 805 344 l 800 364 l 783 351 m 675 855 l 667 856 q 652 857 659 857 l 637 858 q 621 857 627 858 q 591 844 603 854 l 532 797 l 473 750 l 473 749 l 472 748 l 486 747 q 499 745 494 747 q 543 755 519 741 q 594 789 569 771 l 628 814 l 662 840 q 672 847 666 843 l 677 850 l 684 854 l 675 855 m 599 717 q 614 707 610 707 q 627 714 617 707 l 631 717 l 678 741 l 726 765 q 772 794 757 781 q 774 798 773 795 q 776 802 776 801 q 763 822 773 817 q 720 842 745 831 q 700 842 710 847 q 646 806 671 827 l 623 788 l 600 770 q 553 738 574 750 l 553 737 l 552 737 l 583 726 l 589 732 l 596 736 l 617 751 l 638 764 q 735 819 669 786 q 745 815 742 821 q 743 803 750 808 l 734 797 l 724 791 l 642 745 l 627 736 l 612 726 l 606 722 l 599 717 m 416 -153 l 417 -87 q 448 -55 418 -62 l 474 -49 l 500 -43 q 553 -31 533 -37 q 631 46 610 -16 q 642 127 642 77 q 640 149 642 137 l 637 171 q 553 344 625 269 q 488 397 528 370 q 469 408 479 402 l 450 416 q 412 435 425 427 q 401 452 401 443 l 405 589 q 416 604 405 602 q 471 599 450 607 q 505 587 485 593 l 538 576 l 559 570 l 580 564 l 587 614 l 595 664 q 587 684 597 677 l 584 686 q 507 711 553 709 q 472 711 492 712 l 437 710 q 419 721 428 710 q 413 741 410 732 l 414 743 l 414 744 q 420 753 418 747 l 420 758 l 420 764 l 421 774 l 422 785 l 427 842 q 322 848 370 846 l 322 774 q 309 751 322 755 l 307 750 l 306 748 q 285 743 298 740 l 280 745 l 274 747 q 263 747 268 747 q 204 734 232 741 q 138 696 162 722 q 87 613 113 671 q 94 462 52 533 q 231 351 135 392 q 256 342 241 347 l 283 335 q 334 315 316 326 q 347 292 351 307 l 345 288 l 345 284 l 343 252 l 343 219 l 344 169 l 345 119 q 337 102 345 112 q 324 90 330 92 l 319 90 l 315 91 l 305 93 l 296 95 l 289 96 l 282 96 q 269 99 274 98 l 229 112 l 189 125 l 175 130 l 160 136 q 159 132 159 132 l 156 111 q 155 90 155 98 l 157 53 l 161 17 l 161 15 l 163 13 l 174 5 q 186 -1 181 1 l 215 -14 l 244 -26 q 313 -41 283 -42 q 329 -58 330 -40 l 328 -77 l 327 -94 l 326 -122 l 327 -151 q 416 -159 367 -146 l 416 -153 m 35 565 l 40 587 l 45 609 q 88 694 58 654 q 90 699 89 696 l 90 705 l 91 710 l 92 715 q 125 761 102 741 q 246 849 191 817 q 264 858 254 853 l 284 865 q 290 873 291 867 q 312 909 287 895 l 350 930 l 388 952 q 410 966 403 961 q 431 982 422 975 q 524 1002 470 1016 q 600 964 570 990 q 606 943 608 956 q 605 928 605 934 l 607 910 l 609 892 l 650 892 q 758 866 707 891 q 810 814 798 846 l 814 815 l 819 815 q 836 801 836 816 l 835 760 l 833 719 l 832 714 l 831 709 l 830 703 q 831 697 830 700 q 823 676 835 684 l 806 667 l 791 658 q 760 639 772 647 q 710 602 739 624 l 661 565 l 660 563 l 658 561 q 785 467 732 549 q 846 305 836 391 q 831 199 852 252 q 721 45 791 101 l 711 37 l 701 31 q 681 16 688 21 q 665 1 675 11 l 650 -13 l 644 -18 l 636 -22 l 635 -28 l 635 -33 q 632 -45 633 -40 q 595 -92 624 -71 l 578 -102 l 562 -111 l 525 -135 l 488 -159 q 466 -189 470 -172 q 461 -194 465 -191 q 454 -197 457 -197 q 444 -198 449 -196 l 439 -201 l 434 -203 l 431 -203 l 426 -200 l 421 -198 q 321 -187 370 -179 q 296 -170 298 -191 q 291 -114 292 -146 l 292 -95 l 293 -76 l 282 -74 q 271 -72 275 -73 q 191 -45 232 -59 q 140 -18 159 -33 q 122 16 122 -4 l 123 38 l 123 60 l 122 81 l 122 103 q 126 146 122 128 q 126 149 127 147 l 125 153 q 127 174 119 164 l 133 182 l 138 189 l 142 195 l 145 200 q 154 210 150 207 q 198 243 177 230 q 230 261 210 250 l 246 270 l 262 279 q 274 288 267 282 l 286 296 l 286 298 l 273 302 l 260 304 q 174 336 206 313 l 147 355 q 120 376 132 367 q 41 495 62 422 l 38 511 l 35 526 l 35 565 m 414 1103 l 418 1097 q 420 1090 420 1093 l 423 1068 l 426 1046 q 429 1031 427 1038 q 425 1018 433 1021 q 413 1025 416 1015 q 408 1046 409 1038 q 403 1090 405 1068 q 404 1097 403 1093 l 405 1103 l 414 1103 m 699 1078 q 656 991 696 1031 q 645 991 651 985 q 644 1003 639 997 l 652 1013 l 660 1022 q 682 1079 680 1048 q 691 1091 682 1091 q 699 1078 700 1091 m 261 1040 q 267 1039 267 1039 l 305 1015 l 312 1010 l 318 1005 q 321 994 326 1000 q 309 990 317 986 l 306 991 l 303 994 q 259 1023 286 1011 q 254 1034 251 1027 q 257 1038 255 1035 l 261 1040 m 538 1057 q 534 1041 536 1047 q 521 1036 530 1029 q 519 1050 515 1040 q 522 1063 521 1055 l 523 1075 l 523 1082 l 522 1088 q 530 1097 522 1097 q 539 1089 538 1097 l 541 1073 l 543 1073 l 538 1057 m 460 146 q 490 170 486 145 q 460 222 495 203 l 460 146 m 526 178 q 488 116 526 134 q 475 112 481 113 l 469 112 l 464 111 q 452 106 457 109 q 435 109 445 102 q 426 127 426 117 l 427 219 q 422 230 427 226 q 416 245 415 237 q 427 258 418 254 q 479 255 454 272 q 510 227 494 245 q 526 178 526 210 m 279 537 l 288 532 q 286 549 286 545 l 279 546 l 271 543 l 279 537 m 267 560 l 272 564 q 279 571 277 568 q 267 585 286 579 q 263 555 257 574 l 267 560 m 325 512 q 322 497 325 501 q 309 491 319 494 l 305 490 l 302 488 q 275 496 284 477 q 269 503 273 500 l 262 509 l 256 513 q 243 524 248 519 q 224 567 225 543 q 248 614 224 593 q 285 615 260 625 q 294 613 290 613 q 310 602 308 612 l 319 557 l 327 512 l 325 512 z "},"%":{"ha":1276,"x_min":36,"x_max":1251,"o":"m 821 265 l 821 277 l 820 279 q 819 281 819 281 q 800 301 810 287 l 795 306 l 791 311 q 802 281 791 301 q 821 254 811 262 l 821 265 m 827 385 l 833 396 l 833 398 l 833 401 q 822 417 827 411 l 815 425 l 808 433 l 802 420 l 798 409 q 798 406 797 407 q 821 372 804 388 l 827 385 m 80 590 q 99 531 81 574 q 125 481 116 489 l 123 511 l 122 542 l 119 547 l 115 552 l 114 555 l 112 559 l 87 584 l 83 587 l 80 590 m 867 444 q 846 465 856 452 l 839 478 l 831 491 l 817 455 l 817 453 l 818 451 l 844 415 l 844 414 l 867 444 m 817 352 l 807 363 l 787 384 l 782 370 l 776 356 l 776 354 q 777 352 776 353 q 816 306 800 330 l 818 304 l 821 301 l 822 312 l 824 322 q 827 340 826 334 l 817 352 m 1006 599 l 1034 568 l 1040 561 l 1046 554 q 1056 537 1053 545 q 1057 535 1057 536 q 1063 524 1065 530 l 1089 519 l 1116 514 l 1090 538 q 1064 561 1075 551 q 1006 600 1034 586 l 1006 599 m 417 153 l 412 141 q 415 130 409 134 l 422 126 l 429 121 q 473 77 460 96 l 478 69 l 484 62 l 487 69 l 490 76 q 490 82 492 79 q 476 100 483 92 l 464 115 l 451 130 l 443 138 l 435 146 q 423 165 427 155 l 417 153 m 379 74 l 374 66 q 374 54 370 60 q 379 47 376 50 q 407 18 391 39 l 442 -27 l 444 -27 l 448 -16 l 452 -6 l 448 -1 l 443 4 l 404 52 q 384 83 388 70 l 379 74 m 631 584 l 634 538 l 634 536 l 637 530 l 642 524 q 650 511 646 516 l 661 501 l 670 490 q 675 488 672 488 q 679 490 677 488 l 685 503 l 690 515 q 675 528 683 520 l 669 536 l 663 545 l 648 565 l 632 585 l 631 584 m 313 836 l 325 821 q 346 792 338 805 l 408 795 q 301 850 344 843 l 313 836 m 127 576 l 130 583 q 134 596 132 591 q 128 613 138 606 l 126 615 l 94 642 l 88 647 l 81 652 q 77 654 80 653 l 75 655 l 72 656 q 73 631 73 645 l 75 618 l 75 608 l 79 608 l 82 608 q 87 606 86 608 q 96 600 92 604 l 103 592 l 115 581 l 126 570 l 127 576 m 640 430 l 633 437 q 626 445 628 442 q 631 460 620 454 q 642 456 637 464 l 648 448 l 655 439 l 663 455 l 670 471 q 650 486 660 474 l 642 496 q 633 505 637 502 q 608 408 627 452 l 620 396 l 631 385 l 640 404 l 648 423 l 640 430 m 185 833 q 256 758 209 793 q 265 763 260 760 l 275 768 l 273 772 l 272 774 q 229 823 250 808 l 218 831 l 209 840 l 207 841 l 205 841 l 195 837 l 185 833 m 989 605 q 952 606 966 612 l 953 604 q 967 576 956 591 l 989 548 l 1011 520 l 1029 522 l 1046 523 l 1041 530 l 1036 538 q 1025 551 1029 546 l 1008 570 l 991 588 q 986 596 986 594 q 989 605 985 598 m 788 905 l 795 899 l 804 891 l 810 885 l 817 878 q 832 865 826 869 q 869 829 854 851 l 890 831 l 911 831 l 906 838 l 902 845 l 900 843 l 898 842 q 886 844 890 838 q 878 859 882 853 l 843 903 l 841 905 q 838 906 840 906 l 788 906 l 788 905 m 236 840 l 245 831 q 262 814 256 821 q 277 795 269 807 l 292 776 l 309 781 q 328 787 320 785 l 320 800 l 311 812 l 304 820 l 298 827 q 285 842 289 836 q 264 852 277 854 l 246 850 l 226 848 l 236 840 m 392 98 q 401 91 398 97 l 404 82 q 410 73 407 77 l 433 44 l 456 14 l 459 12 l 467 27 l 473 42 q 473 47 475 45 l 466 58 l 458 68 q 441 87 450 79 q 401 118 423 104 l 397 109 l 392 98 m 709 566 l 707 569 l 702 575 l 688 593 l 673 612 l 658 629 l 642 646 l 633 631 l 625 615 l 627 616 l 631 617 q 640 612 640 619 q 644 596 640 604 l 649 590 l 654 584 l 666 570 l 677 555 l 683 547 l 689 539 l 696 530 l 698 531 l 705 547 l 709 555 l 712 562 l 709 566 m 975 536 l 959 557 q 934 603 941 581 l 917 595 l 901 587 l 904 583 l 907 579 q 911 572 909 575 q 928 543 916 560 l 937 530 q 946 515 943 522 q 954 509 947 512 q 963 507 960 507 l 992 517 l 975 536 m 587 282 l 593 297 l 593 299 l 593 302 l 584 314 l 576 326 q 572 338 572 332 q 581 346 572 346 q 589 338 588 347 q 591 334 589 336 l 603 319 l 622 364 l 623 366 l 623 368 q 600 391 610 384 q 544 316 578 348 q 559 289 547 302 l 570 278 l 581 267 l 587 282 m 764 667 q 738 701 751 678 l 714 740 l 709 749 l 702 758 l 692 741 l 682 724 q 694 713 697 722 q 697 701 692 707 l 702 694 l 707 686 l 738 643 l 740 640 l 742 636 q 745 634 744 634 q 749 636 747 633 l 756 651 l 764 667 m 722 792 l 715 779 l 714 777 l 714 774 l 718 767 l 722 760 l 728 750 l 734 741 l 746 721 l 758 701 l 765 691 l 772 682 l 778 692 l 783 701 q 793 719 790 713 l 786 728 l 774 745 l 763 762 l 747 783 l 730 804 l 722 792 m 509 112 l 517 127 q 517 130 517 128 q 494 165 506 152 l 479 180 l 466 196 l 458 205 l 452 216 q 427 174 437 191 q 441 168 436 176 q 450 157 444 163 q 490 111 477 130 l 495 103 l 501 96 l 509 112 m 675 709 q 673 706 673 706 l 664 688 l 654 670 q 654 661 652 665 l 665 648 l 675 635 l 686 624 l 696 612 q 715 587 709 599 q 724 588 720 578 l 728 594 l 738 616 q 724 629 731 621 l 719 637 l 714 646 q 692 678 704 661 l 687 685 l 682 692 q 675 709 677 701 m 851 538 l 836 503 q 848 498 846 504 l 856 485 l 863 472 q 868 466 865 469 l 873 461 q 878 460 876 459 q 889 464 884 460 l 893 468 l 898 471 l 897 474 l 895 475 l 880 496 l 864 518 q 858 532 859 524 q 865 541 856 538 q 874 535 871 542 l 876 532 l 877 528 l 912 482 l 926 490 l 938 496 l 889 572 q 867 574 880 564 l 851 538 m 815 748 l 826 763 q 842 794 837 780 q 831 819 827 802 l 831 821 l 830 823 l 804 844 l 803 843 l 806 839 q 825 798 820 818 q 821 787 828 789 q 809 792 812 784 q 790 831 804 810 l 778 849 l 766 867 l 764 870 l 763 869 l 742 825 l 741 823 l 742 821 l 757 799 l 764 789 l 771 781 l 779 768 l 787 757 l 795 745 l 804 733 l 815 748 m 503 279 l 543 223 l 545 222 l 548 220 l 550 219 l 552 217 q 554 214 554 215 q 551 203 555 208 q 540 203 546 197 l 531 212 q 523 220 526 216 l 503 248 l 484 275 l 475 271 l 471 269 l 468 267 l 466 256 l 465 244 l 464 239 l 465 235 q 484 203 468 220 l 495 190 l 507 177 q 527 147 520 161 l 528 150 l 530 153 l 550 198 l 571 243 q 568 256 574 250 l 557 266 l 546 277 q 529 303 534 290 l 515 293 l 500 283 l 503 279 m 234 753 l 229 758 q 191 795 205 774 q 174 818 185 804 q 161 819 168 824 l 146 806 q 133 793 138 800 q 119 778 127 787 l 106 762 l 113 758 l 119 755 l 131 748 q 172 708 155 734 q 176 699 174 705 l 177 694 l 178 689 q 170 681 179 681 q 161 688 162 681 l 159 695 q 156 701 158 699 q 101 745 136 728 l 100 745 l 98 745 q 75 675 79 711 l 81 673 q 87 670 85 671 q 107 654 96 663 l 125 637 l 143 621 l 149 631 l 153 640 l 151 642 l 150 643 l 129 659 l 108 675 q 87 694 95 685 q 88 708 79 701 q 100 705 94 713 q 121 687 109 692 l 126 684 l 131 681 l 147 668 l 163 654 q 200 711 178 687 l 196 718 l 192 723 q 172 745 184 734 l 161 755 l 149 764 q 134 772 144 768 q 127 783 125 774 q 137 789 128 790 q 162 778 151 787 l 179 762 l 195 747 l 205 736 l 214 727 q 240 748 229 739 l 234 753 m 878 795 q 853 735 873 767 l 842 718 l 831 702 q 811 669 818 682 q 757 568 786 625 q 635 299 701 461 q 540 95 583 172 q 486 -14 505 33 l 484 -22 l 480 -30 l 482 -30 l 484 -30 l 548 -19 l 568 -16 q 576 -9 575 -16 l 578 -7 l 581 -4 l 585 0 l 589 5 q 627 78 610 35 l 635 102 l 644 127 q 662 175 655 157 q 741 366 694 256 q 828 574 790 486 q 857 637 838 597 l 884 699 l 895 724 l 906 748 q 932 795 919 777 l 932 798 l 878 795 m 1211 415 q 1206 415 1206 415 l 1200 417 l 1194 419 q 1185 428 1187 422 q 1179 436 1183 433 q 1056 487 1126 484 q 902 431 968 490 q 871 393 884 414 q 874 370 881 383 q 854 281 854 329 q 880 181 855 227 q 1032 76 932 83 q 1139 105 1093 71 q 1210 236 1198 151 q 1214 383 1217 287 l 1213 399 l 1211 415 m 597 530 q 582 632 597 590 q 486 740 554 708 q 361 758 427 768 q 189 624 231 738 q 184 619 187 622 l 180 614 l 177 612 l 174 610 q 158 490 146 555 q 233 351 173 410 q 420 292 309 275 q 556 384 507 304 q 597 530 595 448 m 36 668 l 38 681 l 40 694 q 216 882 75 842 q 363 868 283 901 q 443 817 397 854 q 462 803 450 811 l 471 796 l 481 789 q 485 785 483 788 l 489 779 l 490 777 l 492 775 q 608 664 570 744 l 608 662 l 610 660 l 614 667 l 617 673 q 703 827 649 741 q 716 850 709 836 l 728 876 l 732 884 l 735 892 q 731 916 725 903 q 732 922 732 918 q 749 941 732 940 l 793 941 l 838 941 q 895 913 870 942 q 942 848 913 892 l 949 837 l 956 826 l 959 821 l 961 815 q 964 811 962 813 q 966 785 977 799 q 919 701 941 753 l 902 661 l 894 640 l 885 619 l 886 620 l 888 621 l 890 622 q 949 644 922 639 q 1010 636 972 648 q 1108 576 1061 621 q 1192 478 1151 536 l 1195 473 l 1198 469 q 1205 460 1202 463 q 1210 458 1207 458 l 1218 456 l 1225 454 q 1236 441 1234 452 q 1250 338 1247 391 l 1251 334 l 1251 295 l 1250 292 l 1248 272 l 1246 252 q 1220 153 1240 197 q 1152 70 1195 98 q 1010 44 1092 32 q 872 127 926 56 l 865 136 l 857 146 q 846 168 850 158 q 831 191 842 181 q 787 241 803 218 q 758 300 762 276 l 757 308 q 751 296 754 304 l 728 243 l 707 191 q 665 85 682 132 q 632 10 653 53 q 599 -35 616 -22 q 578 -49 595 -46 l 546 -54 l 513 -60 l 492 -63 l 469 -64 l 463 -64 q 457 -66 459 -65 q 446 -66 452 -68 q 429 -61 437 -64 q 389 -31 412 -53 l 374 -16 l 358 -1 q 321 22 339 15 q 312 35 313 26 q 317 50 311 43 q 359 111 341 74 l 417 233 l 422 243 l 426 254 l 422 254 l 419 254 q 353 251 385 248 q 184 345 247 264 l 182 347 l 180 350 q 173 354 176 353 q 170 357 172 355 l 166 361 l 164 365 l 161 368 q 73 503 104 438 q 40 604 47 555 l 36 629 l 36 668 m 390 1105 q 393 1090 397 1099 q 390 1072 388 1083 l 393 1061 l 395 1050 q 387 1040 396 1041 q 377 1050 379 1040 q 374 1065 376 1057 q 376 1096 369 1081 l 378 1101 l 382 1105 l 390 1105 m 1229 850 q 1225 846 1227 847 l 1211 839 l 1197 832 l 1149 810 q 1139 800 1142 807 q 1128 795 1136 792 q 1123 806 1121 799 q 1139 824 1127 818 l 1161 835 l 1183 845 l 1201 854 l 1219 862 q 1223 863 1221 863 q 1226 863 1225 863 q 1230 859 1227 862 l 1232 854 l 1229 850 m 1013 926 q 1004 930 1007 926 q 1004 939 1002 935 q 1024 975 1015 954 l 1031 994 l 1038 1013 l 1043 1025 q 1054 1031 1046 1034 q 1059 1019 1062 1028 l 1055 1008 l 1051 998 l 1026 941 q 1018 929 1024 937 l 1015 927 l 1013 926 m 261 979 q 256 970 261 974 q 248 970 252 968 q 239 977 243 972 q 203 1010 221 999 q 191 1025 197 1015 q 190 1032 189 1028 q 196 1037 192 1036 q 205 1034 201 1039 l 211 1027 q 217 1021 214 1023 q 248 994 229 1014 l 252 989 l 257 984 l 260 981 l 261 979 m 267 1087 q 275 1097 267 1096 q 283 1090 280 1098 q 294 1074 288 1082 q 309 1054 305 1063 l 311 1049 l 315 1044 q 315 1031 321 1035 q 300 1035 307 1026 l 275 1069 l 273 1074 l 270 1078 q 267 1087 267 1082 m 1112 909 q 1103 918 1102 909 q 1112 933 1103 927 q 1147 956 1128 944 q 1159 953 1154 961 q 1155 941 1162 945 l 1140 932 l 1125 922 q 1120 916 1122 920 q 1112 909 1117 909 m 313 454 q 332 416 317 432 q 367 397 348 398 l 349 427 l 344 434 l 339 441 q 324 450 332 450 l 323 450 l 321 450 q 313 454 319 452 m 456 583 q 443 589 448 582 q 412 622 429 610 q 402 635 406 627 q 394 640 399 641 l 401 602 q 403 598 401 600 l 422 578 l 442 557 l 451 549 l 460 541 l 462 542 l 456 583 m 397 557 l 394 542 q 395 541 394 541 l 396 538 q 431 500 412 526 q 443 488 435 495 l 449 481 l 455 474 l 456 484 l 458 494 l 460 511 q 452 522 453 515 q 450 526 452 524 l 439 536 l 427 547 l 401 573 l 397 557 m 438 435 l 441 440 l 447 450 q 446 459 450 454 l 424 484 l 402 509 l 395 516 l 387 524 l 379 510 l 371 497 l 402 463 l 418 446 l 435 429 l 438 435 m 349 454 l 359 443 l 364 435 l 370 426 q 389 401 377 415 q 391 399 389 400 q 393 399 393 399 q 422 417 410 405 l 422 418 l 421 419 l 393 447 q 367 477 378 463 q 363 480 366 478 l 359 483 l 353 478 l 349 473 q 340 465 343 467 l 349 454 m 304 488 q 324 498 317 491 l 333 508 q 366 599 372 546 q 360 625 365 610 q 353 631 358 630 q 345 628 348 632 l 334 617 q 326 605 329 610 q 304 522 307 572 l 304 505 l 304 488 m 434 652 q 451 648 443 655 q 490 585 479 625 q 477 431 511 503 q 386 357 450 372 q 314 381 346 348 q 270 473 280 417 q 277 592 258 537 q 371 673 301 659 q 418 670 393 678 q 434 652 431 666 m 1008 182 l 1009 182 l 999 195 l 998 194 l 1008 182 m 1122 318 l 1122 321 q 1109 367 1118 349 q 1074 397 1097 391 l 1069 398 l 1072 390 l 1075 382 q 1086 363 1080 371 l 1095 352 l 1104 341 l 1113 330 l 1122 317 l 1122 318 m 1104 199 q 1090 203 1096 197 l 1085 209 l 1046 256 q 1037 246 1042 252 l 1038 245 q 1059 214 1044 233 l 1070 200 q 1082 185 1077 191 l 1082 184 l 1084 183 l 1088 183 l 1094 182 l 1099 190 l 1105 198 l 1104 199 m 1124 264 l 1124 271 l 1125 283 l 1124 286 l 1123 288 l 1117 295 l 1110 302 l 1097 322 l 1083 342 l 1081 344 l 1079 346 l 1078 333 q 1076 321 1078 326 q 1081 304 1075 313 l 1085 299 l 1116 260 q 1119 258 1118 259 l 1121 258 l 1124 256 l 1124 264 m 1065 285 l 1061 278 q 1063 262 1057 269 l 1098 220 l 1099 218 l 1101 218 q 1110 209 1107 216 l 1115 223 l 1119 236 l 1115 239 l 1111 241 q 1105 247 1107 245 l 1098 255 l 1092 263 l 1080 277 l 1069 292 l 1065 285 m 1023 194 l 1044 170 q 1073 168 1057 157 l 1022 233 l 1013 226 l 1008 222 l 1002 218 l 1023 194 m 971 240 q 1032 299 1012 262 q 1043 353 1047 325 q 1028 394 1039 380 l 1027 393 l 1025 393 q 991 360 1003 382 q 970 273 972 320 q 970 257 969 267 l 970 248 l 971 240 m 1162 286 q 1143 202 1161 248 l 1138 191 l 1133 179 q 1121 157 1128 166 q 1053 127 1097 123 q 982 155 1019 131 q 957 192 963 168 q 952 196 956 196 q 939 206 943 197 q 940 222 935 216 q 941 227 941 224 q 938 290 933 251 q 953 359 943 335 q 1025 433 975 414 q 1113 413 1072 450 q 1156 331 1147 382 l 1159 309 l 1162 286 z "},"&":{"ha":964,"x_min":33,"x_max":1024,"o":"m 66 232 q 77 216 66 222 l 97 204 l 117 192 l 139 179 q 136 193 143 188 l 127 199 l 119 206 l 93 224 l 66 241 l 66 232 m 73 196 l 81 174 q 84 171 81 172 q 123 138 109 157 q 130 133 126 135 q 136 123 138 130 q 126 116 135 115 l 121 117 l 121 117 l 132 106 l 142 96 l 143 98 q 138 158 136 126 q 137 160 138 159 l 135 162 l 73 197 l 73 196 m 193 503 q 220 468 203 479 q 228 453 229 462 q 231 446 227 448 l 281 420 l 283 419 l 285 418 l 278 434 l 271 450 q 269 453 270 452 l 236 475 l 203 498 l 194 505 l 193 503 m 190 407 l 199 402 q 216 391 210 397 l 242 362 q 273 384 259 374 l 239 403 l 205 422 q 201 422 203 424 l 191 417 l 186 414 l 180 411 l 190 407 m 72 294 l 67 265 q 68 263 67 264 l 71 261 l 75 258 l 81 254 l 127 220 l 144 207 l 147 215 l 149 223 l 149 224 l 149 227 l 136 239 q 121 250 127 246 q 77 291 92 272 l 74 295 l 72 294 m 736 378 q 750 365 744 370 l 759 356 l 768 347 q 785 328 778 336 l 787 324 q 791 334 789 329 l 795 344 q 800 363 801 355 q 798 369 800 368 l 781 377 l 765 386 q 734 407 746 397 l 730 401 q 724 393 726 396 l 736 378 m 285 833 q 309 812 299 827 l 327 784 l 345 756 l 347 751 q 374 766 361 759 l 353 792 l 345 804 l 336 814 q 317 834 326 826 q 313 839 315 836 l 309 844 l 298 839 l 285 833 m 623 798 l 603 814 l 583 829 l 569 839 q 556 848 561 844 q 539 857 548 854 l 512 865 q 515 857 513 860 l 526 846 l 536 834 l 547 820 l 557 806 l 592 801 l 627 795 l 623 798 m 103 353 q 179 288 141 332 l 188 302 l 197 314 q 179 330 189 321 l 160 343 q 126 377 138 361 l 115 365 l 103 353 m 536 807 l 519 827 l 511 836 l 503 845 q 491 867 494 856 q 490 868 491 867 q 488 869 488 869 l 446 871 l 444 871 l 442 871 q 443 869 443 869 l 496 807 q 503 804 499 804 l 519 804 l 536 806 l 536 807 m 259 486 l 258 492 q 256 504 256 499 q 245 522 255 515 l 211 549 l 176 578 q 185 525 179 546 l 190 524 l 195 523 q 202 520 199 522 l 212 513 l 223 507 l 241 494 l 260 479 l 259 486 m 218 340 l 229 350 l 226 353 l 223 357 l 215 366 l 207 374 q 183 391 197 385 l 174 395 l 163 401 l 158 398 l 153 395 l 141 387 q 170 359 153 370 l 176 353 l 182 349 l 195 338 q 207 329 199 335 l 218 340 m 197 741 l 195 736 q 191 727 193 730 q 193 713 186 720 l 195 711 l 238 670 l 252 657 l 266 645 l 270 655 l 274 665 q 273 673 275 669 l 254 692 l 235 711 l 218 729 l 199 747 l 197 741 m 382 862 l 384 861 l 386 859 q 415 824 399 850 l 428 805 l 430 803 q 432 802 431 802 q 443 793 440 801 q 479 801 456 795 l 475 806 l 470 811 l 422 868 l 420 869 l 419 870 l 399 868 l 380 865 l 382 862 m 360 861 q 325 850 346 857 l 330 846 l 334 841 l 342 832 l 351 823 l 365 806 l 379 788 l 380 786 q 382 785 381 785 q 391 774 390 783 l 407 781 q 420 786 416 784 l 410 800 l 400 815 q 376 844 388 834 q 368 852 373 847 l 365 857 l 360 861 m 86 328 l 81 316 q 81 314 80 315 l 81 312 q 117 277 94 297 l 136 260 l 155 243 l 156 243 l 163 258 l 165 261 l 167 264 q 169 271 169 268 q 165 276 168 273 l 163 279 l 161 281 q 92 338 132 318 l 86 328 m 671 325 l 678 317 l 701 292 l 724 267 q 730 261 726 264 l 738 256 q 751 271 745 265 l 734 288 l 718 304 l 707 313 l 696 321 q 685 337 687 328 q 690 347 684 344 q 701 343 699 349 q 707 334 703 338 l 711 330 l 716 326 l 747 299 l 755 292 l 762 285 l 778 307 q 778 309 778 307 l 777 311 l 765 325 l 752 338 l 736 355 l 721 371 l 717 375 l 713 380 q 665 334 686 345 l 671 325 m 182 701 q 174 604 171 657 q 185 599 182 604 q 195 586 189 591 l 208 575 l 222 564 l 251 541 l 252 541 l 252 571 q 250 574 252 573 l 231 593 q 211 610 220 604 q 180 643 190 628 q 181 657 174 652 q 194 654 187 661 l 203 642 q 213 632 208 636 l 231 615 l 250 599 l 254 595 l 257 609 l 260 621 q 257 629 260 625 l 202 681 l 193 690 l 182 701 m 269 823 q 235 795 254 816 q 208 760 215 775 l 214 754 l 222 748 q 247 724 237 734 l 265 705 l 284 686 l 291 695 l 297 705 q 298 707 298 705 q 298 709 298 708 q 239 776 271 751 q 237 790 231 782 q 249 790 241 796 q 304 730 283 764 l 311 720 q 333 741 323 731 l 326 753 l 318 766 l 293 804 q 278 815 286 814 q 269 823 270 816 m 827 330 l 824 322 q 803 282 817 301 l 787 262 l 772 242 q 749 219 763 231 q 736 214 744 214 q 725 221 729 215 q 711 233 721 227 q 703 240 707 236 l 684 258 l 665 278 l 645 301 l 625 324 l 597 357 l 594 361 l 591 365 q 586 385 583 372 q 600 398 587 394 q 609 402 606 400 q 654 457 637 423 q 715 578 688 522 q 729 667 736 622 q 694 725 722 705 l 688 728 l 683 731 l 675 736 l 667 740 q 520 768 600 770 q 419 750 465 767 q 326 684 358 728 q 290 591 296 645 l 290 583 l 288 576 q 290 561 288 567 l 290 559 l 290 556 l 289 552 l 288 548 l 289 530 q 316 443 293 480 l 321 434 l 325 426 q 328 423 326 424 q 338 409 336 419 q 342 400 340 404 q 344 385 347 393 q 332 374 341 376 q 218 289 263 351 q 174 149 171 223 q 221 35 177 83 q 317 -28 258 -6 q 546 -41 425 -69 q 727 39 639 -20 q 755 33 743 50 q 820 -31 781 -5 q 857 -33 838 -43 l 876 -24 l 893 -15 q 956 16 928 6 l 961 18 l 966 20 q 910 76 935 44 q 872 141 882 111 q 871 148 871 143 l 871 155 l 871 157 l 871 160 q 872 178 865 169 l 883 192 l 893 206 l 904 221 l 914 236 q 932 269 926 254 l 935 273 l 938 278 l 939 280 q 939 282 939 282 l 933 288 q 927 294 930 292 q 901 304 913 300 q 839 333 865 315 l 835 335 l 830 338 l 827 330 m 33 270 l 36 293 q 99 397 47 353 q 178 450 127 422 l 181 452 l 184 453 l 180 459 q 149 531 158 487 q 138 655 134 594 q 210 823 145 751 q 270 866 231 848 q 374 897 322 892 q 435 897 397 899 l 480 895 l 525 891 q 534 890 529 891 l 544 887 q 568 888 555 897 q 572 884 570 886 l 576 879 l 578 875 l 582 871 q 591 865 585 869 q 620 846 604 858 l 633 835 l 647 824 l 660 813 l 673 802 q 689 785 681 795 l 695 774 l 701 764 q 709 755 705 760 q 765 667 757 720 q 758 593 770 631 q 673 418 725 490 q 629 374 652 391 l 629 373 l 627 372 l 633 364 l 640 357 l 646 361 l 650 365 l 660 372 q 669 380 665 376 l 689 406 l 709 430 l 716 439 l 724 446 q 739 452 730 454 q 751 441 748 450 q 764 429 755 433 l 806 404 l 831 390 q 839 372 840 385 l 874 355 l 910 337 q 932 328 918 333 l 943 323 l 954 319 q 972 305 964 314 q 979 276 985 293 q 975 268 977 271 l 913 175 l 909 169 l 904 163 q 909 144 912 155 l 910 142 l 911 139 q 993 44 945 82 q 1013 33 999 39 q 1024 18 1020 29 l 1024 14 q 1007 -2 1021 3 q 869 -64 917 -37 q 848 -73 859 -68 q 807 -69 827 -81 l 802 -66 l 796 -62 l 779 -46 l 762 -31 q 747 -14 756 -24 l 734 2 l 731 1 l 697 -18 q 663 -36 677 -29 q 475 -87 572 -79 l 458 -89 l 412 -89 l 410 -88 l 407 -88 q 283 -58 338 -83 q 177 24 215 -26 q 162 39 169 35 q 95 94 125 62 q 37 205 47 143 l 33 229 l 33 270 m 368 1038 q 370 1022 378 1031 q 365 1011 367 1019 l 361 998 l 357 986 q 359 971 354 976 q 355 960 363 965 q 345 961 350 956 q 340 984 336 970 l 345 1002 l 349 1021 q 361 1038 353 1031 l 368 1038 m 759 926 l 758 925 q 755 922 756 923 l 739 913 l 723 903 l 711 894 l 699 885 l 696 883 l 692 882 q 683 886 687 880 q 684 896 680 892 l 694 905 q 705 912 701 909 l 725 925 l 745 937 q 755 937 751 939 q 760 927 760 934 l 759 926 m 597 1025 l 596 1024 q 576 979 587 994 l 572 972 l 568 966 q 557 962 563 959 q 552 973 548 965 q 558 984 555 980 q 569 1000 564 990 l 573 1009 l 577 1018 l 578 1023 l 579 1028 q 590 1035 581 1036 q 597 1026 597 1034 l 597 1025 m 208 911 q 197 902 208 897 q 182 910 189 905 l 176 916 l 170 922 q 146 942 160 930 q 144 955 140 948 q 156 957 149 962 q 180 936 168 947 l 185 930 l 191 926 q 203 918 197 920 q 206 914 205 917 l 207 913 l 208 911 m 216 1013 q 229 1021 218 1025 q 243 1006 239 1017 q 264 982 250 992 q 272 975 269 979 q 271 963 277 969 q 259 964 265 958 l 252 969 l 246 975 q 233 990 237 983 l 231 994 l 229 999 q 221 1006 225 1004 q 218 1008 220 1006 l 218 1010 l 216 1013 m 627 939 q 617 949 613 939 q 640 981 623 964 l 656 996 q 668 996 663 1002 q 667 983 675 989 l 659 975 l 651 968 q 633 945 639 956 q 630 941 633 943 l 628 939 l 627 939 m 378 121 q 397 98 384 106 q 378 121 392 111 m 465 91 q 458 98 460 95 q 452 107 455 102 l 447 116 l 446 117 l 444 121 q 440 125 441 123 q 430 125 435 128 l 429 125 l 416 123 l 401 121 l 416 104 l 430 87 q 435 84 432 84 q 473 84 453 81 l 465 91 m 459 130 q 464 123 463 125 q 491 91 471 106 l 493 90 q 494 89 494 89 l 508 94 l 522 99 l 507 111 q 494 121 500 117 q 477 151 481 135 l 465 143 l 454 136 l 459 130 m 570 128 q 562 128 565 127 l 558 131 l 555 134 l 546 140 q 513 174 527 154 l 509 179 l 505 184 l 498 174 l 491 164 l 492 161 l 494 158 q 507 134 496 143 l 522 121 l 536 110 q 538 109 537 109 q 541 110 541 109 l 566 124 l 568 125 l 570 127 l 570 128 m 378 164 q 425 161 406 153 q 463 186 447 170 q 476 206 473 195 l 478 214 l 479 222 l 475 227 l 471 233 l 469 235 q 467 235 468 235 l 463 233 l 458 231 q 451 224 454 227 q 431 216 440 212 q 416 214 425 219 q 378 164 389 196 m 458 50 q 401 56 421 50 q 339 132 345 73 q 356 201 336 167 q 408 248 376 235 l 418 251 l 429 254 l 439 260 l 449 266 l 455 269 q 490 264 475 279 l 528 225 l 568 185 l 587 166 l 606 147 l 610 145 q 619 128 621 139 q 606 112 618 115 l 605 111 l 604 111 q 592 99 602 104 l 564 83 l 537 68 q 458 50 498 48 m 564 614 q 551 635 562 625 q 529 644 540 644 l 547 629 l 564 614 m 444 524 q 461 498 450 513 l 471 487 l 481 475 l 493 482 l 484 490 l 475 498 l 473 502 l 469 505 q 463 511 465 509 q 455 526 452 517 l 449 526 l 444 524 m 551 541 q 528 564 543 553 l 515 574 l 503 584 l 498 572 l 494 561 q 541 529 520 543 q 551 541 544 532 m 486 513 l 496 504 l 507 494 q 528 517 519 508 l 513 528 l 498 538 l 492 541 l 486 545 q 481 544 483 545 l 473 537 l 465 531 l 486 513 m 439 560 l 444 560 q 448 562 447 561 q 471 600 469 576 l 471 614 l 471 629 q 441 595 452 616 q 435 559 430 575 l 439 560 m 505 642 l 505 631 l 505 620 q 519 593 505 603 l 531 584 l 543 574 l 551 567 l 561 558 l 566 583 q 566 586 567 585 l 558 595 l 550 604 l 532 620 l 513 635 l 510 640 l 506 644 l 505 642 m 603 595 q 562 500 603 547 q 498 441 543 478 q 471 444 484 431 l 469 446 l 466 447 l 461 449 q 456 452 458 450 l 444 465 l 431 478 q 399 549 407 504 q 400 595 395 574 q 439 650 407 627 q 521 680 478 679 q 575 663 554 680 q 602 609 598 644 l 603 595 z "},"'":{"ha":290,"x_min":-22,"x_max":262,"o":"m 149 920 q 149 920 150 920 l 149 920 m 220 846 q 215 764 214 798 q 195 764 206 763 l 185 764 l 175 764 q 162 857 172 817 l 157 878 l 153 900 q 152 903 153 901 l 152 908 q 150 916 151 914 l 149 917 l 150 918 l 150 918 l 150 919 l 174 923 q 198 926 187 925 q 203 926 199 926 l 207 927 l 212 927 q 228 928 223 928 l 229 927 q 224 886 225 911 l 223 876 l 222 865 q 220 846 221 853 m 133 777 q 118 787 123 783 l 117 788 l 115 789 l 112 791 q 113 795 113 793 l 113 796 l 112 798 l 117 795 l 122 793 q 132 788 125 791 l 137 785 l 142 783 q 148 779 144 782 l 151 777 l 154 775 l 155 767 q 133 777 140 773 m 108 820 l 111 819 q 140 806 127 814 q 145 803 142 804 q 151 801 149 802 l 153 787 q 149 791 150 790 l 141 794 l 134 798 l 126 801 l 119 805 l 117 806 l 115 808 q 110 811 111 810 q 109 814 110 812 l 108 820 m 104 846 q 124 834 111 840 l 130 831 l 136 828 q 149 823 143 824 l 150 811 l 150 811 l 148 812 l 144 815 l 141 817 q 134 821 137 820 q 120 827 128 824 q 117 827 119 827 l 113 828 q 106 831 108 829 l 104 846 m 114 867 l 120 863 l 127 859 q 143 852 136 853 l 146 833 q 136 839 142 835 l 130 842 q 125 844 127 843 q 101 861 109 852 q 96 878 99 869 l 114 867 m 87 905 q 98 901 93 903 l 104 899 l 109 897 q 119 892 115 895 l 127 886 q 136 882 132 884 l 136 882 l 140 863 q 134 867 138 864 l 131 869 l 128 870 l 117 878 l 106 884 l 99 888 l 92 892 l 87 905 m 79 947 l 83 946 q 90 943 87 944 l 94 940 l 98 938 q 106 934 102 935 q 121 924 115 931 q 129 920 124 920 q 132 895 127 911 l 127 899 l 122 902 q 111 907 117 905 q 83 920 92 914 q 75 948 78 936 l 79 947 m 101 968 q 114 960 106 965 l 121 957 l 127 954 l 134 949 l 140 945 l 146 942 l 151 939 l 136 937 l 135 937 q 123 947 130 943 l 116 951 q 109 954 111 953 l 105 956 l 101 958 q 94 963 96 962 q 90 964 93 963 l 86 964 l 83 966 q 100 969 91 968 l 101 968 m 115 970 q 133 974 121 971 l 139 972 q 148 966 143 970 l 156 961 q 183 944 165 954 l 163 941 q 153 949 159 945 l 146 953 l 140 957 q 127 964 136 960 l 121 967 l 115 970 l 115 970 m 150 977 q 159 972 154 976 l 164 970 l 168 967 l 175 964 l 182 961 q 194 954 189 957 l 204 946 l 200 946 l 195 945 q 193 949 195 948 q 161 969 172 962 l 155 973 l 149 977 l 149 977 l 149 977 l 150 977 m 243 945 q 237 951 241 949 q 216 962 228 954 l 205 969 q 195 975 199 973 l 189 979 l 182 983 q 169 990 174 988 q 159 998 168 998 q 132 995 149 998 l 118 991 q 104 989 110 990 q 83 985 91 987 q 62 978 71 983 q 58 972 59 975 q 52 961 50 968 q 68 897 55 939 q 68 893 68 896 q 71 890 69 891 l 74 882 q 83 842 79 865 l 87 821 l 91 802 q 87 791 84 798 q 100 776 91 783 q 108 770 103 774 l 117 765 q 134 755 126 758 q 161 743 146 750 q 173 745 168 740 l 185 745 l 197 744 q 222 746 211 744 q 225 747 224 746 q 235 757 235 747 l 235 760 q 242 853 234 796 q 244 873 243 861 l 245 884 l 245 894 q 253 934 247 920 q 252 943 255 939 q 243 945 248 946 m 28 972 q 6 980 19 971 l 1 984 l -4 987 q -16 991 -10 991 q -20 991 -18 992 q -22 988 -21 990 q -21 985 -22 986 q -18 983 -20 983 q -5 977 -12 981 l 0 974 l 5 970 q 31 963 19 962 q 35 968 36 964 q 28 972 33 973 m 24 1023 l 20 1027 q 13 1036 16 1033 q -6 1045 3 1044 q -12 1041 -12 1046 q -6 1036 -12 1036 q 2 1031 -3 1035 l 5 1029 l 9 1025 l 15 1019 l 21 1013 q 28 1013 24 1009 q 29 1016 29 1014 q 28 1019 30 1018 l 24 1023 m 60 1038 q 54 1045 58 1041 l 49 1051 l 46 1055 l 43 1058 q 39 1066 41 1063 q 37 1069 39 1068 q 33 1069 35 1069 q 31 1067 31 1069 q 30 1063 29 1065 q 39 1048 31 1057 l 45 1040 q 51 1033 49 1036 q 58 1031 53 1029 q 60 1038 62 1034 m 203 1080 q 201 1083 203 1082 q 197 1084 199 1084 q 194 1082 195 1083 q 193 1078 193 1080 q 192 1072 194 1075 l 190 1070 l 188 1068 q 186 1063 186 1066 l 185 1059 l 184 1057 q 177 1046 182 1052 q 166 1040 172 1042 q 163 1038 164 1040 q 163 1034 162 1036 q 165 1031 163 1032 q 169 1031 167 1030 q 193 1050 185 1036 l 194 1055 l 195 1059 q 200 1067 196 1061 q 203 1080 205 1073 m 219 1055 q 215 1048 218 1051 l 212 1046 l 208 1044 l 205 1042 l 201 1040 q 195 1034 197 1037 q 193 1030 193 1032 q 195 1027 194 1029 q 199 1025 197 1025 q 202 1027 201 1025 q 210 1034 205 1030 l 214 1036 l 218 1039 q 229 1055 228 1046 q 224 1059 229 1059 q 219 1055 219 1059 m 245 1008 l 239 1002 q 230 989 233 995 q 229 985 229 987 q 232 983 230 984 q 235 983 233 982 q 239 985 237 983 q 248 997 242 990 l 254 1003 l 259 1009 q 258 1015 262 1013 q 250 1014 253 1017 l 245 1008 z "},"(":{"ha":563,"x_min":35,"x_max":543,"o":"m 418 111 l 425 83 q 440 25 433 50 q 484 -85 460 -41 q 469 -87 479 -85 l 454 -91 q 429 -96 443 -92 l 417 -100 l 405 -103 q 276 356 268 138 l 278 420 q 281 429 282 423 l 281 431 q 279 434 280 433 q 302 589 283 528 l 312 623 l 323 656 q 350 721 336 693 q 356 731 351 722 q 369 755 362 743 q 397 804 389 789 q 408 809 403 804 q 429 812 415 809 l 439 814 l 449 814 l 473 814 l 477 814 l 481 815 q 438 741 459 787 q 411 667 422 707 q 378 422 378 563 q 412 139 378 275 l 418 111 m 301 -39 q 243 19 271 -14 q 228 34 237 26 l 212 49 l 212 50 l 212 52 q 269 13 232 36 l 298 -6 q 326 -25 315 -16 q 353 -79 340 -54 q 301 -39 323 -58 m 199 96 l 214 89 l 228 82 l 245 75 l 262 66 q 277 57 267 64 l 284 52 l 292 47 q 296 47 294 47 q 313 5 302 28 l 284 23 l 256 41 q 203 85 223 63 l 199 96 m 180 163 l 190 158 l 199 153 q 218 142 210 146 l 227 138 l 236 135 q 254 125 248 131 q 273 116 267 117 q 287 72 278 96 q 277 78 281 76 q 260 86 271 81 l 252 90 l 243 93 l 231 100 l 217 106 q 191 121 201 114 q 179 164 184 148 l 180 163 m 176 213 l 186 210 q 204 203 197 207 l 218 197 l 231 191 q 258 176 248 184 q 267 138 261 159 l 262 140 l 258 144 q 250 149 252 148 l 239 153 l 230 157 q 211 166 218 161 l 202 172 l 193 178 q 173 189 181 186 l 167 216 l 176 213 m 157 262 q 192 246 171 255 l 206 241 l 220 235 q 248 228 236 229 l 253 199 l 237 205 q 221 214 227 210 q 192 225 211 220 l 177 229 q 163 235 169 232 l 157 262 m 148 323 q 191 313 165 317 q 240 293 217 309 l 242 292 q 246 245 243 270 q 224 252 237 247 l 214 256 l 203 260 l 191 265 l 178 271 q 154 285 163 277 l 148 323 m 167 361 l 191 354 l 217 347 q 241 338 231 343 l 241 314 l 239 316 q 205 328 224 325 l 190 331 l 174 334 q 145 342 157 337 l 142 368 l 167 361 m 136 424 q 157 417 144 420 l 169 414 l 180 411 q 243 383 214 401 l 241 357 q 204 369 224 364 q 195 371 203 369 l 186 373 l 178 375 q 140 384 153 380 l 138 398 l 136 424 m 132 465 q 165 455 143 460 l 181 451 l 197 446 q 199 445 198 446 l 201 444 l 203 444 l 209 441 l 215 439 q 245 429 233 433 l 243 402 q 222 413 234 408 q 200 422 214 417 q 184 428 193 425 l 168 433 q 135 443 146 438 l 134 446 l 132 465 m 130 526 q 160 517 142 522 l 191 509 q 250 486 228 499 l 246 446 l 225 454 l 204 462 q 186 467 196 465 l 168 472 q 132 484 144 477 l 130 505 l 130 526 m 130 575 q 156 567 139 570 l 170 565 q 183 562 178 563 l 200 555 l 217 549 q 252 536 239 540 q 256 533 253 534 l 252 506 q 243 512 247 510 q 227 518 237 515 l 219 520 l 211 522 l 190 528 l 170 532 q 130 545 146 538 l 130 575 m 139 625 l 144 621 q 157 614 152 616 l 167 610 l 178 607 q 199 600 192 603 q 216 590 206 597 l 224 584 l 233 578 q 246 573 236 577 l 254 570 l 262 567 l 259 552 q 232 562 248 555 l 218 567 l 205 572 q 165 584 183 581 l 157 585 l 149 587 q 132 593 138 589 q 130 597 132 595 l 133 628 l 139 625 m 140 678 q 157 671 146 675 l 167 669 l 176 666 l 202 658 l 229 649 q 277 623 259 638 l 273 610 l 266 585 l 257 589 l 248 593 q 230 603 241 596 l 222 608 l 212 613 q 189 622 204 617 q 182 626 186 626 q 178 625 180 626 q 161 631 167 629 q 147 638 156 633 l 134 646 q 140 678 137 664 m 160 713 q 172 709 168 710 q 217 693 201 703 l 220 690 l 223 689 q 229 685 226 686 l 244 678 l 260 671 q 290 657 279 664 l 283 640 q 227 668 262 656 q 208 674 220 671 l 199 676 l 189 680 q 179 682 187 680 l 172 684 l 165 686 q 144 699 147 692 l 149 718 l 160 713 m 160 755 q 200 739 176 752 l 220 727 q 239 718 231 721 q 255 712 245 715 l 273 707 q 305 693 294 701 l 296 674 q 279 683 289 678 l 260 691 q 224 709 236 701 q 187 725 203 722 q 170 730 180 726 l 153 734 l 160 755 m 197 806 l 208 801 q 249 775 222 795 q 267 764 256 769 l 287 754 q 324 732 312 742 l 312 709 q 287 720 303 714 l 274 723 l 262 727 q 239 738 252 731 l 214 751 q 166 771 184 767 q 186 811 176 793 l 197 806 m 213 850 q 243 833 222 840 q 261 827 252 830 l 269 825 l 277 823 q 321 798 301 817 l 328 792 l 334 786 q 347 776 340 780 l 332 748 q 300 766 321 757 l 283 774 q 267 783 274 779 q 251 795 260 787 l 243 802 l 235 808 q 225 812 231 810 l 215 817 q 195 826 201 822 q 213 850 203 839 m 231 871 q 235 881 235 875 l 241 878 l 247 876 l 256 871 l 265 865 q 284 856 277 859 l 290 854 l 294 853 q 303 850 299 852 l 307 847 l 310 845 q 317 840 315 842 l 331 835 l 344 830 q 370 819 360 825 l 355 791 q 340 802 348 795 l 328 814 q 299 837 311 831 q 281 842 293 840 l 271 844 l 260 846 q 224 863 233 851 l 227 867 l 231 871 m 328 902 q 370 892 347 901 l 389 883 q 409 874 401 877 q 424 869 415 872 l 441 863 q 475 849 462 855 l 465 849 l 450 849 l 434 848 l 422 846 l 411 844 l 409 844 l 406 845 l 404 846 l 403 846 l 401 846 l 393 846 l 391 846 q 366 859 380 852 l 354 864 l 343 868 q 328 876 338 871 l 321 880 l 313 884 l 305 887 l 296 890 q 279 897 286 893 q 270 901 278 897 q 300 903 281 903 q 315 903 307 903 l 321 902 l 328 902 m 530 814 q 538 825 537 819 q 534 838 538 832 q 530 850 534 844 q 469 890 511 873 l 450 897 l 432 903 q 397 916 410 911 q 354 934 366 931 q 309 935 339 937 q 289 934 302 934 l 279 934 l 269 934 q 234 920 247 932 q 220 914 227 920 q 216 900 215 908 q 207 895 210 899 q 107 690 130 816 q 99 459 92 604 q 173 68 109 244 q 172 63 172 66 q 172 40 163 52 q 195 18 179 32 l 207 7 q 218 -5 214 1 q 243 -33 234 -24 q 271 -60 258 -49 q 296 -79 280 -67 l 309 -89 l 322 -98 q 336 -107 327 -102 l 350 -117 q 375 -138 368 -128 q 381 -145 377 -142 l 383 -146 q 405 -142 395 -153 q 414 -136 410 -140 l 426 -133 l 438 -130 q 464 -123 452 -125 l 471 -122 l 479 -121 q 494 -119 488 -119 l 502 -119 l 509 -119 q 522 -118 516 -119 q 533 -108 530 -117 q 532 -93 536 -100 l 528 -85 q 519 -78 525 -80 q 479 20 497 -40 q 465 72 473 41 l 458 98 l 452 122 q 413 385 415 262 q 432 610 410 513 q 445 661 438 636 q 465 720 454 693 q 530 814 494 793 m 85 899 q 75 899 81 898 l 64 903 q 43 907 51 908 q 37 904 39 907 q 35 897 35 901 q 37 892 35 894 q 43 890 39 890 q 64 886 50 891 l 75 882 q 85 882 81 881 q 94 891 94 882 q 85 899 94 899 m 120 958 q 108 966 115 958 l 103 973 q 97 978 100 977 q 91 981 96 979 l 84 983 q 77 993 77 987 q 68 1001 77 1001 q 60 993 60 1001 q 85 965 59 977 q 93 959 90 963 l 96 955 l 100 951 q 120 941 108 941 q 128 950 128 941 q 120 958 128 959 m 143 1050 q 137 1053 140 1053 q 132 1050 134 1053 q 129 1044 129 1048 q 131 1038 128 1041 q 146 1017 140 1027 q 154 993 154 1004 q 163 985 154 985 q 171 993 172 985 q 162 1023 171 1007 q 143 1050 155 1036 m 362 1059 q 342 1031 352 1048 q 336 1015 338 1021 q 334 999 333 1006 q 338 994 335 996 q 344 994 341 992 q 349 997 347 994 q 351 1004 351 1000 q 353 1015 350 1008 l 357 1021 l 359 1024 l 360 1026 q 374 1046 368 1040 q 374 1059 380 1053 q 362 1059 368 1065 m 435 1019 l 432 1014 q 424 1003 427 1007 q 405 992 414 990 q 395 986 397 994 q 400 976 392 978 q 431 987 417 972 q 443 1000 436 991 l 448 1007 l 453 1014 q 450 1025 458 1021 q 438 1023 443 1029 l 435 1019 m 539 969 q 530 975 538 977 q 523 965 522 973 q 519 950 524 957 q 508 939 515 945 q 507 928 501 934 q 520 927 513 922 q 539 969 543 945 z "},")":{"ha":598,"x_min":-14,"x_max":608,"o":"m 429 -134 q 420 -137 425 -134 q 412 -138 419 -138 l 408 -139 l 404 -140 l 391 -143 l 379 -145 q 334 -153 349 -152 l 347 -117 l 347 -117 q 357 -112 354 -119 q 353 -101 359 -104 q 389 19 382 -23 q 399 408 422 201 q 301 648 388 515 l 295 658 l 288 668 q 286 671 288 670 q 251 721 266 702 q 208 764 229 748 l 235 771 q 243 773 239 770 l 245 774 q 269 777 255 775 l 294 779 l 295 777 l 297 776 q 302 774 300 774 q 440 612 385 722 q 510 407 485 525 q 431 -134 570 134 l 429 -134 m 304 -136 q 274 -101 288 -114 l 253 -81 l 232 -62 l 226 -56 l 219 -51 q 214 -48 217 -50 l 208 -46 q 199 -41 201 -43 l 199 -36 l 209 -9 l 228 -21 l 247 -32 q 282 -60 269 -45 l 290 -68 l 299 -79 q 317 -98 310 -92 l 304 -136 m 290 10 q 317 -9 302 4 l 328 -20 l 340 -30 q 324 -79 335 -50 l 317 -71 l 310 -64 l 301 -54 l 292 -45 q 273 -27 281 -34 q 245 -9 262 -18 l 230 -1 l 215 7 l 227 46 q 290 10 251 28 m 245 111 q 271 94 256 103 l 298 77 q 349 42 331 58 q 357 40 352 39 l 350 4 l 348 -3 l 346 -12 l 337 -3 l 329 5 q 310 20 319 15 l 290 30 l 270 39 q 233 64 247 52 q 245 111 240 90 m 300 448 l 286 456 q 254 471 266 467 q 243 514 249 494 q 262 506 250 510 l 271 503 l 280 500 q 332 477 307 491 l 342 470 l 352 463 q 361 416 357 443 q 316 440 335 431 l 300 448 m 326 397 l 310 403 l 299 406 l 288 409 q 269 420 275 413 q 264 422 267 422 l 262 432 l 260 441 l 258 451 q 288 436 269 446 l 302 428 l 316 421 q 365 395 335 412 l 366 386 l 367 376 q 343 390 355 385 l 326 397 m 328 342 l 312 349 q 302 352 309 351 l 290 356 q 270 365 275 360 q 267 400 269 385 q 289 391 275 395 l 300 389 l 311 385 q 370 351 345 372 l 372 317 l 359 327 q 345 334 351 332 l 328 342 m 364 242 q 342 253 355 247 l 330 258 l 318 262 q 275 288 289 275 q 272 290 274 290 q 271 343 273 319 q 280 340 276 341 q 329 323 302 334 q 351 310 339 318 l 362 302 l 372 295 q 373 237 374 268 l 364 242 m 368 121 q 359 56 364 87 q 304 92 341 71 l 277 110 q 250 128 261 119 q 260 180 256 155 q 277 172 265 177 q 296 161 285 168 l 305 156 l 315 151 l 328 143 l 341 136 q 368 121 358 125 m 326 163 q 301 178 312 171 l 294 182 l 285 186 q 269 194 274 191 q 262 196 267 197 q 271 271 269 235 q 297 255 281 262 l 311 248 l 326 242 l 330 240 l 336 237 q 348 232 343 235 q 373 217 364 224 q 369 139 372 182 l 358 145 l 348 151 q 326 163 334 160 m 233 545 q 220 580 227 562 q 278 552 245 572 l 306 536 q 334 520 323 526 l 334 520 q 345 489 339 507 q 311 507 325 500 q 294 512 307 509 l 283 515 l 272 519 q 240 538 243 528 q 233 545 239 544 m 186 654 q 212 644 197 650 l 225 638 l 237 633 q 267 615 249 627 l 281 605 q 296 595 290 599 l 301 587 q 322 546 312 569 l 296 562 l 269 577 q 212 600 237 593 q 186 654 200 627 m 133 743 q 183 722 153 739 q 207 709 192 718 l 218 702 l 229 696 l 231 694 l 233 692 q 277 628 253 667 l 260 640 q 242 649 250 646 l 226 656 l 209 663 q 174 675 189 672 q 133 743 155 710 m 121 762 q 75 823 99 792 q 94 806 86 812 l 106 798 l 120 789 q 145 770 136 779 q 157 754 145 758 l 162 752 l 165 749 q 123 762 142 760 l 121 762 m 67 892 q 133 843 91 871 l 167 820 q 201 797 187 807 q 182 793 189 794 q 174 790 178 793 q 164 800 166 798 q 140 817 155 806 l 127 825 l 115 833 q 93 852 106 840 l 82 862 l 71 871 q 47 885 64 878 l 67 892 m 94 899 q 136 897 117 904 q 174 873 149 892 l 211 844 l 248 816 l 256 810 l 245 808 q 222 802 237 806 q 188 827 208 813 l 153 849 q 86 898 110 878 l 94 899 m 546 413 q 318 805 484 701 q 300 815 313 817 l 288 825 l 277 835 q 255 853 262 848 l 233 870 l 212 886 q 167 918 185 906 q 114 939 133 940 q 68 928 98 939 l 46 920 q 24 914 34 916 q 9 911 16 917 l 6 909 l 5 908 l 5 907 q -9 896 -5 905 q -5 878 -14 886 q 3 871 -2 875 q 6 852 -1 861 q 231 396 206 622 q 164 -32 253 201 q 166 -45 162 -39 q 169 -58 164 -52 q 184 -71 174 -66 l 193 -75 q 203 -81 199 -78 q 223 -100 211 -87 l 233 -110 l 243 -119 q 271 -149 256 -131 q 294 -182 281 -162 q 317 -189 302 -195 q 382 -180 347 -189 l 397 -177 l 412 -174 l 421 -172 l 429 -170 q 442 -174 435 -174 q 453 -165 449 -172 q 546 413 608 123 m 61 1087 q 50 1090 57 1095 q 46 1078 42 1086 l 52 1065 l 58 1052 q 62 1023 63 1036 q 70 1015 61 1015 q 79 1023 78 1015 q 75 1056 81 1038 q 68 1072 72 1063 l 61 1087 m 130 1113 q 118 1116 125 1120 q 115 1104 111 1112 q 122 1073 121 1091 l 122 1057 l 122 1040 q 125 1034 122 1036 q 130 1031 127 1031 q 136 1034 134 1031 q 139 1040 139 1036 l 139 1059 l 139 1077 q 130 1113 137 1098 m 205 1091 q 178 1063 186 1084 q 173 1023 173 1048 q 182 1015 174 1015 q 191 1023 191 1015 l 191 1029 l 191 1037 q 193 1053 191 1046 q 210 1074 197 1070 q 215 1086 218 1077 q 205 1091 213 1094 m 364 1005 q 332 994 350 1008 l 326 989 l 318 984 q 302 980 310 979 q 296 978 298 981 q 294 972 294 976 q 296 966 294 968 q 302 963 298 963 q 332 974 317 962 l 336 976 l 338 979 l 345 984 q 359 989 353 990 q 370 996 368 987 q 364 1005 372 1004 m 407 928 q 380 926 396 930 l 367 922 q 353 920 359 920 q 345 911 345 920 q 353 903 345 903 q 366 905 359 903 l 378 908 q 402 911 393 913 q 412 919 410 911 q 407 928 415 927 m 475 875 q 454 863 469 867 q 430 860 444 860 q 424 857 427 860 q 422 852 422 855 q 424 846 422 848 q 430 843 427 843 q 461 847 447 843 q 488 863 478 852 q 490 869 490 865 q 487 875 490 872 q 481 878 485 878 q 475 875 478 878 z "},"*":{"ha":503,"x_min":-37,"x_max":492,"o":"m 408 780 q 395 779 400 779 l 387 780 l 378 781 q 369 779 374 781 l 364 779 l 360 778 q 351 770 353 777 q 353 759 349 763 q 355 751 353 755 q 367 739 359 746 l 373 732 l 379 726 l 386 720 l 381 715 l 376 711 q 366 701 372 707 l 355 690 l 351 686 l 346 682 q 336 673 340 676 l 330 667 l 323 659 q 321 664 323 661 l 321 666 l 321 667 l 320 667 q 317 677 319 671 l 315 687 l 312 696 l 309 705 q 304 723 306 716 q 297 731 304 731 q 288 724 290 731 q 286 718 286 722 q 283 713 286 717 l 282 711 l 281 709 l 277 696 l 272 682 l 269 674 l 265 665 q 258 648 260 655 l 245 656 l 231 665 q 218 671 226 668 l 205 677 q 212 690 208 682 q 217 692 216 689 q 217 699 219 696 q 226 711 222 706 l 232 720 l 238 728 q 251 743 245 738 q 253 755 256 749 q 243 761 250 761 q 234 762 238 764 q 230 760 232 761 l 227 758 q 218 756 223 756 q 182 751 205 756 q 178 783 180 764 q 177 789 178 785 l 176 796 q 174 811 174 806 q 210 812 191 812 l 220 812 l 229 814 q 248 815 241 815 q 256 820 254 814 q 256 830 258 825 q 251 840 256 836 q 241 855 248 847 l 236 863 l 230 870 l 226 875 l 222 881 q 213 891 217 887 q 218 894 216 892 q 226 905 221 898 l 230 910 l 235 916 l 236 917 l 238 920 q 242 924 240 922 q 252 930 248 930 q 257 934 254 931 q 264 920 260 928 l 268 913 l 271 906 q 275 897 273 903 l 279 887 l 281 883 l 284 880 q 289 872 288 875 q 296 865 291 867 q 305 867 301 863 l 306 869 q 307 882 311 875 q 315 889 314 881 l 319 913 l 323 938 l 323 938 l 325 937 q 361 936 347 937 l 370 934 l 380 932 l 374 916 l 369 900 q 364 888 367 895 l 359 876 q 349 851 352 861 q 353 840 348 844 q 362 838 357 837 q 370 837 366 836 q 383 842 375 838 l 390 846 l 397 850 q 420 861 406 856 q 422 828 422 840 l 421 804 q 420 781 420 791 l 408 780 m 291 680 q 294 686 292 682 l 298 672 l 297 673 l 290 675 l 291 680 m 296 654 l 293 656 q 287 659 289 656 q 283 661 286 660 l 286 665 l 294 663 l 302 660 l 304 654 l 300 654 l 296 654 m 102 752 q 99 751 100 753 q 98 747 98 750 q 99 744 98 745 q 102 742 100 742 q 149 722 122 739 l 159 715 l 171 708 q 193 696 184 700 l 189 686 q 163 703 179 692 l 150 711 l 137 718 q 113 732 127 724 l 88 744 l 88 744 q 94 750 91 746 l 100 757 q 102 762 101 759 l 121 752 q 126 750 123 751 l 131 747 q 142 742 138 744 q 165 739 156 736 l 165 736 q 168 732 165 734 q 172 729 170 729 l 172 729 q 176 729 174 728 q 180 729 178 728 l 189 731 l 197 733 q 216 735 208 735 l 218 735 q 207 720 213 728 q 198 705 202 713 q 174 718 188 709 l 163 724 l 151 732 q 102 752 123 749 m 43 827 l 57 820 l 71 812 q 100 800 87 804 q 140 783 117 794 q 151 777 145 781 l 156 773 l 161 769 l 161 760 l 161 760 l 161 760 l 161 759 l 161 759 q 160 759 161 759 l 159 758 l 157 758 q 159 759 159 758 q 157 760 158 759 q 149 763 154 761 l 146 764 l 142 766 q 104 786 123 774 q 73 802 91 793 l 58 810 l 43 817 l 43 827 m 43 851 l 68 838 l 95 823 q 146 793 126 807 q 112 807 128 802 q 77 822 96 813 l 60 831 l 43 839 l 43 851 m 43 889 q 66 871 51 882 l 78 862 q 90 852 85 857 q 151 810 111 836 q 155 809 153 809 l 157 801 l 159 785 q 150 791 154 789 l 150 791 q 155 795 153 791 q 153 801 155 799 q 98 833 132 816 l 71 848 q 43 863 54 857 l 43 889 m 79 901 q 134 861 96 880 q 173 836 149 854 l 178 833 l 168 832 q 161 829 164 832 l 161 829 q 157 830 159 830 q 106 866 125 851 q 93 877 101 871 l 79 886 q 52 909 61 899 l 58 907 l 65 905 l 79 901 m 92 975 q 121 956 100 966 l 129 952 l 137 949 q 151 941 146 945 q 165 934 155 939 l 172 930 l 178 926 q 202 906 194 918 q 201 902 201 904 q 195 907 199 906 q 169 919 184 908 l 162 924 l 156 928 q 144 937 149 934 l 127 945 l 112 954 l 105 957 l 98 960 q 85 967 90 964 q 92 975 87 970 m 223 835 q 210 833 216 833 l 197 833 l 189 838 l 180 844 l 172 849 l 165 855 q 151 865 157 862 l 136 873 l 121 880 q 95 899 105 888 q 100 905 99 900 q 127 887 111 896 l 142 880 l 156 873 l 165 869 l 173 864 q 190 855 184 858 l 194 853 l 198 851 q 207 846 203 848 q 223 835 218 840 m 182 871 q 163 882 174 876 l 153 886 l 142 891 q 104 915 117 903 q 102 921 104 918 q 98 929 100 924 l 96 933 l 94 938 l 104 932 l 115 928 q 134 918 127 922 q 148 909 140 915 l 155 904 l 161 899 q 191 886 178 888 l 191 886 q 195 880 192 882 q 201 874 197 878 l 203 871 l 206 867 l 212 860 l 218 852 l 220 850 q 201 861 214 854 l 192 866 q 182 871 186 869 m 121 1001 q 123 999 122 1000 q 143 982 130 991 l 153 973 l 164 965 q 177 955 170 960 l 191 945 q 217 925 208 934 l 209 914 q 172 942 198 928 q 123 968 153 952 q 117 971 121 969 l 111 975 q 99 982 102 979 q 118 999 108 991 l 121 1001 m 146 1015 q 154 1008 149 1012 l 157 1004 l 161 1001 l 167 995 l 173 989 q 178 986 174 988 q 179 985 177 989 l 182 983 q 186 981 184 981 l 186 981 q 201 970 191 976 l 208 966 l 216 962 l 227 954 q 238 947 233 949 q 223 933 231 943 q 177 970 209 947 l 165 979 l 153 987 q 130 1006 139 998 l 137 1010 l 144 1015 l 146 1015 m 196 1012 l 197 1014 q 248 970 210 991 l 262 962 l 277 954 q 303 933 293 944 l 300 914 l 297 895 q 292 907 295 899 l 290 913 l 287 919 l 282 928 l 278 937 q 267 954 273 948 q 262 957 264 956 q 256 962 260 961 q 239 970 248 964 l 231 976 l 223 981 l 217 985 l 211 989 q 199 996 203 993 q 195 998 197 998 l 194 998 q 195 1010 198 1003 l 196 1012 m 256 985 l 262 980 q 273 972 268 975 q 280 968 275 970 l 288 964 q 303 953 299 958 l 304 951 l 305 951 l 305 951 l 304 946 q 267 972 291 958 l 259 977 l 250 981 q 233 992 240 987 q 204 1020 212 1006 l 203 1021 q 252 989 224 1008 l 256 985 m 235 1038 q 281 1000 253 1021 l 304 983 l 328 966 q 332 966 330 965 q 334 968 333 966 q 334 972 335 970 q 332 975 334 974 l 312 990 l 291 1006 q 250 1038 266 1024 q 264 1037 258 1038 q 284 1024 273 1035 l 288 1019 l 293 1015 q 302 1006 298 1009 q 316 994 308 1000 l 332 981 q 362 957 352 966 l 361 957 q 326 959 347 959 l 325 959 l 323 958 l 322 958 q 319 960 321 960 q 317 968 319 964 q 294 987 309 977 l 287 990 l 280 994 q 267 1002 272 998 q 218 1036 237 1025 l 227 1037 l 235 1038 m 398 884 q 405 882 401 883 l 412 880 q 391 871 399 876 q 382 866 389 870 l 378 863 l 374 861 l 380 876 q 386 891 384 885 q 398 884 391 887 m 441 828 q 440 853 441 839 l 439 865 l 437 878 q 436 882 437 880 q 429 893 436 890 q 426 895 428 894 l 425 897 l 422 898 q 417 900 420 899 l 411 901 q 408 903 410 902 l 403 905 q 395 910 397 907 q 393 913 395 912 l 397 924 q 401 932 401 926 q 399 941 401 937 q 394 950 399 947 q 392 956 393 954 q 349 996 376 974 l 326 1015 q 303 1034 311 1027 l 299 1037 l 295 1041 l 287 1048 q 269 1059 277 1057 q 264 1059 267 1059 l 261 1059 l 258 1058 q 233 1058 250 1059 l 220 1057 l 208 1057 q 198 1048 199 1057 q 193 1048 196 1049 q 186 1046 189 1049 q 182 1039 183 1042 l 182 1036 l 180 1029 q 178 1023 178 1026 l 178 1019 l 176 1014 l 172 1019 l 167 1023 q 165 1025 167 1024 l 163 1027 q 159 1030 160 1029 q 149 1038 157 1040 q 141 1037 145 1040 q 132 1031 137 1034 l 121 1025 q 102 1013 109 1019 q 65 973 77 991 q 64 964 62 969 q 67 956 62 959 l 67 955 q 64 948 64 952 q 67 941 64 944 l 71 937 q 74 935 73 936 q 76 930 75 932 l 78 925 l 79 923 l 67 926 l 61 928 q 56 930 58 929 l 53 931 l 50 932 q 45 933 47 933 q 36 924 37 934 q 28 924 31 926 q 24 915 24 921 l 24 815 q 24 804 20 809 q 29 797 24 799 q 37 797 33 795 l 61 784 l 85 771 l 81 766 q 76 760 78 762 q 71 756 74 758 l 65 753 l 63 752 l 62 751 l 62 751 l 62 751 l 61 751 l 60 749 q 58 739 56 745 q 66 732 60 732 l 81 725 l 95 718 q 123 702 113 709 l 138 692 l 153 683 q 184 665 172 672 q 194 660 187 659 l 208 653 q 222 646 216 650 l 237 636 q 254 627 247 631 q 258 626 256 626 q 267 622 262 621 q 274 629 273 623 q 276 642 275 635 q 291 634 283 636 q 301 633 297 633 q 305 631 302 633 l 307 631 l 310 630 q 318 633 315 629 q 323 634 321 633 q 342 649 331 638 l 352 659 q 361 667 357 664 q 371 677 365 671 l 376 684 l 382 688 q 385 692 383 690 l 389 695 q 397 703 394 701 q 402 706 400 703 l 404 709 l 406 709 q 414 719 414 708 q 406 730 414 730 q 401 733 404 730 l 399 735 q 397 737 397 737 l 387 748 l 381 753 l 376 759 q 385 758 379 759 l 390 758 l 395 758 q 410 759 401 758 l 417 760 l 424 760 q 433 770 433 761 q 438 777 437 772 l 439 780 q 439 788 441 785 q 441 828 440 802 m 160 759 l 161 760 l 159 759 l 160 759 m 8 1011 q -1 1018 4 1015 l -11 1024 q -29 1037 -23 1031 q -33 1038 -31 1038 q -36 1036 -35 1038 q -37 1033 -37 1035 q -36 1029 -37 1031 q -16 1015 -29 1023 l -6 1009 q 3 1002 -1 1006 q 9 1004 7 999 q 8 1011 12 1008 m 32 1054 q 19 1063 24 1058 q 12 1063 16 1067 q 12 1056 9 1060 q 27 1044 19 1048 q 34 1047 31 1042 q 32 1054 37 1052 m 76 1074 q 69 1090 71 1079 q 68 1099 68 1094 q 68 1108 68 1103 q 66 1112 68 1110 q 63 1113 65 1113 q 60 1112 61 1113 q 58 1108 58 1110 q 60 1086 58 1095 q 69 1067 63 1073 q 76 1067 73 1063 q 76 1074 79 1071 m 426 1081 q 405 1069 416 1081 l 401 1063 l 397 1058 q 389 1048 391 1050 q 389 1040 386 1044 q 395 1040 393 1036 l 402 1048 l 409 1057 l 411 1059 l 412 1061 l 416 1065 q 426 1071 422 1070 q 431 1076 431 1071 q 426 1081 431 1082 m 472 1027 q 454 1021 463 1026 q 450 1019 452 1021 l 445 1015 q 437 1012 439 1011 q 433 1010 435 1012 q 431 1008 431 1010 q 431 1004 430 1005 q 434 1002 432 1002 q 452 1008 441 1000 q 463 1014 456 1012 q 475 1017 467 1016 q 478 1023 479 1019 q 472 1027 477 1029 m 488 969 q 475 966 483 970 q 465 964 470 964 l 460 964 l 454 964 q 450 959 450 964 q 454 954 450 954 l 459 954 l 464 953 q 473 954 469 953 l 477 956 l 480 958 q 488 959 484 959 q 492 964 492 958 q 488 969 492 968 z "},"+":{"ha":971,"x_min":11,"x_max":969,"o":"m 821 313 q 763 305 802 309 l 734 302 q 705 298 718 300 q 691 295 697 299 q 684 281 684 291 q 682 172 684 243 l 680 117 l 678 62 q 668 61 675 62 l 663 61 q 659 60 660 60 l 640 55 l 621 50 l 606 45 l 592 41 q 564 35 576 37 q 573 132 565 84 l 577 161 l 581 190 q 592 248 587 225 q 594 270 602 258 q 583 278 591 276 q 570 277 576 281 q 458 269 526 276 l 404 263 l 348 258 q 350 311 350 286 q 349 321 350 314 l 349 333 q 350 339 350 336 q 348 343 349 341 q 349 357 348 352 l 349 357 l 349 358 q 349 359 349 359 q 365 366 351 361 q 385 371 372 368 l 395 372 l 406 375 l 418 378 l 429 381 l 452 387 q 500 394 478 393 l 516 395 l 533 396 q 564 405 551 399 q 569 409 567 406 q 578 419 576 412 l 579 421 l 581 420 l 582 420 l 583 445 l 583 472 q 580 496 582 481 l 578 507 l 577 517 q 572 630 571 578 q 680 643 642 644 l 679 635 l 677 628 q 675 614 675 618 q 677 576 675 600 l 678 557 l 679 539 l 680 481 q 681 424 681 446 q 694 408 681 411 q 708 399 699 399 l 709 399 q 718 402 713 400 q 776 413 737 410 l 791 414 l 807 414 q 836 417 825 415 l 858 419 l 880 421 q 924 427 909 424 q 926 340 928 380 l 927 340 l 874 326 l 821 313 m 549 215 q 524 224 540 218 l 513 229 l 500 233 l 484 237 q 555 242 527 241 l 552 229 l 549 215 m 530 160 l 522 164 q 505 170 511 168 q 452 186 469 178 l 440 192 l 429 197 q 406 208 414 205 q 399 211 404 210 l 390 214 q 375 221 379 217 l 374 226 l 437 233 q 505 213 460 227 l 526 206 l 546 199 q 539 157 542 178 l 530 160 m 526 123 l 517 126 q 501 132 507 130 l 473 139 l 444 146 q 426 153 436 149 l 409 161 q 374 173 387 171 l 374 186 l 375 200 q 401 189 384 195 l 414 184 q 426 179 422 181 q 537 139 480 152 l 535 121 l 526 123 m 512 92 l 503 95 l 493 98 l 486 100 l 479 102 q 464 106 470 105 l 459 106 l 454 105 q 446 107 449 105 q 442 109 444 109 l 438 111 q 417 124 430 117 l 396 136 l 385 141 q 374 156 371 146 q 416 142 388 153 l 437 133 q 456 126 448 128 q 475 121 465 124 l 494 114 q 533 102 519 106 l 533 94 l 532 86 l 512 92 m 520 56 l 510 62 l 479 83 l 492 80 l 512 75 l 532 69 l 531 60 l 530 50 l 520 56 m 338 392 q 240 452 281 435 l 210 465 q 179 479 191 473 q 154 488 172 482 l 141 493 l 129 498 q 156 506 140 502 q 183 495 165 500 l 197 491 l 211 486 q 250 467 227 480 l 269 456 l 289 445 q 334 425 304 437 l 357 416 l 379 406 q 346 395 359 400 l 338 392 m 291 378 q 267 393 275 389 q 195 429 235 413 q 173 437 186 433 l 150 445 q 108 466 122 454 l 108 466 l 107 471 q 132 461 115 467 l 144 457 l 156 452 l 184 438 q 212 426 200 431 q 315 367 260 407 l 314 362 l 291 378 m 108 446 q 168 420 127 434 l 184 415 l 199 410 q 229 395 217 403 l 254 380 l 279 365 q 292 358 281 364 l 302 353 l 312 347 q 312 318 311 334 l 291 328 l 271 337 q 230 357 245 349 q 199 378 218 363 l 185 389 q 170 399 176 395 q 139 412 159 406 l 123 417 q 108 423 114 420 l 108 446 m 271 300 q 240 318 259 309 l 224 326 l 208 334 q 142 378 172 353 l 126 391 q 111 404 117 399 l 124 399 l 136 395 q 161 385 151 390 q 176 374 168 380 l 191 363 q 221 342 209 349 q 267 320 237 334 l 290 309 l 313 298 l 313 273 q 292 287 304 279 l 281 294 l 271 300 m 221 523 q 254 532 233 527 q 311 499 278 517 l 341 483 l 370 468 q 419 446 388 458 l 443 437 l 467 426 q 444 422 454 425 l 424 417 l 404 412 q 351 437 383 424 l 324 449 l 298 460 q 279 469 290 463 l 262 480 q 227 500 239 495 q 205 507 218 504 l 195 510 l 184 513 q 221 523 208 519 m 326 553 q 435 494 366 537 l 462 477 l 489 462 q 544 433 519 444 q 500 427 530 427 q 497 430 499 429 l 484 438 l 472 446 q 445 458 458 454 q 379 483 401 471 l 328 509 q 277 538 299 525 q 326 553 308 545 m 467 673 l 488 661 q 531 638 513 646 q 538 637 535 636 q 538 605 538 621 q 507 619 527 610 l 490 626 l 473 633 q 432 650 460 641 l 411 656 q 391 665 399 661 l 379 671 l 368 677 q 345 689 354 686 l 345 722 q 344 731 345 724 q 396 712 364 728 q 422 698 407 707 l 435 691 q 446 686 441 688 l 467 673 m 411 728 q 450 708 427 722 l 469 697 q 488 686 479 690 q 516 671 499 682 l 530 663 l 545 655 l 543 653 l 542 651 l 540 652 q 489 680 521 662 l 464 694 l 438 709 q 385 734 420 718 q 382 735 385 734 l 378 737 q 368 741 373 740 l 390 735 q 411 728 403 731 m 346 667 l 345 670 q 370 657 354 667 l 381 650 l 393 644 q 425 633 404 640 l 440 629 l 456 623 l 468 616 l 479 610 q 504 599 494 602 q 536 586 526 593 q 538 579 536 582 q 541 536 540 557 q 544 511 541 528 q 498 541 528 525 l 474 553 q 451 566 459 561 l 418 585 l 386 603 q 368 610 381 605 l 359 614 l 349 618 l 346 667 m 357 597 q 391 580 372 591 l 408 570 l 425 561 l 441 551 l 457 541 q 490 522 477 528 l 496 519 l 503 515 q 517 507 511 511 q 544 488 535 497 q 548 486 545 486 l 549 469 q 498 496 527 479 l 475 510 q 452 524 465 515 l 428 538 l 404 553 q 352 579 376 568 l 351 600 l 357 597 m 433 795 q 473 776 451 788 l 493 764 l 513 753 l 531 743 l 551 732 q 587 708 574 720 q 591 705 589 706 q 623 673 610 684 l 599 670 q 586 673 593 673 q 543 694 570 678 l 532 701 l 522 707 q 501 719 509 715 l 488 727 l 474 735 q 446 751 458 746 q 410 764 433 757 l 391 769 l 373 774 l 386 779 l 399 783 l 433 795 m 466 806 q 490 793 476 802 l 502 785 l 514 778 l 531 769 l 548 760 q 582 743 570 749 q 626 712 602 732 l 647 694 l 667 677 l 657 677 l 648 676 q 623 696 635 683 l 612 708 l 602 720 q 595 722 599 723 q 559 747 582 734 l 540 758 l 522 768 l 490 785 q 459 802 473 795 q 465 804 462 803 l 466 806 m 743 442 q 715 437 726 440 l 715 458 q 728 450 721 454 q 741 443 733 447 l 743 442 m 713 528 q 742 515 722 523 l 757 510 q 768 505 764 507 l 790 491 l 811 478 q 854 452 837 462 l 854 452 l 833 450 l 812 448 q 779 445 800 446 q 763 451 772 447 l 755 454 l 749 458 l 745 460 l 741 463 q 730 469 734 466 q 715 483 719 476 l 713 528 m 908 458 q 863 453 892 456 q 867 460 867 456 q 863 467 867 465 q 791 511 820 491 q 756 530 770 524 q 746 534 753 532 l 740 536 l 734 538 q 714 549 718 543 l 713 551 l 712 568 q 762 541 732 556 l 812 516 q 908 458 872 485 m 961 351 q 958 448 962 405 q 949 463 957 458 q 943 475 949 471 q 890 511 922 492 l 863 527 l 836 543 q 777 573 816 555 l 747 587 q 718 603 731 595 q 709 605 714 605 l 709 614 q 711 627 710 620 l 713 640 q 712 664 715 654 q 703 675 710 671 q 702 696 711 686 q 681 700 693 708 q 671 723 690 706 q 655 736 665 728 l 651 739 l 648 741 q 643 745 644 744 q 616 764 632 754 l 602 772 l 587 779 l 570 788 l 553 797 q 519 814 531 808 l 507 822 l 494 830 q 466 842 478 840 q 452 838 458 843 q 418 827 438 835 l 402 821 l 386 814 q 347 803 363 806 l 338 802 l 331 800 q 315 794 321 798 q 310 771 302 785 q 307 726 306 754 l 308 715 l 309 704 q 310 684 310 689 q 313 637 311 665 l 317 591 q 304 581 308 591 l 294 579 l 284 577 q 265 572 272 575 q 227 559 250 566 l 189 548 l 165 541 l 141 536 q 94 522 111 529 q 75 522 85 528 q 68 504 64 515 q 74 458 73 486 l 74 435 l 73 412 q 68 397 67 406 q 80 383 70 387 q 106 365 92 379 l 117 353 q 129 342 124 347 q 193 302 168 315 q 252 269 214 293 l 281 252 q 310 237 297 243 q 316 235 313 235 l 317 234 l 317 233 q 333 222 321 222 l 341 223 q 339 193 338 213 l 340 176 q 340 161 340 168 q 343 132 338 142 q 365 113 349 122 q 469 47 432 75 q 484 39 475 43 l 498 30 q 526 12 517 20 q 534 7 528 8 q 547 0 538 0 q 591 6 567 0 l 612 12 l 623 14 l 634 18 q 652 21 640 19 l 662 22 l 671 24 q 705 39 694 30 l 705 40 l 706 41 q 713 54 713 46 q 715 160 713 92 l 717 212 l 718 265 q 746 270 730 268 l 774 273 q 830 281 810 276 l 956 312 q 968 326 967 315 q 961 342 969 336 l 961 351 m 128 698 q 85 725 107 722 l 76 726 l 67 726 q 50 729 57 727 l 43 731 l 35 733 q 19 734 26 735 q 13 731 15 734 q 11 725 11 729 q 13 720 11 722 q 19 718 15 717 q 45 713 28 718 l 59 711 q 72 709 66 709 q 116 686 97 707 q 127 686 121 680 q 128 698 134 692 m 159 777 q 145 788 152 779 l 140 795 q 134 802 136 800 q 118 815 128 808 l 109 821 l 100 827 q 94 829 98 830 q 90 825 92 828 q 88 819 88 822 q 92 812 89 815 l 102 806 l 111 799 q 128 783 122 791 l 134 776 l 139 770 q 154 760 146 763 q 164 766 162 758 q 159 777 166 774 m 249 825 q 234 863 237 840 q 233 884 233 872 l 233 905 q 224 914 233 914 q 216 905 216 914 l 216 882 q 218 859 216 869 q 235 816 221 833 q 241 812 237 812 q 247 814 243 812 q 251 818 250 815 q 249 825 252 821 m 699 852 q 699 840 692 846 q 704 837 701 838 q 710 840 707 837 l 762 891 q 764 897 764 894 q 762 903 764 901 q 749 903 755 909 l 699 852 m 856 837 q 798 820 828 833 l 787 816 l 777 812 q 758 800 765 807 q 758 789 752 795 q 770 788 764 783 q 788 798 777 794 l 798 802 l 807 806 q 861 821 832 816 q 867 830 869 821 q 856 837 864 838 m 876 726 q 841 718 862 727 l 833 715 l 825 712 q 807 709 815 709 q 801 706 803 709 q 799 700 799 703 q 801 694 799 696 q 807 692 803 692 q 825 694 815 692 l 833 698 l 842 701 q 876 709 863 709 q 884 717 884 708 q 876 726 884 725 z "},",":{"ha":428,"x_min":17,"x_max":435,"o":"m 398 85 q 373 -10 394 47 l 364 -33 l 356 -56 q 340 -103 346 -83 q 332 -126 335 -123 q 306 -132 330 -127 q 284 -138 297 -134 l 261 -144 q 215 -152 233 -151 l 222 -140 l 230 -128 q 243 -108 239 -114 q 250 -93 245 -102 l 257 -77 q 263 -73 261 -76 q 263 -66 265 -69 q 285 -35 274 -45 q 287 -16 295 -27 l 295 -2 l 293 -2 q 234 36 248 -1 q 227 89 226 58 q 252 149 227 123 q 267 163 258 157 l 266 163 q 289 186 281 178 q 359 176 332 195 q 388 120 385 157 l 389 118 l 390 117 q 399 87 395 103 l 398 86 l 398 85 m 197 -117 q 145 -88 167 -96 l 121 -81 q 98 -73 106 -77 q 92 -71 96 -73 l 85 -68 q 75 -61 77 -65 q 73 -58 75 -59 l 82 -43 l 84 -43 q 98 -48 90 -44 l 104 -52 l 111 -56 q 133 -66 121 -60 l 155 -77 q 189 -92 175 -87 l 193 -93 l 198 -94 q 210 -97 205 -96 q 197 -117 205 -106 m 181 -143 q 153 -127 170 -136 l 125 -113 l 120 -110 l 114 -106 l 102 -100 q 75 -83 86 -91 q 88 -88 80 -85 l 94 -91 l 100 -93 l 115 -98 l 130 -103 q 161 -114 150 -109 q 189 -131 172 -119 l 181 -143 m 83 124 q 104 111 92 117 q 127 102 114 106 l 151 96 l 175 89 q 193 83 182 87 q 195 45 192 62 q 155 62 170 58 q 144 64 151 63 l 136 64 l 129 64 q 99 68 109 65 q 83 124 85 92 m 87 173 q 104 161 92 166 l 116 157 l 121 156 l 125 155 l 151 147 l 175 140 q 199 128 184 136 q 193 102 195 116 l 176 107 l 157 112 l 149 115 l 140 117 q 119 123 127 120 q 88 145 95 131 q 83 150 87 149 q 87 173 84 160 m 98 206 q 116 193 104 199 l 126 189 l 137 185 q 168 176 150 180 l 184 173 l 199 170 q 216 165 207 168 q 205 144 210 155 q 171 159 185 155 l 153 165 l 135 170 q 132 170 134 170 l 128 172 q 117 174 121 173 q 100 183 102 179 q 91 189 98 190 q 98 206 94 197 m 122 49 q 173 37 151 45 l 187 31 l 201 24 l 205 11 l 208 8 q 121 42 149 20 q 113 50 117 45 l 122 49 m 224 -47 l 217 -46 q 203 -43 208 -44 q 155 -24 184 -36 l 108 -5 l 114 5 q 165 -17 135 -8 q 193 -24 176 -20 l 221 -30 q 237 -25 231 -32 l 245 -29 q 233 -50 239 -37 l 224 -47 m 102 -20 l 141 -37 l 180 -52 q 216 -65 202 -61 q 224 -66 218 -66 l 218 -81 q 205 -77 212 -79 l 191 -73 q 168 -64 174 -67 l 158 -59 l 148 -54 q 128 -43 136 -46 l 120 -39 l 111 -35 q 92 -28 100 -30 l 99 -18 l 102 -20 m 155 242 l 167 240 q 189 231 180 237 l 218 213 q 248 196 235 203 l 239 189 q 231 182 233 186 l 229 180 q 210 186 221 183 l 200 187 l 191 189 l 187 190 l 183 191 q 172 192 177 191 q 146 198 157 195 q 110 221 111 208 l 109 223 q 144 245 123 240 l 155 242 m 262 216 q 258 210 260 214 q 218 233 239 220 l 241 224 l 262 216 m 423 100 q 402 183 429 151 q 354 220 382 208 q 326 230 341 227 q 315 235 321 235 q 274 245 296 237 l 254 253 l 235 262 q 153 287 183 286 q 87 258 113 289 q 57 187 69 235 q 82 30 31 86 l 85 28 l 87 26 l 86 25 q 65 -5 81 17 l 53 -21 q 41 -39 46 -31 q 46 -102 17 -80 l 77 -123 q 108 -142 94 -134 l 126 -152 l 144 -161 q 178 -183 165 -173 q 191 -185 184 -187 q 243 -182 214 -188 l 268 -176 l 294 -170 q 313 -167 300 -168 l 324 -165 l 334 -163 q 368 -144 359 -159 q 374 -123 372 -138 l 375 -111 q 378 -100 376 -104 q 400 -28 389 -61 l 410 0 l 420 27 q 432 85 429 58 q 423 100 433 96 m 84 304 q 74 310 81 304 l 68 315 l 66 317 l 64 319 q 54 330 58 325 l 52 336 l 51 336 l 50 338 q 50 338 50 339 q 41 347 50 347 q 33 338 33 347 q 40 321 33 330 l 46 313 l 52 307 l 59 300 l 66 294 q 84 287 76 287 q 92 296 92 287 q 84 304 92 304 m 125 398 l 122 404 q 118 418 119 411 q 109 424 117 426 q 102 413 100 421 q 105 401 102 408 l 111 389 q 119 364 119 374 q 127 356 119 356 q 136 364 136 356 q 129 391 136 378 l 125 398 m 326 411 q 319 396 323 407 l 316 387 l 313 378 q 290 355 304 356 q 281 347 281 355 q 290 338 281 338 q 323 362 311 339 l 327 372 l 331 383 q 340 403 336 396 q 341 409 342 406 q 337 414 340 412 q 331 415 334 416 q 326 411 328 414 m 378 336 q 366 328 374 331 l 358 326 l 351 323 q 333 296 334 316 q 340 288 332 288 q 350 296 349 288 q 366 311 351 306 q 390 323 384 316 q 389 336 395 330 q 378 336 383 342 m 418 296 q 414 286 418 291 l 410 281 l 406 279 l 401 275 l 397 272 q 387 269 391 269 q 380 268 382 270 q 376 262 377 266 q 376 256 375 259 q 382 253 378 254 q 416 265 397 250 q 429 278 425 271 q 435 296 435 287 q 427 304 435 304 q 418 296 418 304 m 217 389 l 216 395 q 217 410 216 403 q 210 418 218 418 q 199 410 201 418 q 199 397 199 405 l 201 385 q 199 359 203 368 q 205 348 197 351 q 216 353 213 345 q 218 381 220 367 l 217 389 z "},"-":{"ha":741,"x_min":-2,"x_max":754,"o":"m 654 186 q 467 173 554 186 l 458 172 l 448 170 q 425 166 435 168 q 385 154 398 161 l 385 154 q 379 162 383 159 l 377 163 q 380 178 382 170 q 377 189 378 182 q 380 195 380 191 q 376 203 380 200 q 378 224 376 216 q 374 236 378 231 q 385 236 380 232 q 387 246 390 241 q 547 278 471 267 q 566 282 550 279 l 573 283 l 581 286 l 597 289 q 654 296 640 298 l 654 186 m 245 354 q 172 393 206 374 l 178 395 l 190 395 l 201 395 q 219 381 207 387 l 230 376 l 241 372 l 287 349 q 333 326 314 335 l 353 317 l 372 307 q 412 288 397 295 l 413 288 l 380 280 l 378 281 q 315 323 357 303 l 296 331 l 279 339 q 245 354 256 349 m 325 232 q 311 240 317 237 l 290 252 l 269 263 q 205 290 248 275 l 173 303 q 141 317 155 311 l 141 323 q 140 330 140 326 l 140 338 l 161 332 l 184 326 q 228 312 211 318 q 258 298 241 307 l 287 283 q 313 271 294 279 l 327 264 l 341 257 q 340 240 340 250 l 340 222 l 325 232 m 338 185 q 299 201 323 192 l 279 209 l 258 216 q 201 245 225 230 q 189 252 197 248 l 174 260 q 149 277 158 269 q 144 283 148 281 l 144 284 l 143 286 l 143 288 l 143 298 q 173 284 156 292 l 203 273 q 263 246 242 257 l 282 235 l 302 224 q 340 201 327 208 l 339 193 l 338 185 m 146 368 l 153 364 q 165 356 161 358 q 208 334 182 347 l 195 337 q 183 341 191 338 l 176 344 l 169 347 q 138 356 149 355 q 140 373 138 366 l 146 368 m 300 404 q 393 350 334 377 q 450 326 427 334 q 509 308 482 313 q 437 294 475 302 q 389 317 422 302 q 359 332 377 323 l 326 346 q 224 397 243 384 l 271 404 l 300 404 m 517 324 q 461 340 493 328 l 434 351 l 408 363 q 330 404 361 382 q 411 405 381 404 q 437 389 426 395 q 472 370 452 382 l 507 351 q 578 319 548 328 l 575 318 l 572 318 q 520 310 550 315 q 523 318 524 314 q 517 324 522 323 m 534 376 q 582 353 554 367 l 605 340 l 629 328 l 612 326 l 597 322 q 591 332 599 330 q 525 360 562 340 l 493 378 l 462 395 q 440 408 452 399 l 454 409 q 495 391 469 400 l 506 387 l 516 382 q 534 376 528 378 m 688 317 q 685 328 688 323 q 677 342 686 338 q 650 356 665 348 l 625 371 q 573 399 591 391 q 538 413 562 404 l 522 420 l 504 427 q 493 431 500 429 l 486 433 l 479 435 q 458 447 463 441 l 455 450 q 399 438 425 442 q 349 437 378 437 l 299 437 l 288 439 l 256 437 q 202 433 226 436 q 149 427 168 431 q 106 408 120 421 q 100 394 99 401 q 108 382 102 387 q 105 353 104 370 l 106 338 l 106 323 l 106 316 l 106 308 q 107 291 107 297 q 118 262 109 271 q 121 257 119 259 q 171 220 137 238 q 200 206 181 215 l 214 200 l 227 193 q 256 181 239 187 l 284 170 q 340 145 321 155 q 378 117 349 116 q 412 123 391 117 l 430 129 l 447 133 q 492 140 467 138 l 515 142 l 538 144 l 570 147 l 601 149 q 663 152 637 152 q 676 151 669 149 l 684 153 q 696 167 695 156 q 688 183 697 178 l 688 317 m 61 445 q 16 459 33 441 q 4 459 10 465 q 3 447 -2 453 q 61 427 26 423 q 69 437 69 429 q 61 445 69 446 m 78 516 l 72 522 q 58 534 64 529 q 26 547 41 546 q 20 545 23 548 q 18 540 18 543 q 20 534 18 536 q 26 530 23 531 q 39 525 32 530 l 45 521 l 50 517 q 72 498 60 509 q 84 499 78 493 q 84 511 90 505 l 78 516 m 164 547 l 161 560 l 158 573 q 155 599 155 588 q 146 607 155 607 q 138 599 138 607 q 142 568 138 586 l 145 553 l 149 538 q 155 532 149 533 l 161 530 q 172 537 170 529 q 166 547 174 545 l 164 547 m 600 584 q 596 589 600 588 q 590 590 593 591 q 585 586 587 589 q 584 579 583 583 q 573 558 585 571 q 563 549 569 554 l 558 545 q 554 542 555 543 l 545 534 l 536 526 q 517 511 524 517 q 515 505 515 508 q 517 499 515 501 q 523 496 520 496 q 530 498 527 496 l 541 509 l 553 519 q 577 539 570 532 q 586 549 583 545 q 595 559 591 554 q 600 584 603 572 m 652 532 q 641 523 650 528 l 633 519 q 627 516 629 518 l 621 510 l 614 504 q 600 496 607 496 q 592 487 592 496 q 600 479 592 479 q 621 487 611 479 l 628 494 l 636 502 q 646 508 640 505 l 650 510 l 655 512 q 669 528 666 517 q 663 538 671 536 q 652 532 654 541 m 746 445 q 719 432 734 444 q 699 426 711 426 l 688 427 l 677 427 q 671 425 673 428 q 669 419 669 422 q 677 410 669 410 l 688 410 l 698 409 q 718 411 709 408 q 725 415 721 412 l 731 420 q 746 427 739 427 q 754 437 754 428 q 746 445 754 445 z "},".":{"ha":517,"x_min":-14,"x_max":545,"o":"m 288 -6 q 250 103 219 25 q 294 168 262 135 l 306 174 l 318 178 q 345 183 332 184 q 395 164 374 182 q 421 117 415 146 q 389 16 433 60 q 288 -6 342 -31 m 229 142 q 199 158 216 146 q 186 168 193 162 q 174 178 181 172 q 135 206 155 194 q 145 223 138 214 q 170 206 155 216 l 183 199 l 196 191 q 245 169 221 175 q 229 142 236 156 m 202 115 l 189 120 q 165 132 174 126 l 155 140 l 145 148 q 123 159 134 157 q 129 189 124 174 l 142 180 l 155 170 q 180 151 171 157 l 191 144 l 201 138 q 222 127 212 130 l 215 111 l 202 115 m 205 68 q 167 90 193 76 q 134 107 149 98 l 130 110 q 123 141 125 123 q 146 127 133 138 l 158 118 q 169 111 164 113 q 189 102 176 107 l 210 95 q 205 68 205 80 m 158 69 q 149 79 153 73 l 156 75 l 164 71 l 173 66 l 182 62 q 199 50 193 56 l 189 54 l 178 58 q 158 69 165 62 m 178 251 l 194 245 l 210 241 q 241 228 230 235 l 251 222 l 260 216 q 278 203 271 210 q 267 195 275 202 l 260 189 q 256 184 258 186 l 256 184 q 225 195 242 186 l 211 202 q 197 210 205 205 l 188 216 l 177 222 q 156 236 164 231 q 168 245 163 242 l 178 251 m 316 215 q 301 210 308 213 q 292 210 297 211 l 289 214 l 286 218 q 281 224 283 222 q 265 234 275 229 l 258 238 l 250 242 q 231 252 241 248 l 210 258 q 263 244 233 258 q 290 230 274 239 l 316 215 m 448 146 q 395 207 430 190 q 384 224 399 222 q 344 238 366 228 l 325 248 l 306 259 q 226 294 255 289 q 152 277 188 300 q 102 220 117 256 q 89 140 86 184 q 114 64 92 95 q 164 27 127 45 l 180 19 l 195 11 q 227 -3 214 0 q 291 -43 251 -34 q 369 -38 331 -52 q 446 38 422 -17 q 448 146 468 93 m 71 222 q 43 261 62 245 q 33 268 39 265 l 21 273 q 0 286 6 279 q -6 289 -3 290 q -12 286 -9 289 q -14 281 -14 284 q -12 274 -14 277 q 5 262 -5 267 l 15 258 l 24 254 q 54 218 45 243 q 59 213 56 214 q 66 213 62 212 q 71 216 69 214 q 71 222 73 219 m 35 363 q 22 363 28 369 q 22 351 16 357 l 34 341 l 45 331 l 51 326 l 56 320 q 62 306 62 313 q 71 298 63 298 q 80 306 80 298 q 63 338 79 322 q 48 351 58 343 l 41 357 l 35 363 m 150 387 q 148 406 148 395 l 148 416 l 149 426 q 140 434 149 434 q 131 426 132 434 l 130 409 q 132 391 130 399 l 134 383 l 136 374 q 140 357 140 364 q 142 351 140 353 q 149 349 145 349 q 155 351 152 349 q 157 357 157 353 q 155 372 157 364 l 150 387 m 431 394 q 417 371 426 380 q 394 357 406 359 q 389 347 386 356 q 399 340 391 339 q 429 359 415 343 q 448 389 441 372 q 442 399 451 397 q 431 394 434 401 m 485 347 q 471 335 480 340 l 465 330 l 457 325 q 452 320 455 323 l 448 314 q 437 306 442 307 q 431 296 429 304 q 441 289 433 287 q 454 297 449 291 l 459 302 l 465 309 q 473 315 468 312 l 481 321 q 497 334 492 328 q 496 347 502 340 q 485 347 490 353 m 528 269 q 478 228 497 239 q 474 222 475 226 q 475 216 473 219 q 480 212 477 213 q 487 213 483 211 q 540 257 508 224 q 539 269 545 263 q 534 272 537 271 q 528 269 530 272 z "},"/":{"ha":614,"x_min":-6,"x_max":589,"o":"m 496 679 q 418 410 454 545 l 390 302 l 361 195 q 304 -22 326 65 l 304 -23 l 304 -26 q 254 -38 286 -27 q 231 -42 245 -41 l 220 -43 l 208 -44 q 191 -49 201 -45 l 176 -54 q 217 64 196 -3 q 225 69 223 64 q 222 79 227 75 q 260 208 236 124 l 278 272 l 297 336 l 315 393 l 332 450 q 361 566 350 515 l 368 593 l 373 621 q 388 676 380 654 q 395 703 390 684 l 399 719 l 404 735 q 429 794 416 775 q 541 822 493 817 q 517 751 530 795 l 507 715 l 496 679 m 140 -52 q 79 1 108 -31 l 64 18 q 51 34 56 26 q 75 21 60 28 l 87 15 q 98 10 94 12 q 149 -28 126 -3 l 149 -28 l 140 -52 m 109 52 q 138 36 123 43 q 170 27 157 28 l 156 -11 l 153 -7 l 150 -3 q 146 1 147 0 q 115 21 135 11 q 106 25 111 23 l 102 27 l 96 29 q 73 39 82 35 q 43 69 45 54 l 42 71 l 49 91 q 79 71 61 82 l 109 52 m 65 137 q 82 127 71 132 l 91 123 l 95 121 l 99 120 q 165 91 140 102 l 176 85 l 189 78 l 182 60 l 176 42 q 172 44 174 43 q 136 56 156 45 q 119 67 129 60 l 111 72 l 104 77 l 92 85 l 79 92 q 55 108 64 101 l 65 137 m 104 169 l 127 155 q 143 144 134 151 l 151 137 l 159 131 q 195 115 180 117 q 202 119 200 115 l 195 96 l 191 98 q 147 117 172 107 l 146 117 l 146 118 l 144 119 q 135 122 140 121 q 111 133 122 128 q 76 151 75 149 q 74 161 79 157 l 82 183 l 104 169 m 106 256 q 123 244 112 251 l 131 239 l 138 235 l 147 227 l 157 219 q 177 203 170 208 q 222 182 201 185 l 212 151 l 202 120 q 201 128 203 124 q 195 132 199 132 q 180 139 188 133 l 174 144 l 167 150 l 150 161 l 132 172 l 110 186 l 87 200 l 106 256 m 113 275 q 114 280 114 277 l 119 297 q 146 279 129 288 l 161 271 l 176 265 l 186 260 l 197 256 q 218 245 210 250 l 227 239 l 237 232 l 227 198 l 226 198 q 189 215 210 200 q 172 229 182 220 l 164 236 l 157 242 q 153 245 155 243 l 148 250 q 136 259 140 255 q 112 273 119 271 l 113 275 m 134 349 q 254 291 197 304 l 241 249 l 234 254 l 227 260 q 210 269 220 264 l 191 277 q 187 278 191 277 q 179 282 184 280 q 157 294 168 288 q 127 311 126 309 q 126 321 132 316 l 134 349 m 155 449 q 217 420 182 431 q 250 408 231 415 l 283 393 l 276 370 l 269 374 l 246 383 l 224 391 l 211 395 l 198 399 q 193 400 197 399 l 188 401 l 183 404 q 171 406 171 407 q 168 411 170 410 q 161 412 165 412 q 156 408 158 411 q 155 401 154 405 l 155 399 q 161 393 156 395 q 233 369 205 380 l 242 366 l 252 362 q 271 354 264 357 l 271 354 l 258 307 q 138 367 202 321 l 146 406 l 155 449 m 165 496 q 182 488 170 493 q 230 466 203 481 l 244 458 l 258 452 l 262 450 l 267 448 q 277 444 273 446 q 294 432 290 439 l 288 410 l 259 422 q 230 433 243 429 q 158 467 186 448 l 165 496 m 178 556 q 228 532 197 545 l 238 527 l 248 523 q 267 512 259 517 l 271 510 l 275 507 q 286 500 282 503 q 300 484 298 491 q 306 479 302 480 l 298 452 q 285 459 294 455 l 277 462 l 271 465 q 245 477 260 469 l 220 490 q 209 495 216 492 l 195 500 q 172 512 178 507 l 168 514 l 178 556 m 191 611 q 192 616 191 612 l 193 616 q 277 571 248 597 q 286 562 280 568 l 296 551 q 317 535 307 538 l 319 535 l 311 500 q 288 519 303 509 q 276 528 283 524 l 270 531 l 264 534 l 243 545 l 223 554 q 182 574 196 566 l 191 611 m 201 663 q 231 650 211 657 l 245 644 q 258 638 252 641 q 276 627 266 634 l 293 615 q 329 595 315 600 l 332 595 l 322 552 q 309 562 316 553 l 303 569 l 298 575 q 269 600 284 589 q 208 629 249 614 q 200 635 206 635 q 195 635 197 635 q 198 648 196 640 l 199 654 l 201 663 m 241 714 q 267 700 256 706 q 295 684 285 689 q 305 681 298 683 l 311 679 l 317 677 q 336 665 332 671 q 341 661 338 661 q 347 663 345 660 l 347 662 q 335 611 342 642 l 334 612 q 300 631 321 616 l 283 643 q 267 653 274 650 q 252 659 261 656 l 236 665 q 204 680 215 673 q 214 728 210 706 l 241 714 m 222 766 q 247 756 231 761 l 260 753 l 271 749 q 292 740 281 746 l 312 729 q 352 709 337 714 q 360 711 357 708 l 355 692 l 350 673 l 350 673 q 322 694 343 686 l 313 697 l 304 700 q 288 707 294 703 q 220 743 252 726 l 218 745 l 222 766 m 231 810 q 264 799 245 808 l 280 791 l 296 784 q 315 778 303 781 l 325 775 l 334 772 l 345 768 l 354 764 q 373 756 366 758 q 362 720 368 741 q 357 726 361 724 q 323 742 344 730 l 308 751 q 291 760 298 757 q 275 765 286 762 l 258 770 q 225 783 236 776 q 231 810 229 798 m 239 842 q 275 827 253 834 l 294 820 l 313 814 l 326 809 l 338 804 q 363 792 353 799 q 383 781 374 783 l 379 772 q 342 784 363 776 l 325 792 l 307 800 q 235 827 260 823 q 239 842 237 836 m 248 864 q 256 869 252 865 l 265 867 l 275 864 q 297 855 283 861 l 308 850 l 313 847 l 318 844 l 330 840 l 342 834 q 365 822 357 827 l 372 817 l 379 812 q 393 803 387 806 l 391 798 q 375 804 383 798 l 368 809 l 361 814 q 345 821 354 818 l 336 824 l 327 827 l 307 833 l 285 841 q 244 858 260 850 q 248 864 246 863 m 303 903 q 307 896 304 899 q 315 895 311 894 l 355 879 l 396 862 q 426 851 405 858 l 442 846 l 458 840 l 435 833 q 415 831 425 840 l 415 831 q 391 844 405 834 l 380 852 q 369 860 374 857 l 351 869 q 333 878 341 874 l 324 881 l 315 884 q 297 891 303 888 q 281 897 291 894 q 303 903 291 900 m 523 854 q 484 846 505 851 q 451 861 471 854 l 434 867 l 417 872 q 373 889 398 878 l 351 898 l 329 907 q 523 854 420 918 m 581 850 q 574 861 580 857 q 382 946 491 920 q 325 942 355 952 q 301 935 315 939 l 277 928 q 231 912 248 921 q 224 892 218 905 l 224 887 q 201 819 210 869 l 197 799 l 195 789 l 194 781 q 190 753 191 760 q 127 484 164 645 q 5 71 86 301 l 2 67 q -2 51 -6 60 q 20 14 3 35 q 36 -2 26 7 l 43 -10 l 50 -17 q 132 -88 94 -64 q 139 -91 135 -90 q 146 -92 142 -92 q 191 -85 164 -94 q 217 -79 202 -81 l 231 -77 l 245 -75 q 262 -72 252 -75 l 280 -66 q 315 -59 302 -59 q 332 -44 330 -59 q 336 -37 336 -41 q 363 68 348 9 l 392 172 q 446 382 429 305 q 479 504 456 427 l 498 564 q 515 625 508 599 l 522 650 l 528 677 q 543 730 536 707 q 583 831 562 791 q 581 850 589 842 m 150 907 q 142 912 147 907 l 138 916 q 135 919 136 918 q 115 930 123 928 q 109 928 111 930 q 104 923 106 926 q 105 917 104 920 q 111 913 106 914 q 121 909 115 912 l 125 905 l 130 901 q 150 890 141 891 q 158 898 158 889 q 150 907 158 907 m 176 953 q 175 954 176 953 l 174 956 l 173 956 q 168 961 171 958 l 153 973 q 140 972 146 979 q 141 961 134 966 l 151 953 l 160 945 q 176 936 168 937 q 184 943 184 935 q 176 953 184 952 m 222 996 q 216 1004 219 998 l 213 1009 l 210 1013 q 199 1013 205 1019 q 198 1001 193 1007 q 201 995 199 999 l 203 991 l 205 989 l 207 987 l 210 984 q 212 979 213 981 q 220 970 212 970 q 230 979 229 970 q 222 996 231 987 m 387 1050 q 385 1046 387 1048 l 382 1044 l 381 1042 q 375 1033 377 1038 l 372 1027 l 370 1021 q 363 1010 367 1014 q 363 998 358 1004 q 376 998 370 992 q 384 1012 380 1003 l 387 1019 l 391 1027 l 395 1032 l 399 1037 q 404 1050 405 1044 q 394 1058 403 1058 q 387 1050 386 1058 m 435 1038 q 431 1031 435 1036 l 428 1029 l 425 1026 l 419 1021 q 414 1015 416 1017 q 416 1003 409 1007 q 429 1006 424 999 q 435 1014 431 1009 l 443 1021 q 452 1038 452 1029 q 444 1046 453 1046 q 435 1038 436 1046 m 487 1010 q 455 987 470 1003 q 455 975 449 981 q 467 975 461 970 q 492 993 480 989 q 497 1004 499 996 q 487 1010 495 1013 z "},":":{"ha":568,"x_min":20,"x_max":579,"o":"m 322 368 q 283 477 253 398 q 328 541 296 509 l 340 547 l 352 552 q 378 557 366 557 q 429 538 408 556 q 455 490 449 520 q 422 389 467 433 q 322 368 376 343 m 262 515 q 233 531 250 520 q 220 541 227 536 q 208 551 215 545 q 169 580 189 568 q 179 597 172 588 q 204 580 189 589 l 217 572 l 230 564 q 279 542 255 549 q 262 515 270 530 m 236 489 l 223 494 q 199 506 208 499 l 189 514 l 179 522 q 157 532 168 530 q 163 563 158 547 l 176 553 l 189 543 q 214 524 205 530 l 224 517 l 235 511 q 256 500 246 503 l 249 484 l 236 489 m 239 441 q 201 463 227 450 q 168 481 182 471 l 164 483 q 157 515 159 497 q 180 500 167 512 l 192 491 q 203 484 198 486 q 223 476 210 481 l 244 468 q 239 441 239 453 m 192 442 q 182 452 187 446 l 190 448 l 198 445 l 207 440 l 216 435 q 233 423 227 429 l 222 427 l 212 431 q 192 442 199 436 m 212 625 l 228 619 l 244 614 q 275 601 264 608 l 285 595 l 294 590 q 312 576 305 583 q 301 568 309 576 l 294 562 q 290 557 292 559 l 290 557 q 259 568 276 559 l 245 576 q 231 583 239 578 l 222 589 l 211 596 q 190 610 198 604 q 202 619 197 616 l 212 625 m 350 589 q 335 583 342 587 q 326 584 331 585 l 323 587 l 320 591 q 315 597 317 596 q 299 608 309 602 l 292 612 l 283 616 q 264 625 275 621 l 244 631 q 297 617 267 631 q 323 604 308 612 l 350 589 m 481 519 q 429 580 464 564 q 418 598 433 595 q 378 612 399 602 l 359 622 l 340 633 q 260 667 289 663 q 186 651 222 673 q 136 593 151 629 q 123 514 120 557 q 148 437 126 469 q 198 401 161 418 l 214 393 l 229 384 q 260 370 248 374 q 325 330 285 340 q 403 336 365 321 q 479 412 456 356 q 481 519 502 466 m 418 48 q 351 13 389 12 q 292 51 305 14 q 284 104 284 73 q 310 165 285 139 q 325 178 316 173 l 324 179 q 347 202 339 193 q 417 191 391 211 q 446 122 448 168 q 418 48 444 80 m 245 205 l 241 205 q 231 208 235 207 q 204 214 215 210 q 168 236 169 223 l 167 239 q 202 260 180 256 l 213 258 l 224 255 q 247 246 238 252 l 276 229 q 306 212 292 218 l 296 205 q 288 198 292 201 l 287 196 q 268 201 279 199 l 258 203 l 249 204 l 245 205 m 262 159 q 229 174 243 170 l 211 180 l 193 185 q 190 186 192 185 l 186 187 q 175 190 180 189 q 159 199 160 195 q 149 204 157 205 q 156 222 152 212 q 174 208 162 214 l 184 204 l 195 200 q 226 192 208 195 l 241 189 l 258 185 q 274 180 265 184 q 262 159 267 170 m 180 57 q 171 65 175 60 l 180 64 q 231 52 209 61 l 245 46 l 259 39 l 264 26 l 265 23 q 180 57 207 36 m 141 140 q 163 126 149 132 q 185 118 172 121 l 209 111 l 233 104 q 250 98 240 102 q 254 60 250 78 q 214 77 228 74 q 201 79 210 79 l 195 79 l 186 79 q 157 84 166 81 q 141 140 144 108 m 145 189 q 163 176 150 181 l 174 173 l 179 172 l 184 170 l 208 163 l 233 155 q 257 143 243 151 q 252 117 253 132 l 233 123 l 216 127 l 207 130 l 197 132 q 177 138 185 135 q 146 161 153 146 q 141 165 144 164 q 145 189 142 176 m 321 231 q 315 226 317 229 q 276 248 296 235 l 298 239 l 321 231 m 460 199 q 412 236 440 222 q 384 245 399 242 q 373 250 379 250 q 332 260 354 252 l 312 269 l 292 277 q 212 302 241 300 q 146 273 170 304 q 115 203 127 250 q 140 45 88 101 q 204 4 165 18 q 241 -6 220 -1 l 260 -11 l 279 -15 q 296 -10 289 -17 q 365 -20 325 -27 q 431 10 404 -14 q 479 100 469 43 q 460 199 491 161 m 104 596 q 77 635 96 618 q 66 642 73 638 l 55 646 q 34 660 40 652 q 28 663 31 663 q 22 660 25 663 q 20 654 20 657 q 22 648 20 650 q 39 635 28 640 l 49 631 l 58 627 q 88 591 79 616 q 93 587 90 588 q 100 586 96 585 q 104 589 103 587 q 104 596 106 592 m 68 737 q 56 736 62 743 q 56 725 50 730 l 68 714 l 79 704 l 85 699 l 90 693 q 96 680 96 686 q 105 671 97 671 q 114 680 114 671 q 97 712 113 696 q 82 725 92 717 l 75 731 l 68 737 m 184 761 q 182 780 182 769 l 182 789 l 182 800 q 174 808 182 808 q 165 800 165 808 l 164 782 q 165 765 164 772 l 168 756 l 170 748 q 174 731 174 738 q 176 724 174 727 q 182 722 179 722 q 189 724 186 722 q 191 731 191 727 q 189 746 191 738 l 184 761 m 465 767 q 451 744 460 754 q 428 730 440 732 q 422 721 420 729 q 433 714 425 713 q 463 732 449 716 q 481 763 475 745 q 476 772 485 770 q 465 767 468 775 m 519 720 q 505 708 514 714 l 498 703 l 491 698 q 486 693 489 696 l 481 688 q 471 679 476 680 q 465 669 463 677 q 475 663 467 661 q 488 671 483 665 l 493 676 l 498 682 q 507 688 502 685 l 515 694 q 531 707 526 701 q 530 720 536 714 q 519 720 524 726 m 562 643 q 512 601 531 612 q 508 596 509 600 q 509 590 507 593 q 514 586 511 587 q 521 587 517 585 q 574 631 542 598 q 573 642 579 636 q 568 645 571 645 q 562 643 564 646 z "},";":{"ha":504,"x_min":33,"x_max":500,"o":"m 427 401 q 359 367 397 366 q 300 405 314 368 q 293 458 293 427 q 318 518 294 492 q 334 532 325 526 l 333 532 q 355 555 348 547 q 425 545 399 564 q 454 475 457 522 q 427 401 452 433 m 254 558 l 250 559 q 239 561 244 560 q 212 567 224 564 q 176 590 178 576 l 176 592 q 210 613 189 609 l 222 611 l 233 608 q 255 600 246 606 l 285 582 q 315 565 301 572 l 305 558 q 297 551 300 555 l 296 549 q 276 555 288 552 l 267 556 l 257 558 l 254 558 m 271 513 q 237 528 252 523 l 219 533 l 201 538 q 199 539 201 538 l 195 541 q 183 543 188 542 q 168 552 168 548 q 158 557 165 559 q 165 575 161 566 q 182 562 170 568 l 193 557 l 203 553 q 235 545 216 549 l 250 542 l 266 538 q 283 534 273 537 q 271 513 276 524 m 188 411 q 179 418 184 414 l 189 418 q 239 406 218 414 l 254 399 l 267 393 l 273 380 l 274 376 q 188 411 216 389 m 150 493 q 171 479 158 486 q 193 471 181 475 l 218 465 l 241 458 q 259 452 248 456 q 262 414 259 431 q 222 431 237 427 q 210 433 218 432 l 203 433 l 195 433 q 165 437 175 434 q 150 493 153 461 m 153 542 q 172 530 159 534 l 182 526 l 187 525 l 192 524 l 217 516 l 241 509 q 265 497 252 505 q 260 471 262 485 l 242 476 l 224 481 l 216 484 l 206 486 q 186 492 193 489 q 155 514 161 500 q 150 518 153 517 q 153 542 151 529 m 329 585 q 324 579 326 583 q 285 602 305 589 l 307 593 l 329 585 m 469 552 q 420 589 449 576 q 393 599 408 595 q 382 604 388 604 q 340 614 362 606 l 321 622 l 301 631 q 220 656 250 654 q 154 627 179 658 q 123 556 136 603 q 149 399 97 455 q 213 358 174 372 q 249 347 228 353 l 268 343 l 288 339 q 304 343 298 336 q 374 333 333 326 q 439 363 412 340 q 488 454 477 397 q 469 552 500 514 m 444 87 q 420 -8 440 50 l 411 -31 l 402 -54 q 387 -101 392 -81 q 378 -124 382 -121 q 352 -130 376 -125 q 330 -136 344 -132 l 308 -142 q 262 -150 280 -149 l 269 -138 l 277 -126 q 290 -106 286 -112 q 296 -91 292 -100 l 303 -75 q 309 -71 307 -74 q 309 -64 311 -67 q 331 -33 320 -43 q 334 -14 341 -25 l 341 0 l 339 0 q 281 38 294 1 q 273 91 273 60 q 298 151 273 125 q 313 165 304 159 l 313 165 q 335 189 328 180 q 406 178 379 197 q 434 122 431 159 l 435 120 l 436 119 q 445 89 441 105 l 445 88 l 444 87 m 244 -115 q 191 -86 213 -94 l 168 -79 q 144 -71 153 -75 q 138 -69 142 -71 l 132 -66 q 121 -59 123 -63 q 119 -56 121 -57 l 128 -41 l 130 -41 q 144 -46 136 -42 l 151 -50 l 157 -54 q 180 -64 167 -58 l 201 -75 q 235 -90 221 -85 l 239 -91 l 245 -92 q 256 -95 252 -94 q 244 -115 251 -104 m 228 -141 q 200 -125 217 -134 l 172 -111 l 166 -108 l 161 -104 l 148 -98 q 122 -81 132 -89 q 134 -86 127 -83 l 140 -89 l 146 -91 l 161 -96 l 177 -101 q 208 -112 197 -107 q 235 -129 218 -117 l 228 -141 m 130 126 q 151 113 138 119 q 174 104 161 109 l 197 98 l 221 91 q 239 85 229 90 q 242 47 239 64 q 202 64 216 60 q 190 66 198 65 l 183 66 l 175 66 q 146 71 155 67 q 130 126 132 94 m 134 175 q 151 163 138 168 l 162 159 l 168 158 l 172 157 l 197 149 l 221 142 q 245 130 231 138 q 240 104 241 118 l 222 109 l 204 114 l 195 117 l 186 119 q 165 125 173 122 q 135 147 141 133 q 130 152 133 151 q 134 175 130 162 m 144 208 q 162 195 151 201 l 173 191 l 183 187 q 214 178 197 182 l 230 175 l 246 172 q 262 167 254 170 q 251 146 256 157 q 217 161 231 157 l 199 167 l 181 172 q 178 172 180 172 l 174 174 q 163 176 168 175 q 147 185 149 181 q 138 191 145 192 q 144 208 140 199 m 169 51 q 219 39 197 47 l 233 33 l 248 26 l 252 13 l 254 10 q 168 44 195 22 q 159 52 163 47 l 169 51 m 271 -45 l 263 -44 q 250 -41 254 -42 q 202 -22 230 -34 l 155 -3 l 160 7 q 212 -15 181 -6 q 239 -22 223 -18 l 267 -28 q 283 -23 277 -30 l 291 -27 q 279 -47 286 -35 l 271 -45 m 148 -18 l 187 -35 l 227 -50 q 263 -63 248 -59 q 271 -64 264 -64 l 264 -79 q 251 -75 258 -77 l 237 -71 q 214 -62 220 -65 l 204 -57 l 195 -52 q 175 -41 182 -44 l 166 -37 l 157 -33 q 139 -26 146 -28 l 145 -16 l 148 -18 m 201 244 l 213 242 q 235 233 227 239 l 264 215 q 294 198 281 205 l 285 191 q 277 184 280 188 l 275 182 q 256 188 267 185 l 246 189 l 237 191 l 234 192 l 230 193 q 219 194 224 193 q 192 200 203 197 q 156 223 157 210 l 155 225 q 191 247 169 242 l 201 244 m 309 218 q 304 212 306 216 q 264 235 285 222 l 287 227 l 309 218 m 470 102 q 448 185 475 153 q 400 222 429 210 q 372 232 388 229 q 361 237 368 237 q 320 247 342 239 l 300 255 l 281 264 q 200 289 230 288 q 134 260 159 291 q 103 189 115 237 q 129 32 77 88 l 131 30 l 134 28 l 133 27 q 112 -3 128 19 l 99 -19 q 87 -37 92 -28 q 93 -100 63 -78 l 123 -121 q 155 -140 140 -132 l 172 -150 l 191 -159 q 225 -181 212 -171 q 237 -183 231 -185 q 289 -180 260 -186 l 315 -174 l 340 -168 q 360 -165 347 -166 l 370 -163 l 380 -161 q 414 -142 406 -157 q 420 -121 418 -136 l 422 -109 q 424 -98 422 -102 q 446 -26 435 -59 l 457 2 l 466 29 q 479 87 476 60 q 470 102 480 98 m 79 627 q 60 628 67 625 q 54 642 52 631 q 52 649 54 646 q 47 652 50 652 q 41 652 43 654 q 37 647 37 650 q 50 613 33 622 q 89 612 65 606 q 95 618 94 613 l 96 625 q 90 635 98 633 q 79 629 81 637 l 79 627 m 96 705 q 86 710 93 705 l 81 715 l 79 717 l 77 719 q 66 731 71 726 l 64 736 l 63 737 l 62 738 q 62 739 62 739 q 54 747 62 747 q 45 739 45 747 q 52 722 45 730 l 58 713 l 64 707 l 71 701 l 79 694 q 96 687 88 687 q 104 696 104 687 q 96 705 104 705 m 138 798 l 134 804 q 130 818 132 812 q 121 824 130 826 q 114 813 113 821 q 117 801 115 808 l 123 789 q 131 764 131 774 q 140 756 131 756 q 148 764 148 756 q 141 792 148 779 l 138 798 m 338 812 q 331 796 335 807 l 328 787 l 325 778 q 302 755 316 756 q 294 747 294 755 q 302 739 294 739 q 335 762 323 740 l 339 772 l 343 783 q 352 803 349 796 q 353 810 354 806 q 349 814 352 812 q 343 815 346 816 q 338 812 340 814 m 390 736 q 378 728 386 731 l 370 726 l 363 724 q 345 696 347 716 q 353 688 345 688 q 362 696 361 688 q 378 711 363 707 q 402 724 396 716 q 401 736 408 730 q 390 736 395 743 m 431 696 q 426 686 431 691 l 422 682 l 418 679 l 414 675 l 409 673 q 399 670 403 669 q 392 668 395 671 q 388 663 389 666 q 389 657 387 660 q 394 653 390 654 q 429 665 410 650 q 441 678 437 672 q 448 696 448 687 q 439 704 448 704 q 431 696 431 704 z "}}}
